<?xml version="1.0" encoding="UTF-8" standalone="no"?>
<svg width="178px" height="60px" viewBox="0 0 178 60" version="1.1" xmlns="http://www.w3.org/2000/svg" xmlns:xlink="http://www.w3.org/1999/xlink" xmlns:sketch="http://www.bohemiancoding.com/sketch/ns">
    <!-- Generator: Sketch 3.2.2 (9983) - http://www.bohemiancoding.com/sketch -->
    <title>about-image</title>
    <desc>Created with Sketch.</desc>
    <defs></defs>
    <g id="Assets" stroke="none" stroke-width="1" fill="none" fill-rule="evenodd" sketch:type="MSPage">
        <g id="about-image" sketch:type="MSArtboardGroup">
            <g id="Imported-Layers-+-ยง" sketch:type="MSLayerGroup" transform="translate(0.000000, 5.000000)">
                <path d="M123.261346,27.4239999 C123.583062,27.9299999 124.703021,30.609111 125.230346,30.8755555 C126.323697,30.697111 126.587359,29.4773333 126.468832,28.5239999 C126.379332,27.9886666 126.20517,27.4826666 125.939089,27.0377777 C127.438819,28.0179999 128.737778,29.2964444 130.063346,30.5773333 C131.797711,31.5306666 130.85917,29.2084444 130.474562,28.5826666 C128.326562,24.8328888 124.703021,22.8088888 120.549738,23.2855555 C121.432643,23.0802221 122.344575,22.8993333 123.261346,22.8088888 C128.91194,22.2466666 135.276116,26.1724444 134.388373,32.6306666 C134.003765,34.8893333 132.472589,36.6199999 130.443116,36.7055555 C130.443116,36.6468888 130.414089,36.5906666 130.414089,36.5588888 C130.177035,35.6935555 129.298967,35.2193333 128.471697,35.4588888 C127.644427,35.6935555 127.177575,36.5588888 127.380765,37.4217777 C127.617819,38.2553333 128.26367,38.7613333 129.030467,39.0277777 C134.567373,40.905111 137.39267,33.8773333 135.71394,29.3575555 C134.122292,25.1017777 130.150427,22.2466666 125.760089,21.8873333 C122.608238,21.6208888 117.780075,22.6328888 114.83867,25.1017777 C115.310359,24.9819999 115.811075,24.8939999 116.277927,24.8646666 C120.375575,24.625111 122.141386,25.7275555 123.261346,27.4239999 Z M132.683035,21.8604444 C123.082346,18.7046666 114.337954,22.7526666 107.889116,29.9222221 C113.834819,22.8088888 122.19944,18.4382221 131.623548,20.5208888 C138.304603,22.0657777 143.459319,26.649111 149.259886,29.9833333 C153.734886,32.5426666 162.479278,36.6468888 167.341305,34.2708888 C168.870062,33.4055555 170.019048,32.2126666 170.548792,30.5186666 C170.986616,28.7317777 170.459292,26.8299999 168.6064,26.2042221 C167.926684,26.0526666 167.222778,26.143111 166.574508,25.7544444 C165.219913,24.8646666 165.449711,22.9897777 166.514035,21.9777777 C168.253238,20.401111 170.401238,21.1759999 171.932413,22.6035555 C172.25413,21.5328888 173.935278,22.3933333 174.435994,22.8088888 C177.643481,25.3682221 177.408846,30.4893333 174.994765,33.4642221 C164.864332,45.899111 142.017643,25.1604444 132.683035,21.8604444 Z M53.562616,27.4239999 C53.2433187,27.9299999 52.1233593,30.609111 51.593616,30.8755555 C50.5026836,30.697111 50.2656295,29.4773333 50.3551295,28.5239999 C50.4422106,27.9886666 50.6212106,27.4826666 50.8848728,27.0377777 C49.387562,28.0179999 48.0886025,29.2964444 46.760616,30.5773333 C45.0262512,31.5306666 45.9672106,29.2084444 46.3493998,28.5826666 C48.4998187,24.8328888 52.1233593,22.8088888 56.2766431,23.2855555 C55.3913187,23.0802221 54.4745485,22.8993333 53.562616,22.8088888 C47.9144403,22.2466666 41.5502647,26.1724444 42.4331701,32.6306666 C42.8201971,34.8893333 44.3513728,36.6199999 46.3784268,36.7055555 C46.3784268,36.6468888 46.4098728,36.5906666 46.4098728,36.5588888 C46.6469268,35.6935555 47.5249944,35.2193333 48.3522647,35.4588888 C49.1795349,35.6935555 49.6754133,36.5588888 49.4431971,37.4217777 C49.208562,38.2553333 48.5602917,38.7613333 47.7959133,39.0277777 C42.2590079,40.905111 39.4288728,33.8773333 41.1100214,29.3575555 C42.6968322,25.1017777 46.6759539,22.2466666 51.0638728,21.8873333 C54.2157241,21.6208888 59.0390485,22.6328888 61.9828728,25.1017777 C61.5160214,24.9819999 61.0153052,24.8939999 60.5460349,24.8646666 C56.4508052,24.625111 54.7116025,25.7275555 53.562616,27.4239999 Z M44.1433458,21.8604444 C53.7440349,18.7046666 62.4884268,22.7526666 68.9372647,29.9222221 C62.9891431,22.8088888 54.6269403,18.4382221 45.2004133,20.5208888 C38.5217782,22.0657777 33.367062,26.649111 27.5640755,29.9833333 C23.0914944,32.5426666 14.3422647,36.6468888 9.48507549,34.2708888 C7.95389981,33.4055555 6.80491332,32.2126666 6.277589,30.5186666 C5.83734576,28.7317777 6.367089,26.8299999 8.21756197,26.2042221 C8.89969711,26.0526666 9.63021062,26.143111 10.2494539,25.7544444 C11.6064674,24.8646666 11.3694133,22.9897777 10.3123458,21.9777777 C8.57314305,20.401111 6.42272413,21.1759999 4.92057549,22.6035555 C4.57225116,21.5328888 2.88868359,22.3933333 2.38796738,22.8088888 C-0.81951911,25.3682221 -0.582465055,30.4893333 1.83161603,33.4642221 C11.9596295,45.899111 34.8353458,25.1604444 44.1433458,21.8604444 Z" id="Fill-1" fill="#6A6A6B" sketch:type="MSShapeGroup"></path>
                <path d="M85.352,19.12 C88.104,19.12 90.472,21.36 92.392,23.088 C94.12,24.624 97.384,27.056 97.128,29.552 C97.128,32.432 95.208,34.288 92.328,34.288 C89.512,34.288 87.08,31.856 85.096,30.128 C83.24,28.464 80.872,26.288 80.872,23.6 C80.872,21.104 82.792,19.12 85.352,19.12 L85.352,19.12 Z M87.976,12.592 C86.056,10.928 83.688,9.136 83.688,6.32 C83.688,4.208 85.288,1.712 89.064,1.712 C90.088,1.712 93.096,2.16 93.096,3.696 C93.096,4.528 90.984,5.36 90.984,7.216 C90.984,8.688 92.2,10.096 93.736,10.096 C95.592,10.096 97.192,8.752 97.192,6.832 C97.192,2.672 92.904,0.368 89.192,0.368 C84.52,0.368 80.104,3.056 80.104,8.112 C80.104,12.336 83.176,15.344 86.312,17.648 L86.184,17.776 C81.256,17.2 77.672,20.464 77.672,25.52 C77.672,36.4 94.184,39.216 94.184,47.152 C94.184,50.032 91.496,51.76 88.808,51.76 C87.272,51.76 84.072,51.056 84.072,49.52 C84.072,48.944 86.248,47.728 86.248,46.256 C86.248,44.4 84.712,43.248 82.984,43.248 C81.064,43.248 79.72,45.104 79.72,46.896 C79.72,51.056 85.032,53.104 88.488,53.104 C93.544,53.104 97.768,50.224 97.768,45.104 C97.768,42.352 96.232,39.024 91.88,35.76 L92.008,35.632 C96.872,36.208 100.328,32.688 100.328,27.76 C100.328,23.088 96.424,19.632 93.096,16.816 L87.976,12.592 Z" id="ยง" fill="#797979" sketch:type="MSShapeGroup"></path>
            </g>
        </g>
    </g>
</svg>