<?xml version="1.0" encoding="UTF-8" standalone="no"?>
<svg width="176px" height="19px" viewBox="0 0 176 19" version="1.1" xmlns="http://www.w3.org/2000/svg" xmlns:xlink="http://www.w3.org/1999/xlink" xmlns:sketch="http://www.bohemiancoding.com/sketch/ns">
    <!-- Generator: Sketch 3.2.2 (9983) - http://www.bohemiancoding.com/sketch -->
    <title>aventyrsresor-heading-small</title>
    <desc>Created with Sketch.</desc>
    <defs></defs>
    <g id="Page-2" stroke="none" stroke-width="1" fill="none" fill-rule="evenodd" sketch:type="MSPage">
        <g id="Large" sketch:type="MSArtboardGroup" transform="translate(-742.000000, -824.000000)" fill="#D19485">
            <g id="ÄR" sketch:type="MSLayerGroup" transform="translate(527.000000, 514.000000)">
                <g id="HEADING" transform="translate(173.000000, 247.000000)" sketch:type="MSShapeGroup">
                    <path d="M42.812,75.658 C42.812,75.838 42.956,76 43.154,76 L50.354,76 C50.552,76 50.696,75.838 50.696,75.658 L50.696,74.668 C50.696,74.488 50.552,74.326 50.354,74.326 L44.666,74.326 L44.666,70.456 L49.472,70.456 C49.652,70.456 49.814,70.312 49.814,70.114 L49.814,69.106 C49.814,68.926 49.652,68.764 49.472,68.764 L44.666,68.764 L44.666,65.092 L50.354,65.092 C50.552,65.092 50.696,64.93 50.696,64.75 L50.696,63.742 C50.696,63.562 50.552,63.4 50.354,63.4 L43.154,63.4 C42.956,63.4 42.812,63.562 42.812,63.742 L42.812,75.658 Z M52.01,75.532 C51.848,75.766 51.92,76 52.226,76 L53.432,76 C53.576,76 53.666,75.928 53.72,75.856 L55.34,73.552 L55.358,73.552 L56.942,75.784 C57.032,75.91 57.176,76 57.32,76 L58.454,76 C58.742,76 58.832,75.766 58.67,75.532 L56.384,72.31 L58.652,69.268 C58.832,69.034 58.742,68.8 58.436,68.8 L57.248,68.8 C57.068,68.8 56.924,68.872 56.834,68.998 L55.358,71.068 L55.34,71.068 L53.9,68.998 C53.792,68.854 53.63,68.8 53.468,68.8 L52.298,68.8 C52.028,68.8 51.902,69.052 52.082,69.286 L54.35,72.328 L52.01,75.532 Z M60.866,74.038 C60.866,75.316 61.28,76.18 62.702,76.18 C63.566,76.18 64.628,75.748 64.808,75.64 C64.988,75.55 65.06,75.406 64.97,75.208 L64.646,74.416 C64.574,74.254 64.466,74.146 64.232,74.254 C64.016,74.362 63.512,74.578 63.134,74.578 C62.792,74.578 62.558,74.47 62.558,73.858 L62.558,70.294 L64.394,70.294 C64.592,70.294 64.736,70.132 64.736,69.952 L64.736,69.142 C64.736,68.944 64.592,68.8 64.394,68.8 L62.558,68.8 L62.558,66.784 C62.558,66.604 62.414,66.442 62.234,66.442 L61.208,66.46 C61.028,66.46 60.866,66.622 60.866,66.802 L60.866,68.8 L60.11,68.8 C59.912,68.8 59.768,68.944 59.768,69.142 L59.768,69.952 C59.768,70.132 59.912,70.294 60.11,70.294 L60.866,70.294 L60.866,74.038 Z M66.626,75.658 C66.626,75.838 66.788,76 66.968,76 L67.832,76 C68.12,76 68.318,75.964 68.318,75.658 L68.318,71.086 C68.39,70.96 68.894,70.204 69.938,70.204 C70.172,70.204 70.442,70.276 70.55,70.33 C70.712,70.402 70.892,70.366 70.982,70.168 L71.414,69.286 C71.612,68.8 70.784,68.62 70.1,68.62 C68.786,68.62 68.12,69.484 67.994,69.664 L67.796,69.052 C67.76,68.908 67.616,68.8 67.49,68.8 L66.968,68.8 C66.788,68.8 66.626,68.962 66.626,69.142 L66.626,75.658 Z M72.152,73.768 C72.152,75.262 73.124,76.18 74.474,76.18 C75.59,76.18 76.292,75.64 76.688,75.262 L76.868,75.748 C76.94,75.928 77.012,76 77.174,76 L77.678,76 C77.858,76 78.02,75.838 78.02,75.658 L78.02,71.824 C78.02,70.024 77.804,68.62 75.5,68.62 C74.168,68.62 73.142,68.98 73.016,69.034 C72.854,69.088 72.728,69.214 72.782,69.448 L72.926,70.114 C72.98,70.312 73.106,70.456 73.322,70.402 C73.7,70.294 74.51,70.078 75.338,70.078 C76.256,70.078 76.472,70.528 76.454,71.662 C76.454,71.662 75.788,71.446 75.032,71.446 C73.196,71.446 72.152,72.454 72.152,73.768 L72.152,73.768 Z M73.718,73.75 C73.718,73.012 74.312,72.562 75.176,72.562 C75.824,72.562 76.328,72.778 76.436,72.85 L76.436,74.002 C76.22,74.362 75.536,74.902 74.816,74.902 C74.15,74.902 73.718,74.398 73.718,73.75 L73.718,73.75 Z M79.748,72.382 C79.748,74.452 81.368,76.18 83.384,76.18 C85.4,76.18 87.02,74.452 87.02,72.382 C87.02,70.348 85.4,68.62 83.384,68.62 C81.368,68.62 79.748,70.348 79.748,72.382 L79.748,72.382 Z M81.35,72.382 C81.35,71.176 82.25,70.186 83.384,70.186 C84.518,70.186 85.418,71.176 85.418,72.382 C85.418,73.624 84.518,74.632 83.384,74.632 C82.25,74.632 81.35,73.624 81.35,72.382 L81.35,72.382 Z M88.82,75.658 C88.82,75.838 88.982,76 89.162,76 L90.026,76 C90.314,76 90.512,75.964 90.512,75.658 L90.512,71.086 C90.584,70.96 91.088,70.204 92.132,70.204 C92.366,70.204 92.636,70.276 92.744,70.33 C92.906,70.402 93.086,70.366 93.176,70.168 L93.608,69.286 C93.806,68.8 92.978,68.62 92.294,68.62 C90.98,68.62 90.314,69.484 90.188,69.664 L89.99,69.052 C89.954,68.908 89.81,68.8 89.684,68.8 L89.162,68.8 C88.982,68.8 88.82,68.962 88.82,69.142 L88.82,75.658 Z M94.292,72.4 C94.292,74.47 95.75,76.18 97.658,76.18 C99.08,76.18 99.944,75.172 99.944,75.172 L100.088,75.694 C100.142,75.874 100.25,76 100.412,76 L100.952,76 C101.132,76 101.294,75.838 101.294,75.658 L101.294,63.742 C101.294,63.562 101.132,63.4 100.952,63.4 L99.908,63.4 C99.728,63.4 99.566,63.562 99.566,63.742 L99.566,69.016 C99.404,68.962 98.756,68.62 97.838,68.62 C95.84,68.62 94.292,70.294 94.292,72.4 L94.292,72.4 Z M95.966,72.4 C95.966,71.176 96.812,70.186 98.018,70.186 C98.954,70.186 99.584,70.618 99.584,70.618 L99.584,73.552 C99.494,73.75 98.972,74.632 97.874,74.632 C96.722,74.632 95.966,73.606 95.966,72.4 L95.966,72.4 Z M104.462,65.866 C105.056,65.866 105.524,65.398 105.524,64.822 C105.524,64.228 105.056,63.76 104.462,63.76 C103.886,63.76 103.436,64.228 103.436,64.822 C103.436,65.398 103.886,65.866 104.462,65.866 L104.462,65.866 Z M103.634,75.658 C103.634,75.838 103.796,76 103.976,76 L105.002,76 C105.182,76 105.344,75.838 105.344,75.658 L105.344,69.142 C105.344,68.962 105.182,68.8 105.002,68.8 L103.976,68.8 C103.796,68.8 103.634,68.962 103.634,69.142 L103.634,75.658 Z M107.684,75.658 C107.684,75.838 107.846,76 108.026,76 L108.962,76 C109.268,76 109.376,75.892 109.376,75.658 L109.376,71.266 C109.466,71.014 110.24,70.186 111.374,70.186 C112.31,70.186 112.868,70.816 112.868,71.968 L112.868,75.658 C112.868,75.838 113.012,76 113.21,76 L114.236,76 C114.416,76 114.578,75.838 114.578,75.658 L114.578,72.04 C114.578,70.168 113.768,68.62 111.572,68.62 C110.132,68.62 109.178,69.484 109.052,69.628 L108.836,69.016 C108.8,68.89 108.692,68.8 108.548,68.8 L108.026,68.8 C107.846,68.8 107.684,68.962 107.684,69.142 L107.684,75.658 Z M116.306,73.768 C116.306,75.262 117.278,76.18 118.628,76.18 C119.744,76.18 120.446,75.64 120.842,75.262 L121.022,75.748 C121.094,75.928 121.166,76 121.328,76 L121.832,76 C122.012,76 122.174,75.838 122.174,75.658 L122.174,71.824 C122.174,70.024 121.958,68.62 119.654,68.62 C118.322,68.62 117.296,68.98 117.17,69.034 C117.008,69.088 116.882,69.214 116.936,69.448 L117.08,70.114 C117.134,70.312 117.26,70.456 117.476,70.402 C117.854,70.294 118.664,70.078 119.492,70.078 C120.41,70.078 120.626,70.528 120.608,71.662 C120.608,71.662 119.942,71.446 119.186,71.446 C117.35,71.446 116.306,72.454 116.306,73.768 L116.306,73.768 Z M117.872,73.75 C117.872,73.012 118.466,72.562 119.33,72.562 C119.978,72.562 120.482,72.778 120.59,72.85 L120.59,74.002 C120.374,74.362 119.69,74.902 118.97,74.902 C118.304,74.902 117.872,74.398 117.872,73.75 L117.872,73.75 Z M124.442,75.658 C124.442,75.838 124.604,76 124.784,76 L125.648,76 C125.936,76 126.134,75.964 126.134,75.658 L126.134,71.086 C126.206,70.96 126.71,70.204 127.754,70.204 C127.988,70.204 128.258,70.276 128.366,70.33 C128.528,70.402 128.708,70.366 128.798,70.168 L129.23,69.286 C129.428,68.8 128.6,68.62 127.916,68.62 C126.602,68.62 125.936,69.484 125.81,69.664 L125.612,69.052 C125.576,68.908 125.432,68.8 125.306,68.8 L124.784,68.8 C124.604,68.8 124.442,68.962 124.442,69.142 L124.442,75.658 Z M132.884,75.748 L130.472,80.914 C130.346,81.166 130.508,81.4 130.778,81.4 L131.858,81.4 C132.002,81.4 132.11,81.292 132.164,81.184 L137.672,69.268 C137.798,69.034 137.654,68.8 137.366,68.8 L136.34,68.8 C136.178,68.8 136.034,68.836 135.962,68.998 L133.802,73.786 L133.784,73.786 L131.552,68.998 C131.498,68.89 131.354,68.8 131.246,68.8 L130.058,68.8 C129.788,68.8 129.644,69.034 129.752,69.268 L132.884,75.748 Z M142.496,72.4 C142.496,74.47 143.936,76.18 146.114,76.18 C147.32,76.18 148.256,75.73 148.778,75.28 C148.994,75.1 148.94,74.956 148.814,74.812 L148.31,74.128 C148.166,73.948 148.04,74.02 147.824,74.146 C147.464,74.38 146.87,74.668 146.222,74.668 C145.052,74.668 144.206,73.714 144.152,72.742 L149.048,72.742 C149.21,72.742 149.354,72.616 149.372,72.436 C149.39,72.31 149.408,72.076 149.408,71.95 C149.408,70.024 147.968,68.62 146.096,68.62 C143.936,68.62 142.496,70.366 142.496,72.4 L142.496,72.4 Z M144.242,71.608 C144.35,70.708 145.106,70.006 146.078,70.006 C146.96,70.006 147.68,70.744 147.734,71.608 L144.242,71.608 Z M150.488,75.532 C150.326,75.766 150.398,76 150.704,76 L151.91,76 C152.054,76 152.144,75.928 152.198,75.856 L153.818,73.552 L153.836,73.552 L155.42,75.784 C155.51,75.91 155.654,76 155.798,76 L156.932,76 C157.22,76 157.31,75.766 157.148,75.532 L154.862,72.31 L157.13,69.268 C157.31,69.034 157.22,68.8 156.914,68.8 L155.726,68.8 C155.546,68.8 155.402,68.872 155.312,68.998 L153.836,71.068 L153.818,71.068 L152.378,68.998 C152.27,68.854 152.108,68.8 151.946,68.8 L150.776,68.8 C150.506,68.8 150.38,69.052 150.56,69.286 L152.828,72.328 L150.488,75.532 Z M160.604,75.694 C160.73,75.766 161.432,76.18 162.368,76.18 C164.33,76.18 165.878,74.524 165.878,72.418 C165.878,70.348 164.42,68.62 162.44,68.62 C161.108,68.62 160.37,69.376 160.244,69.502 L160.064,69.034 C159.992,68.872 159.902,68.8 159.758,68.8 L159.218,68.8 C159.038,68.8 158.876,68.962 158.876,69.142 L158.876,81.058 C158.876,81.238 159.038,81.4 159.218,81.4 L160.226,81.4 C160.478,81.4 160.604,81.256 160.604,81.058 L160.604,75.694 Z M160.568,74.11 L160.568,71.23 C160.64,71.014 161.18,70.186 162.224,70.186 C163.448,70.186 164.204,71.212 164.204,72.418 C164.204,73.642 163.34,74.632 162.152,74.632 C161.198,74.632 160.568,74.11 160.568,74.11 L160.568,74.11 Z M167.174,72.4 C167.174,74.47 168.614,76.18 170.792,76.18 C171.998,76.18 172.934,75.73 173.456,75.28 C173.672,75.1 173.618,74.956 173.492,74.812 L172.988,74.128 C172.844,73.948 172.718,74.02 172.502,74.146 C172.142,74.38 171.548,74.668 170.9,74.668 C169.73,74.668 168.884,73.714 168.83,72.742 L173.726,72.742 C173.888,72.742 174.032,72.616 174.05,72.436 C174.068,72.31 174.086,72.076 174.086,71.95 C174.086,70.024 172.646,68.62 170.774,68.62 C168.614,68.62 167.174,70.366 167.174,72.4 L167.174,72.4 Z M168.92,71.608 C169.028,70.708 169.784,70.006 170.756,70.006 C171.638,70.006 172.358,70.744 172.412,71.608 L168.92,71.608 Z M175.814,75.658 C175.814,75.838 175.976,76 176.156,76 L177.02,76 C177.308,76 177.506,75.964 177.506,75.658 L177.506,71.086 C177.578,70.96 178.082,70.204 179.126,70.204 C179.36,70.204 179.63,70.276 179.738,70.33 C179.9,70.402 180.08,70.366 180.17,70.168 L180.602,69.286 C180.8,68.8 179.972,68.62 179.288,68.62 C177.974,68.62 177.308,69.484 177.182,69.664 L176.984,69.052 C176.948,68.908 176.804,68.8 176.678,68.8 L176.156,68.8 C175.976,68.8 175.814,68.962 175.814,69.142 L175.814,75.658 Z M182.69,65.866 C183.284,65.866 183.752,65.398 183.752,64.822 C183.752,64.228 183.284,63.76 182.69,63.76 C182.114,63.76 181.664,64.228 181.664,64.822 C181.664,65.398 182.114,65.866 182.69,65.866 L182.69,65.866 Z M181.862,75.658 C181.862,75.838 182.024,76 182.204,76 L183.23,76 C183.41,76 183.572,75.838 183.572,75.658 L183.572,69.142 C183.572,68.962 183.41,68.8 183.23,68.8 L182.204,68.8 C182.024,68.8 181.862,68.962 181.862,69.142 L181.862,75.658 Z M185.39,72.4 C185.39,74.47 186.83,76.18 189.008,76.18 C190.214,76.18 191.15,75.73 191.672,75.28 C191.888,75.1 191.834,74.956 191.708,74.812 L191.204,74.128 C191.06,73.948 190.934,74.02 190.718,74.146 C190.358,74.38 189.764,74.668 189.116,74.668 C187.946,74.668 187.1,73.714 187.046,72.742 L191.942,72.742 C192.104,72.742 192.248,72.616 192.266,72.436 C192.284,72.31 192.302,72.076 192.302,71.95 C192.302,70.024 190.862,68.62 188.99,68.62 C186.83,68.62 185.39,70.366 185.39,72.4 L185.39,72.4 Z M187.136,71.608 C187.244,70.708 188,70.006 188.972,70.006 C189.854,70.006 190.574,70.744 190.628,71.608 L187.136,71.608 Z M194.03,75.658 C194.03,75.838 194.192,76 194.372,76 L195.308,76 C195.614,76 195.722,75.892 195.722,75.658 L195.722,71.266 C195.812,71.014 196.586,70.186 197.72,70.186 C198.656,70.186 199.214,70.816 199.214,71.968 L199.214,75.658 C199.214,75.838 199.358,76 199.556,76 L200.582,76 C200.762,76 200.924,75.838 200.924,75.658 L200.924,72.04 C200.924,70.168 200.114,68.62 197.918,68.62 C196.478,68.62 195.524,69.484 195.398,69.628 L195.182,69.016 C195.146,68.89 195.038,68.8 194.894,68.8 L194.372,68.8 C194.192,68.8 194.03,68.962 194.03,69.142 L194.03,75.658 Z M202.634,72.418 C202.634,74.578 204.38,76.18 206.396,76.18 C207.638,76.18 208.61,75.586 209.186,74.668 C209.312,74.488 209.24,74.308 209.06,74.164 L208.574,73.768 C208.412,73.642 208.25,73.642 208.088,73.804 C207.71,74.164 207.332,74.632 206.414,74.632 C205.244,74.632 204.344,73.642 204.344,72.4 C204.344,71.176 205.262,70.186 206.432,70.186 C207.026,70.186 207.548,70.51 207.872,70.87 C208.016,70.996 208.142,71.14 208.358,70.942 L208.952,70.402 C209.114,70.276 209.15,70.06 209.024,69.898 C208.358,69.07 207.512,68.62 206.414,68.62 C204.416,68.62 202.634,70.294 202.634,72.418 L202.634,72.418 Z M210.464,72.4 C210.464,74.47 211.904,76.18 214.082,76.18 C215.288,76.18 216.224,75.73 216.746,75.28 C216.962,75.1 216.908,74.956 216.782,74.812 L216.278,74.128 C216.134,73.948 216.008,74.02 215.792,74.146 C215.432,74.38 214.838,74.668 214.19,74.668 C213.02,74.668 212.174,73.714 212.12,72.742 L217.016,72.742 C217.178,72.742 217.322,72.616 217.34,72.436 C217.358,72.31 217.376,72.076 217.376,71.95 C217.376,70.024 215.936,68.62 214.064,68.62 C211.904,68.62 210.464,70.366 210.464,72.4 L210.464,72.4 Z M212.21,71.608 C212.318,70.708 213.074,70.006 214.046,70.006 C214.928,70.006 215.648,70.744 215.702,71.608 L212.21,71.608 Z" id="Extraordinary-experi"></path>
                </g>
            </g>
        </g>
    </g>
</svg>