<?xml version="1.0" encoding="UTF-8" standalone="no"?>
<svg width="230px" height="50px" viewBox="0 0 230 50" version="1.1" xmlns="http://www.w3.org/2000/svg" xmlns:xlink="http://www.w3.org/1999/xlink" xmlns:sketch="http://www.bohemiancoding.com/sketch/ns">
    <!-- Generator: Sketch 3.2.2 (9983) - http://www.bohemiancoding.com/sketch -->
    <title>aventyrsresor-heading-large</title>
    <desc>Created with Sketch.</desc>
    <defs></defs>
    <g id="Page-2" stroke="none" stroke-width="1" fill="none" fill-rule="evenodd" sketch:type="MSPage">
        <g id="Large" sketch:type="MSArtboardGroup" transform="translate(-717.000000, -768.000000)" fill="#8A1D03">
            <g id="ÄR" sketch:type="MSLayerGroup" transform="translate(527.000000, 514.000000)">
                <g id="HEADING" transform="translate(173.000000, 247.000000)" sketch:type="MSShapeGroup">
                    <path d="M18.117,44 L19.293,44 C19.587,44 19.797,43.79 19.881,43.622 L23.241,35.894 L39.285,35.894 L42.687,43.622 C42.771,43.79 42.981,44 43.275,44 L44.367,44 C44.829,44 44.829,43.748 44.745,43.496 L31.935,14.264 C31.809,14.012 31.599,13.97 31.389,13.97 L31.263,13.97 C31.053,13.97 30.843,14.096 30.759,14.264 L17.823,43.496 C17.697,43.832 17.823,44 18.117,44 L18.117,44 Z M23.997,34.256 L31.305,17.33 L31.389,17.33 L38.571,34.256 L23.997,34.256 Z M35.841,10.358 C36.681,10.358 37.311,9.728 37.311,8.972 C37.311,8.132 36.681,7.502 35.841,7.502 C35.043,7.502 34.413,8.132 34.413,8.972 C34.413,9.728 35.043,10.358 35.841,10.358 L35.841,10.358 Z M27.063,10.358 C27.903,10.358 28.533,9.728 28.533,8.972 C28.533,8.132 27.903,7.502 27.063,7.502 C26.265,7.502 25.635,8.132 25.635,8.972 C25.635,9.728 26.265,10.358 27.063,10.358 L27.063,10.358 Z M52.263,44.042 C52.389,44.336 52.515,44.42 52.767,44.42 L52.935,44.42 C53.145,44.42 53.313,44.294 53.439,44.042 L60.747,27.83 C60.915,27.494 60.873,27.2 60.495,27.2 L59.571,27.2 C59.361,27.2 59.151,27.284 59.025,27.578 L52.893,41.438 L52.851,41.438 L46.761,27.578 C46.635,27.284 46.425,27.2 46.215,27.2 L45.291,27.2 C44.913,27.2 44.871,27.494 45.039,27.83 L52.263,44.042 Z M63.435,35.558 C63.435,40.472 66.585,44.42 71.709,44.42 C74.313,44.42 76.959,43.286 77.799,42.446 C78.051,42.194 78.093,41.942 77.967,41.774 L77.547,41.186 C77.337,40.892 77.169,40.934 76.791,41.186 C75.783,41.858 74.061,42.74 71.835,42.74 C68.055,42.74 65.451,39.716 65.283,36.104 L78.681,36.104 C79.311,36.104 79.311,35.138 79.311,34.466 C79.311,30.014 76.119,26.78 71.709,26.78 C66.585,26.78 63.435,30.77 63.435,35.558 L63.435,35.558 Z M65.325,34.592 C65.535,31.148 68.013,28.46 71.709,28.46 C75.489,28.46 77.463,31.316 77.463,34.592 L65.325,34.592 Z M84.267,43.454 C84.267,43.748 84.435,44 84.729,44 L85.527,44 C85.905,44 86.073,43.79 86.073,43.454 L86.073,31.484 C86.241,31.274 88.635,28.586 92.079,28.586 C95.271,28.586 97.077,30.602 97.077,34.466 L97.077,43.454 C97.077,43.748 97.329,44 97.623,44 L98.379,44 C98.673,44 98.925,43.748 98.925,43.454 L98.925,34.466 C98.925,29.762 96.867,26.78 92.163,26.78 C88.803,26.78 86.493,28.838 85.947,29.426 L85.779,27.62 C85.737,27.368 85.569,27.2 85.275,27.2 L84.855,27.2 C84.519,27.2 84.267,27.452 84.267,27.746 L84.267,43.454 Z M105.771,39.674 C105.771,42.362 106.065,44.42 109.551,44.42 C111.945,44.42 113.793,43.37 114.423,42.866 C114.675,42.698 114.717,42.446 114.549,42.152 L114.255,41.648 C114.129,41.438 113.961,41.27 113.583,41.48 C113.037,41.816 111.231,42.614 109.761,42.614 C107.787,42.614 107.577,41.522 107.577,39.548 L107.577,28.838 L113.415,28.838 C113.751,28.838 113.961,28.628 113.961,28.292 L113.961,27.746 C113.961,27.452 113.751,27.2 113.415,27.2 L107.577,27.2 L107.577,22.58 C107.577,22.286 107.325,22.034 107.031,22.034 L106.317,22.076 C106.023,22.076 105.771,22.286 105.771,22.622 L105.771,27.2 L103.797,27.2 C103.503,27.2 103.293,27.326 103.293,27.62 L103.293,28.292 C103.293,28.628 103.377,28.838 103.797,28.838 L105.771,28.838 L105.771,39.674 Z M124.251,43.832 L118.581,56.012 C118.413,56.39 118.539,56.6 118.875,56.6 L119.841,56.6 C120.051,56.6 120.303,56.474 120.387,56.264 L133.575,27.872 C133.743,27.536 133.701,27.2 133.323,27.2 L132.399,27.2 C132.189,27.2 131.979,27.326 131.853,27.578 L125.301,41.774 L125.217,41.774 L118.035,27.578 C117.909,27.326 117.699,27.2 117.489,27.2 L116.565,27.2 C116.187,27.2 116.145,27.536 116.313,27.872 L124.251,43.832 Z M137.481,43.454 C137.481,43.748 137.649,44 137.943,44 L138.783,44 C139.161,44 139.329,43.79 139.329,43.454 L139.329,31.484 C139.455,31.232 141.051,28.586 144.327,28.586 C145.461,28.586 146.301,29.006 146.511,29.09 C146.805,29.216 147.057,29.174 147.183,28.88 L147.519,28.04 C147.645,27.704 147.435,27.41 147.057,27.284 C146.721,27.158 145.797,26.78 144.453,26.78 C141.303,26.78 139.623,28.796 139.203,29.384 L139.035,27.662 C138.993,27.368 138.783,27.2 138.531,27.2 L138.027,27.2 C137.733,27.2 137.481,27.452 137.481,27.746 L137.481,43.454 Z M150.291,42.53 C151.215,43.244 152.937,44.42 155.793,44.42 C159.153,44.42 161.757,42.278 161.757,39.758 C161.757,36.692 158.985,35.642 155.835,34.466 C153.357,33.584 151.845,32.786 151.845,31.106 C151.845,29.972 152.811,28.418 155.457,28.418 C157.263,28.418 158.943,29.342 159.321,29.594 C159.615,29.762 159.951,29.678 160.119,29.384 L160.371,28.922 C160.539,28.628 160.455,28.292 160.203,28.124 C159.363,27.578 157.683,26.78 155.457,26.78 C151.593,26.78 149.955,29.3 149.955,31.148 C149.955,33.752 152.139,35.054 155.121,36.104 C157.935,37.154 159.825,37.952 159.825,39.884 C159.825,41.522 158.187,42.866 155.793,42.866 C153.441,42.866 151.719,41.564 151.299,41.228 C151.005,40.976 150.669,41.06 150.543,41.27 L150.123,41.942 C149.997,42.152 150.123,42.404 150.291,42.53 L150.291,42.53 Z M166.629,43.454 C166.629,43.748 166.797,44 167.091,44 L167.931,44 C168.309,44 168.477,43.79 168.477,43.454 L168.477,31.484 C168.603,31.232 170.199,28.586 173.475,28.586 C174.609,28.586 175.449,29.006 175.659,29.09 C175.953,29.216 176.205,29.174 176.331,28.88 L176.667,28.04 C176.793,27.704 176.583,27.41 176.205,27.284 C175.869,27.158 174.945,26.78 173.601,26.78 C170.451,26.78 168.771,28.796 168.351,29.384 L168.183,27.662 C168.141,27.368 167.931,27.2 167.679,27.2 L167.175,27.2 C166.881,27.2 166.629,27.452 166.629,27.746 L166.629,43.454 Z M178.893,35.558 C178.893,40.472 182.043,44.42 187.167,44.42 C189.771,44.42 192.417,43.286 193.257,42.446 C193.509,42.194 193.551,41.942 193.425,41.774 L193.005,41.186 C192.795,40.892 192.627,40.934 192.249,41.186 C191.241,41.858 189.519,42.74 187.293,42.74 C183.513,42.74 180.909,39.716 180.741,36.104 L194.139,36.104 C194.769,36.104 194.769,35.138 194.769,34.466 C194.769,30.014 191.577,26.78 187.167,26.78 C182.043,26.78 178.893,30.77 178.893,35.558 L178.893,35.558 Z M180.783,34.592 C180.993,31.148 183.471,28.46 187.167,28.46 C190.947,28.46 192.921,31.316 192.921,34.592 L180.783,34.592 Z M198.927,42.53 C199.851,43.244 201.573,44.42 204.429,44.42 C207.789,44.42 210.393,42.278 210.393,39.758 C210.393,36.692 207.621,35.642 204.471,34.466 C201.993,33.584 200.481,32.786 200.481,31.106 C200.481,29.972 201.447,28.418 204.093,28.418 C205.899,28.418 207.579,29.342 207.957,29.594 C208.251,29.762 208.587,29.678 208.755,29.384 L209.007,28.922 C209.175,28.628 209.091,28.292 208.839,28.124 C207.999,27.578 206.319,26.78 204.093,26.78 C200.229,26.78 198.591,29.3 198.591,31.148 C198.591,33.752 200.775,35.054 203.757,36.104 C206.571,37.154 208.461,37.952 208.461,39.884 C208.461,41.522 206.823,42.866 204.429,42.866 C202.077,42.866 200.355,41.564 199.935,41.228 C199.641,40.976 199.305,41.06 199.179,41.27 L198.759,41.942 C198.633,42.152 198.759,42.404 198.927,42.53 L198.927,42.53 Z M214.005,35.558 C214.005,40.472 217.701,44.42 222.447,44.42 C227.151,44.42 230.889,40.472 230.889,35.558 C230.889,30.77 227.151,26.78 222.447,26.78 C217.701,26.78 214.005,30.77 214.005,35.558 L214.005,35.558 Z M215.811,35.558 C215.811,31.694 218.709,28.544 222.447,28.544 C226.143,28.544 229.041,31.694 229.041,35.558 C229.041,39.548 226.143,42.698 222.447,42.698 C218.709,42.698 215.811,39.548 215.811,35.558 L215.811,35.558 Z M236.013,43.454 C236.013,43.748 236.181,44 236.475,44 L237.315,44 C237.693,44 237.861,43.79 237.861,43.454 L237.861,31.484 C237.987,31.232 239.583,28.586 242.859,28.586 C243.993,28.586 244.833,29.006 245.043,29.09 C245.337,29.216 245.589,29.174 245.715,28.88 L246.051,28.04 C246.177,27.704 245.967,27.41 245.589,27.284 C245.253,27.158 244.329,26.78 242.985,26.78 C239.835,26.78 238.155,28.796 237.735,29.384 L237.567,27.662 C237.525,27.368 237.315,27.2 237.063,27.2 L236.559,27.2 C236.265,27.2 236.013,27.452 236.013,27.746 L236.013,43.454 Z" id="Äventyrsresor"></path>
                </g>
            </g>
        </g>
    </g>
</svg>