<?xml version="1.0" encoding="utf-8"?>
<!-- Generator: Adobe Illustrator 17.0.0, SVG Export Plug-In . SVG Version: 6.00 Build 0)  -->
<!DOCTYPE svg PUBLIC "-//W3C//DTD SVG 1.1//EN" "http://www.w3.org/Graphics/SVG/1.1/DTD/svg11.dtd">
<svg version="1.1" id="Layer_1" xmlns:sketch="http://www.bohemiancoding.com/sketch/ns"
	 xmlns="http://www.w3.org/2000/svg" xmlns:xlink="http://www.w3.org/1999/xlink" x="0px" y="0px" width="31.3px" height="31.3px"
	 viewBox="-0.65 -0.65 31.3 31.3" enable-background="new -0.65 -0.65 31.3 31.3" xml:space="preserve">
<title>btn-close</title>
<desc>Created with Sketch.</desc>
<circle id="Oval-1" sketch:type="MSShapeGroup" fill="#97A1F7" fill-opacity="0.1" stroke="#97A1F7" stroke-width="1.3" stroke-opacity="0.75" cx="15" cy="15" r="15">
</circle>
<path id="_x2B_" fill="#97A1F7" fill-opacity="0.75" d="M14.137,15.089l-4.042-4.042c-0.165-0.165-0.165-0.446,0-0.611l0.352-0.352
	c0.165-0.165,0.446-0.165,0.611,0l4.042,4.042l4.042-4.042c0.165-0.165,0.446-0.165,0.611,0l0.352,0.352
	c0.165,0.165,0.165,0.446,0,0.611l-4.042,4.042l4.042,4.042c0.165,0.165,0.165,0.446,0,0.611l-0.352,0.352
	c-0.165,0.165-0.446,0.165-0.611,0L15.1,16.052l-4.043,4.043c-0.165,0.165-0.446,0.165-0.611,0l-0.352-0.352
	c-0.165-0.165-0.165-0.446,0-0.611L14.137,15.089z"/>
</svg>
