<?xml version="1.0" encoding="UTF-8" standalone="no"?>
<svg width="252px" height="55px" viewBox="0 0 252 55" version="1.1" xmlns="http://www.w3.org/2000/svg" xmlns:xlink="http://www.w3.org/1999/xlink" xmlns:sketch="http://www.bohemiancoding.com/sketch/ns">
    <!-- Generator: Sketch 3.2.2 (9983) - http://www.bohemiancoding.com/sketch -->
    <title>danskebank-heading-large</title>
    <desc>Created with Sketch.</desc>
    <defs>
        <filter x="-50%" y="-50%" width="200%" height="200%" filterUnits="objectBoundingBox" id="filter-1">
            <feOffset dx="0" dy="1" in="SourceAlpha" result="shadowOffsetOuter1"></feOffset>
            <feGaussianBlur stdDeviation="2" in="shadowOffsetOuter1" result="shadowBlurOuter1"></feGaussianBlur>
            <feColorMatrix values="0 0 0 0 0   0 0 0 0 0   0 0 0 0 0  0 0 0 0.35 0" in="shadowBlurOuter1" type="matrix" result="shadowMatrixOuter1"></feColorMatrix>
            <feMerge>
                <feMergeNode in="shadowMatrixOuter1"></feMergeNode>
                <feMergeNode in="SourceGraphic"></feMergeNode>
            </feMerge>
        </filter>
        <filter x="-50%" y="-50%" width="200%" height="200%" filterUnits="objectBoundingBox" id="filter-2">
            <feOffset dx="0" dy="1" in="SourceAlpha" result="shadowOffsetOuter1"></feOffset>
            <feGaussianBlur stdDeviation="2" in="shadowOffsetOuter1" result="shadowBlurOuter1"></feGaussianBlur>
            <feColorMatrix values="0 0 0 0 0   0 0 0 0 0   0 0 0 0 0  0 0 0 0.35 0" in="shadowBlurOuter1" type="matrix" result="shadowMatrixOuter1"></feColorMatrix>
            <feMerge>
                <feMergeNode in="shadowMatrixOuter1"></feMergeNode>
                <feMergeNode in="SourceGraphic"></feMergeNode>
            </feMerge>
        </filter>
    </defs>
    <g id="Page-2" stroke="none" stroke-width="1" fill="none" fill-rule="evenodd" sketch:type="MSPage">
        <g id="Large" sketch:type="MSArtboardGroup" transform="translate(-790.000000, -121.000000)" fill="#FFFFFF">
            <g id="TOP-MIDDLE" sketch:type="MSLayerGroup" transform="translate(483.000000, 0.000000)">
                <g id="HEADING" transform="translate(290.000000, 109.000000)" sketch:type="MSShapeGroup">
                    <path d="M35.0524443,62 L35.0524443,52.69 L33.8624443,52.69 L33.8624443,62 L35.0524443,62 Z M43.3373332,62 L43.3373332,58.262 C43.3373332,57.506 43.3093332,57.212 43.2533332,56.876 C43.1553332,56.386 42.9173332,55.994 42.4833332,55.77 C42.0213332,55.532 41.4193332,55.392 40.6353332,55.392 C39.9493332,55.392 39.4313332,55.462 39.0253332,55.602 C38.7453332,55.7 38.5493332,55.812 38.2553332,56.008 L38.1713332,55.49 L37.1773332,55.49 L37.1773332,62 L38.2833332,62 L38.2833332,56.582 C38.6473332,56.47 38.8293332,56.428 39.0813332,56.386 C39.4873332,56.316 39.9353332,56.274 40.3553332,56.274 C41.1113332,56.274 41.6293332,56.386 41.8953332,56.624 C42.1893332,56.876 42.2313332,57.198 42.2313332,58.444 L42.2313332,62 L43.3373332,62 Z M49.4802221,55.49 L46.9602221,55.49 L46.9602221,53.908 L45.8542221,53.908 L45.8542221,55.49 L44.8742221,55.49 L44.8742221,56.274 L45.8542221,56.274 L45.8542221,58.99 L45.8542221,60.012 C45.8542221,60.712 45.8822221,61.356 46.5402221,61.762 C46.9602221,62.028 47.6882221,62.07 48.2902221,62.07 C48.7942221,62.07 49.2982221,62.014 49.2982221,62.014 L49.2982221,61.244 C48.5562221,61.3 47.5482221,61.342 47.2122221,61.006 C46.9042221,60.698 46.9602221,60.026 46.9602221,59.438 L46.9602221,56.274 L49.2282221,56.274 L49.4802221,55.49 Z M56.841111,60.824 C56.855111,60.6 56.827111,60.32 56.813111,60.068 L55.693111,60.068 C55.623111,60.516 55.637111,60.782 55.455111,60.964 C55.287111,61.132 54.727111,61.272 53.663111,61.272 C52.795111,61.272 52.235111,61.104 51.955111,60.782 C51.717111,60.516 51.605111,59.998 51.605111,59.214 L51.605111,58.962 L56.813111,58.962 C56.827111,58.696 56.827111,58.612 56.827111,58.36 C56.827111,57.268 56.687111,56.666 56.295111,56.218 C55.847111,55.686 54.965111,55.42 53.733111,55.42 C52.151111,55.42 51.199111,55.826 50.807111,56.708 C50.569111,57.226 50.443111,57.954 50.443111,58.878 C50.443111,60.32 50.779111,61.202 51.479111,61.636 C51.941111,61.93 52.641111,62.084 53.691111,62.084 C54.419111,62.084 55.203111,62.056 56.001111,61.776 C56.561111,61.58 56.827111,61.244 56.841111,60.824 L56.841111,60.824 Z M55.763111,58.164 L51.633111,58.164 C51.675111,57.282 51.815111,56.862 52.137111,56.596 C52.445111,56.344 53.005111,56.218 53.789111,56.218 C54.881111,56.218 55.441111,56.498 55.637111,57.114 C55.721111,57.38 55.763111,57.618 55.763111,58.164 L55.763111,58.164 Z M63.5719999,56.484 C63.5999999,55.742 63.0259999,55.392 61.7939999,55.392 C60.8979999,55.392 60.2959999,55.588 59.6939999,56.022 L59.6099999,55.49 L58.6439999,55.49 L58.6439999,62 L59.7359999,62 L59.7359999,56.554 C60.2399999,56.372 61.0799999,56.246 61.7099999,56.246 C61.9899999,56.246 62.1719999,56.274 62.2419999,56.344 C62.2839999,56.386 62.3259999,56.456 62.3819999,56.764 L62.4659999,57.212 L63.5299999,57.212 C63.5579999,56.904 63.5719999,56.666 63.5719999,56.484 L63.5719999,56.484 Z M70.8768888,62 L70.8768888,58.332 C70.8768888,56.932 70.9048888,56.414 70.4148888,55.98 C69.8408888,55.462 68.3988888,55.434 67.6568888,55.434 C67.0968888,55.434 65.5848888,55.546 65.1088888,56.022 C64.9408888,56.19 64.8848888,56.386 64.8988888,56.638 C64.8988888,56.638 64.9128888,57.03 64.9268888,57.268 L66.0048888,57.268 C66.0888888,56.792 66.0888888,56.694 66.2148888,56.568 C66.6628888,56.12 69.0288888,56.19 69.4908888,56.498 C69.7848888,56.68 69.7708888,57.044 69.7708888,57.352 L69.7708888,58.08 L66.8868888,58.08 C66.1168888,58.08 65.2908888,58.108 64.8288888,58.822 C64.6328888,59.13 64.5348888,59.536 64.5348888,60.068 C64.5348888,61.58 65.3188888,62.098 67.4748888,62.098 C68.6788888,62.098 69.4068888,61.874 69.8268888,61.384 L69.9528888,62 L70.8768888,62 Z M69.7708888,59.718 C69.7708888,60.278 69.7288888,60.824 69.1408888,61.076 C68.8048888,61.216 68.3288888,61.272 67.5588888,61.272 C66.7888888,61.272 66.3128888,61.174 66.0188888,60.964 C65.8088888,60.81 65.7248888,60.572 65.7248888,60.11 C65.7248888,59.536 65.8508888,59.172 66.1308888,59.018 C66.3828888,58.878 66.7048888,58.85 67.6428888,58.85 L69.7708888,58.85 L69.7708888,59.718 Z M79.0917777,60.824 C79.0917777,60.6 79.0637777,60.32 79.0497777,60.068 L77.9157777,60.068 L77.8737777,60.572 C77.8597777,60.67 77.8177777,60.894 77.6637777,61.006 C77.4537777,61.16 76.9077777,61.286 76.0397777,61.286 C73.9957777,61.286 73.8137777,60.726 73.8137777,58.892 C73.8137777,57.674 73.9397777,57.03 74.3037777,56.666 C74.5837777,56.386 75.0877777,56.218 76.0537777,56.218 C76.9217777,56.218 77.4537777,56.344 77.6637777,56.498 C77.8177777,56.61 77.8597777,56.834 77.8737777,56.932 L77.9157777,57.436 L79.0497777,57.436 C79.0637777,57.184 79.0777777,56.904 79.0777777,56.68 C79.0777777,56.26 78.8117777,55.924 78.2517777,55.728 C77.4537777,55.448 76.7957777,55.42 75.9557777,55.42 C75.3537777,55.42 74.6257777,55.504 74.1217777,55.7 C73.4077777,55.98 72.6657777,56.33 72.6657777,58.612 C72.6657777,61.034 73.0017777,62.07 75.9557777,62.084 C76.7957777,62.084 77.4537777,62.056 78.2517777,61.776 C78.8117777,61.58 79.0917777,61.244 79.0917777,60.824 L79.0917777,60.824 Z M84.8286666,55.49 L82.3086666,55.49 L82.3086666,53.908 L81.2026666,53.908 L81.2026666,55.49 L80.2226666,55.49 L80.2226666,56.274 L81.2026666,56.274 L81.2026666,58.99 L81.2026666,60.012 C81.2026666,60.712 81.2306666,61.356 81.8886666,61.762 C82.3086666,62.028 83.0366666,62.07 83.6386666,62.07 C84.1426666,62.07 84.6466666,62.014 84.6466666,62.014 L84.6466666,61.244 C83.9046666,61.3 82.8966666,61.342 82.5606666,61.006 C82.2526666,60.698 82.3086666,60.026 82.3086666,59.438 L82.3086666,56.274 L84.5766666,56.274 L84.8286666,55.49 Z M87.8495555,53.796 L87.8495555,52.69 L86.7435555,52.69 L86.7435555,53.796 L87.8495555,53.796 Z M87.8495555,62 L87.8495555,55.49 L85.1895555,55.49 L85.1895555,56.274 L86.7435555,56.274 L86.7435555,62 L87.8495555,62 Z M95.9944444,55.49 L94.8604444,55.49 L92.8164444,61.258 L92.3544444,61.258 L90.2544444,55.49 L89.0784444,55.49 L91.5004444,62 L93.5584444,62 L95.9944444,55.49 Z M103.355333,60.824 C103.369333,60.6 103.341333,60.32 103.327333,60.068 L102.207333,60.068 C102.137333,60.516 102.151333,60.782 101.969333,60.964 C101.801333,61.132 101.241333,61.272 100.177333,61.272 C99.3093333,61.272 98.7493333,61.104 98.4693333,60.782 C98.2313333,60.516 98.1193333,59.998 98.1193333,59.214 L98.1193333,58.962 L103.327333,58.962 C103.341333,58.696 103.341333,58.612 103.341333,58.36 C103.341333,57.268 103.201333,56.666 102.809333,56.218 C102.361333,55.686 101.479333,55.42 100.247333,55.42 C98.6653333,55.42 97.7133333,55.826 97.3213333,56.708 C97.0833333,57.226 96.9573333,57.954 96.9573333,58.878 C96.9573333,60.32 97.2933333,61.202 97.9933333,61.636 C98.4553333,61.93 99.1553333,62.084 100.205333,62.084 C100.933333,62.084 101.717333,62.056 102.515333,61.776 C103.075333,61.58 103.341333,61.244 103.355333,60.824 L103.355333,60.824 Z M102.277333,58.164 L98.1473333,58.164 C98.1893333,57.282 98.3293333,56.862 98.6513333,56.596 C98.9593333,56.344 99.5193333,56.218 100.303333,56.218 C101.395333,56.218 101.955333,56.498 102.151333,57.114 C102.235333,57.38 102.277333,57.618 102.277333,58.164 L102.277333,58.164 Z M112.155111,55.49 L109.635111,55.49 L109.635111,53.908 L108.529111,53.908 L108.529111,55.49 L107.549111,55.49 L107.549111,56.274 L108.529111,56.274 L108.529111,58.99 L108.529111,60.012 C108.529111,60.712 108.557111,61.356 109.215111,61.762 C109.635111,62.028 110.363111,62.07 110.965111,62.07 C111.469111,62.07 111.973111,62.014 111.973111,62.014 L111.973111,61.244 C111.231111,61.3 110.223111,61.342 109.887111,61.006 C109.579111,60.698 109.635111,60.026 109.635111,59.438 L109.635111,56.274 L111.903111,56.274 L112.155111,55.49 Z M119.628,58.752 C119.628,56.134 119.11,55.406 116.38,55.406 C113.818,55.406 113.118,55.994 113.118,58.752 C113.118,61.412 113.734,62.084 116.38,62.084 C119.026,62.084 119.628,61.412 119.628,58.752 L119.628,58.752 Z M118.48,58.752 C118.48,60.922 118.27,61.286 116.38,61.286 C114.49,61.286 114.266,60.922 114.266,58.752 C114.266,56.484 114.574,56.204 116.38,56.204 C118.354,56.204 118.48,56.61 118.48,58.752 L118.48,58.752 Z M127.674889,58.752 C127.674889,56.134 127.156889,55.406 124.426889,55.406 C121.864889,55.406 121.164889,55.994 121.164889,58.752 C121.164889,61.412 121.780889,62.084 124.426889,62.084 C127.072889,62.084 127.674889,61.412 127.674889,58.752 L127.674889,58.752 Z M126.526889,58.752 C126.526889,60.922 126.316889,61.286 124.426889,61.286 C122.536889,61.286 122.312889,60.922 122.312889,58.752 C122.312889,56.484 122.620889,56.204 124.426889,56.204 C126.400889,56.204 126.526889,56.61 126.526889,58.752 L126.526889,58.752 Z M131.269778,62 L131.269778,52.69 L128.609778,52.69 L128.609778,53.474 L130.163778,53.474 L130.163778,62 L131.269778,62 Z M139.386667,60.096 C139.386667,59.144 139.148667,58.696 138.546667,58.458 C138.196667,58.318 137.790667,58.262 137.174667,58.248 C137.048667,58.248 136.754667,58.248 136.278667,58.234 C135.172667,58.206 134.724667,58.164 134.528667,58.024 C134.360667,57.912 134.262667,57.632 134.262667,57.296 C134.262667,56.806 134.402667,56.526 134.766667,56.386 C135.130667,56.232 135.564667,56.19 136.320667,56.19 C137.062667,56.19 137.608667,56.274 137.818667,56.428 C137.916667,56.512 137.972667,56.652 138.028667,57.002 L138.070667,57.24 L139.148667,57.24 C139.162667,57.016 139.162667,56.932 139.162667,56.792 C139.162667,56.274 139.064667,56.008 138.812667,55.84 C138.560667,55.686 138.210667,55.574 137.734667,55.504 C137.328667,55.448 136.642667,55.406 136.082667,55.406 C133.898667,55.406 133.142667,55.924 133.142667,57.366 C133.142667,58.234 133.506667,58.752 134.304667,58.948 C134.626667,59.032 134.934667,59.06 135.634667,59.102 C135.914667,59.116 136.152667,59.13 136.362667,59.13 C136.796667,59.144 137.076667,59.144 137.160667,59.158 C137.314667,59.172 137.454667,59.172 137.608667,59.2 C138.126667,59.298 138.238667,59.55 138.238667,60.096 C138.238667,60.572 138.112667,60.838 137.818667,60.992 C137.426667,61.188 136.866667,61.286 136.068667,61.286 C135.340667,61.286 134.626667,61.23 134.374667,60.978 C134.248667,60.852 134.234667,60.656 134.164667,60.012 L133.100667,60.012 C133.072667,60.306 133.072667,60.572 133.072667,60.866 C133.072667,61.37 133.366667,61.692 133.926667,61.846 C134.458667,62 135.158667,62.07 135.998667,62.07 C137.216667,62.07 138.126667,61.93 138.686667,61.608 C139.162667,61.328 139.386667,60.866 139.386667,60.096 L139.386667,60.096 Z M150.034444,62 L150.034444,58.332 C150.034444,56.932 150.062444,56.414 149.572444,55.98 C148.998444,55.462 147.556444,55.434 146.814444,55.434 C146.254444,55.434 144.742444,55.546 144.266444,56.022 C144.098444,56.19 144.042444,56.386 144.056444,56.638 C144.056444,56.638 144.070444,57.03 144.084444,57.268 L145.162444,57.268 C145.246444,56.792 145.246444,56.694 145.372444,56.568 C145.820444,56.12 148.186444,56.19 148.648444,56.498 C148.942444,56.68 148.928444,57.044 148.928444,57.352 L148.928444,58.08 L146.044444,58.08 C145.274444,58.08 144.448444,58.108 143.986444,58.822 C143.790444,59.13 143.692444,59.536 143.692444,60.068 C143.692444,61.58 144.476444,62.098 146.632444,62.098 C147.836444,62.098 148.564444,61.874 148.984444,61.384 L149.110444,62 L150.034444,62 Z M148.928444,59.718 C148.928444,60.278 148.886444,60.824 148.298444,61.076 C147.962444,61.216 147.486444,61.272 146.716444,61.272 C145.946444,61.272 145.470444,61.174 145.176444,60.964 C144.966444,60.81 144.882444,60.572 144.882444,60.11 C144.882444,59.536 145.008444,59.172 145.288444,59.018 C145.540444,58.878 145.862444,58.85 146.800444,58.85 L148.928444,58.85 L148.928444,59.718 Z M158.249333,62 L158.249333,58.262 C158.249333,57.506 158.221333,57.212 158.165333,56.876 C158.067333,56.386 157.829333,55.994 157.395333,55.77 C156.933333,55.532 156.331333,55.392 155.547333,55.392 C154.861333,55.392 154.343333,55.462 153.937333,55.602 C153.657333,55.7 153.461333,55.812 153.167333,56.008 L153.083333,55.49 L152.089333,55.49 L152.089333,62 L153.195333,62 L153.195333,56.582 C153.559333,56.47 153.741333,56.428 153.993333,56.386 C154.399333,56.316 154.847333,56.274 155.267333,56.274 C156.023333,56.274 156.541333,56.386 156.807333,56.624 C157.101333,56.876 157.143333,57.198 157.143333,58.444 L157.143333,62 L158.249333,62 Z M166.380222,62 L166.380222,52.69 L165.274222,52.69 L165.274222,55.826 C164.868222,55.644 164.560222,55.574 164.070222,55.504 C163.748222,55.462 163.468222,55.434 163.174222,55.434 C162.208222,55.434 161.312222,55.686 160.836222,56.106 C160.290222,56.596 160.038222,57.408 160.038222,58.738 C160.038222,59.872 160.234222,60.768 160.570222,61.23 C160.990222,61.804 161.844222,62.098 163.048222,62.098 C164.210222,62.098 164.924222,61.832 165.316222,61.3 L165.442222,62 L166.380222,62 Z M165.274222,56.47 L165.274222,59.634 C165.274222,59.956 165.274222,60.236 165.246222,60.404 C165.218222,60.642 165.106222,60.838 164.910222,60.95 C164.588222,61.132 163.902222,61.258 163.202222,61.258 C162.194222,61.258 161.662222,60.992 161.438222,60.418 C161.284222,60.026 161.242222,59.578 161.242222,58.64 C161.242222,58.066 161.270222,57.8 161.368222,57.464 C161.508222,57.002 161.802222,56.652 162.180222,56.498 C162.516222,56.372 162.908222,56.302 163.524222,56.302 C164.028222,56.302 164.686222,56.358 165.064222,56.428 C165.106222,56.442 165.176222,56.456 165.274222,56.47 L165.274222,56.47 Z M173.15,53.796 L173.15,52.69 L172.044,52.69 L172.044,53.796 L173.15,53.796 Z M173.15,62 L173.15,55.49 L170.49,55.49 L170.49,56.274 L172.044,56.274 L172.044,62 L173.15,62 Z M177.010889,62 L177.010889,52.69 L174.350889,52.69 L174.350889,53.474 L175.904889,53.474 L175.904889,62 L177.010889,62 Z M180.871778,62 L180.871778,52.69 L178.211778,52.69 L178.211778,53.474 L179.765778,53.474 L179.765778,62 L180.871778,62 Z M189.086667,61.622 L189.086667,55.49 L187.980667,55.49 L187.980667,61.048 C187.644667,61.118 187.532667,61.132 187.252667,61.174 C186.832667,61.23 186.328667,61.258 185.992667,61.258 C185.180667,61.258 184.704667,61.146 184.410667,60.894 C184.144667,60.656 184.060667,60.376 184.046667,59.788 C184.046667,59.508 184.032667,59.242 184.032667,58.99 L184.032667,55.49 L182.926667,55.49 L182.926667,59.2 C182.926667,59.522 182.954667,59.956 182.968667,60.166 C182.982667,60.32 183.010667,60.46 183.038667,60.6 C183.136667,61.034 183.374667,61.384 183.724667,61.622 C184.186667,61.93 184.830667,62.07 185.880667,62.07 C186.370667,62.07 186.804667,62.028 187.574667,61.916 C188.232667,61.818 188.498667,61.762 189.086667,61.622 L189.086667,61.622 Z M197.203556,60.096 C197.203556,59.144 196.965556,58.696 196.363556,58.458 C196.013556,58.318 195.607556,58.262 194.991556,58.248 C194.865556,58.248 194.571556,58.248 194.095556,58.234 C192.989556,58.206 192.541556,58.164 192.345556,58.024 C192.177556,57.912 192.079556,57.632 192.079556,57.296 C192.079556,56.806 192.219556,56.526 192.583556,56.386 C192.947556,56.232 193.381556,56.19 194.137556,56.19 C194.879556,56.19 195.425556,56.274 195.635556,56.428 C195.733556,56.512 195.789556,56.652 195.845556,57.002 L195.887556,57.24 L196.965556,57.24 C196.979556,57.016 196.979556,56.932 196.979556,56.792 C196.979556,56.274 196.881556,56.008 196.629556,55.84 C196.377556,55.686 196.027556,55.574 195.551556,55.504 C195.145556,55.448 194.459556,55.406 193.899556,55.406 C191.715556,55.406 190.959556,55.924 190.959556,57.366 C190.959556,58.234 191.323556,58.752 192.121556,58.948 C192.443556,59.032 192.751556,59.06 193.451556,59.102 C193.731556,59.116 193.969556,59.13 194.179556,59.13 C194.613556,59.144 194.893556,59.144 194.977556,59.158 C195.131556,59.172 195.271556,59.172 195.425556,59.2 C195.943556,59.298 196.055556,59.55 196.055556,60.096 C196.055556,60.572 195.929556,60.838 195.635556,60.992 C195.243556,61.188 194.683556,61.286 193.885556,61.286 C193.157556,61.286 192.443556,61.23 192.191556,60.978 C192.065556,60.852 192.051556,60.656 191.981556,60.012 L190.917556,60.012 C190.889556,60.306 190.889556,60.572 190.889556,60.866 C190.889556,61.37 191.183556,61.692 191.743556,61.846 C192.275556,62 192.975556,62.07 193.815556,62.07 C195.033556,62.07 195.943556,61.93 196.503556,61.608 C196.979556,61.328 197.203556,60.866 197.203556,60.096 L197.203556,60.096 Z M203.080445,55.49 L200.560445,55.49 L200.560445,53.908 L199.454445,53.908 L199.454445,55.49 L198.474445,55.49 L198.474445,56.274 L199.454445,56.274 L199.454445,58.99 L199.454445,60.012 C199.454445,60.712 199.482445,61.356 200.140445,61.762 C200.560445,62.028 201.288445,62.07 201.890445,62.07 C202.394445,62.07 202.898445,62.014 202.898445,62.014 L202.898445,61.244 C202.156445,61.3 201.148445,61.342 200.812445,61.006 C200.504445,60.698 200.560445,60.026 200.560445,59.438 L200.560445,56.274 L202.828445,56.274 L203.080445,55.49 Z M209.237333,56.484 C209.265333,55.742 208.691333,55.392 207.459333,55.392 C206.563333,55.392 205.961333,55.588 205.359333,56.022 L205.275333,55.49 L204.309333,55.49 L204.309333,62 L205.401333,62 L205.401333,56.554 C205.905333,56.372 206.745333,56.246 207.375333,56.246 C207.655333,56.246 207.837333,56.274 207.907333,56.344 C207.949333,56.386 207.991333,56.456 208.047333,56.764 L208.131333,57.212 L209.195333,57.212 C209.223333,56.904 209.237333,56.666 209.237333,56.484 L209.237333,56.484 Z M216.542222,62 L216.542222,58.332 C216.542222,56.932 216.570222,56.414 216.080222,55.98 C215.506222,55.462 214.064222,55.434 213.322222,55.434 C212.762222,55.434 211.250222,55.546 210.774222,56.022 C210.606222,56.19 210.550222,56.386 210.564222,56.638 C210.564222,56.638 210.578222,57.03 210.592222,57.268 L211.670222,57.268 C211.754222,56.792 211.754222,56.694 211.880222,56.568 C212.328222,56.12 214.694222,56.19 215.156222,56.498 C215.450222,56.68 215.436222,57.044 215.436222,57.352 L215.436222,58.08 L212.552222,58.08 C211.782222,58.08 210.956222,58.108 210.494222,58.822 C210.298222,59.13 210.200222,59.536 210.200222,60.068 C210.200222,61.58 210.984222,62.098 213.140222,62.098 C214.344222,62.098 215.072222,61.874 215.492222,61.384 L215.618222,62 L216.542222,62 Z M215.436222,59.718 C215.436222,60.278 215.394222,60.824 214.806222,61.076 C214.470222,61.216 213.994222,61.272 213.224222,61.272 C212.454222,61.272 211.978222,61.174 211.684222,60.964 C211.474222,60.81 211.390222,60.572 211.390222,60.11 C211.390222,59.536 211.516222,59.172 211.796222,59.018 C212.048222,58.878 212.370222,58.85 213.308222,58.85 L215.436222,58.85 L215.436222,59.718 Z M222.685111,55.49 L220.165111,55.49 L220.165111,53.908 L219.059111,53.908 L219.059111,55.49 L218.079111,55.49 L218.079111,56.274 L219.059111,56.274 L219.059111,58.99 L219.059111,60.012 C219.059111,60.712 219.087111,61.356 219.745111,61.762 C220.165111,62.028 220.893111,62.07 221.495111,62.07 C221.999111,62.07 222.503111,62.014 222.503111,62.014 L222.503111,61.244 C221.761111,61.3 220.753111,61.342 220.417111,61.006 C220.109111,60.698 220.165111,60.026 220.165111,59.438 L220.165111,56.274 L222.433111,56.274 L222.685111,55.49 Z M225.706,53.796 L225.706,52.69 L224.6,52.69 L224.6,53.796 L225.706,53.796 Z M225.706,62 L225.706,55.49 L223.046,55.49 L223.046,56.274 L224.6,56.274 L224.6,62 L225.706,62 Z M234.018889,58.752 C234.018889,56.134 233.500889,55.406 230.770889,55.406 C228.208889,55.406 227.508889,55.994 227.508889,58.752 C227.508889,61.412 228.124889,62.084 230.770889,62.084 C233.416889,62.084 234.018889,61.412 234.018889,58.752 L234.018889,58.752 Z M232.870889,58.752 C232.870889,60.922 232.660889,61.286 230.770889,61.286 C228.880889,61.286 228.656889,60.922 228.656889,58.752 C228.656889,56.484 228.964889,56.204 230.770889,56.204 C232.744889,56.204 232.870889,56.61 232.870889,58.752 L232.870889,58.752 Z M241.981778,62 L241.981778,58.262 C241.981778,57.506 241.953778,57.212 241.897778,56.876 C241.799778,56.386 241.561778,55.994 241.127778,55.77 C240.665778,55.532 240.063778,55.392 239.279778,55.392 C238.593778,55.392 238.075778,55.462 237.669778,55.602 C237.389778,55.7 237.193778,55.812 236.899778,56.008 L236.815778,55.49 L235.821778,55.49 L235.821778,62 L236.927778,62 L236.927778,56.582 C237.291778,56.47 237.473778,56.428 237.725778,56.386 C238.131778,56.316 238.579778,56.274 238.999778,56.274 C239.755778,56.274 240.273778,56.386 240.539778,56.624 C240.833778,56.876 240.875778,57.198 240.875778,58.444 L240.875778,62 L241.981778,62 Z M250.084667,60.096 C250.084667,59.144 249.846667,58.696 249.244667,58.458 C248.894667,58.318 248.488667,58.262 247.872667,58.248 C247.746667,58.248 247.452667,58.248 246.976667,58.234 C245.870667,58.206 245.422667,58.164 245.226667,58.024 C245.058667,57.912 244.960667,57.632 244.960667,57.296 C244.960667,56.806 245.100667,56.526 245.464667,56.386 C245.828667,56.232 246.262667,56.19 247.018667,56.19 C247.760667,56.19 248.306667,56.274 248.516667,56.428 C248.614667,56.512 248.670667,56.652 248.726667,57.002 L248.768667,57.24 L249.846667,57.24 C249.860667,57.016 249.860667,56.932 249.860667,56.792 C249.860667,56.274 249.762667,56.008 249.510667,55.84 C249.258667,55.686 248.908667,55.574 248.432667,55.504 C248.026667,55.448 247.340667,55.406 246.780667,55.406 C244.596667,55.406 243.840667,55.924 243.840667,57.366 C243.840667,58.234 244.204667,58.752 245.002667,58.948 C245.324667,59.032 245.632667,59.06 246.332667,59.102 C246.612667,59.116 246.850667,59.13 247.060667,59.13 C247.494667,59.144 247.774667,59.144 247.858667,59.158 C248.012667,59.172 248.152667,59.172 248.306667,59.2 C248.824667,59.298 248.936667,59.55 248.936667,60.096 C248.936667,60.572 248.810667,60.838 248.516667,60.992 C248.124667,61.188 247.564667,61.286 246.766667,61.286 C246.038667,61.286 245.324667,61.23 245.072667,60.978 C244.946667,60.852 244.932667,60.656 244.862667,60.012 L243.798667,60.012 C243.770667,60.306 243.770667,60.572 243.770667,60.866 C243.770667,61.37 244.064667,61.692 244.624667,61.846 C245.156667,62 245.856667,62.07 246.696667,62.07 C247.914667,62.07 248.824667,61.93 249.384667,61.608 C249.860667,61.328 250.084667,60.866 250.084667,60.096 L250.084667,60.096 Z" id="Interactive-tools-an" filter="url(#filter-1)"></path>
                    <path d="M47.857,31.072 L47.857,27.292 C47.857,15.532 39.835,15.07 34.291,15.07 L21.733,15.07 L21.733,43 L35.383,43 C46.093,43 47.857,36.406 47.857,31.072 L47.857,31.072 Z M44.287,31.24 C44.287,37.204 41.473,40.186 35.215,40.186 L25.303,40.186 L25.303,17.842 L34.879,17.842 C42.481,17.842 44.287,22.084 44.287,26.704 L44.287,31.24 Z M70.159,43 L70.159,31.996 C70.159,27.796 70.243,26.242 68.773,24.94 C67.051,23.386 62.725,23.302 60.499,23.302 C58.819,23.302 54.283,23.638 52.855,25.066 C52.351,25.57 52.183,26.158 52.225,26.914 C52.225,26.914 52.267,28.09 52.309,28.804 L55.543,28.804 C55.795,27.376 55.795,27.082 56.173,26.704 C57.517,25.36 64.615,25.57 66.001,26.494 C66.883,27.04 66.841,28.132 66.841,29.056 L66.841,31.24 L58.189,31.24 C55.879,31.24 53.401,31.324 52.015,33.466 C51.427,34.39 51.133,35.608 51.133,37.204 C51.133,41.74 53.485,43.294 59.953,43.294 C63.565,43.294 65.749,42.622 67.009,41.152 L67.387,43 L70.159,43 Z M66.841,36.154 C66.841,37.834 66.715,39.472 64.951,40.228 C63.943,40.648 62.515,40.816 60.205,40.816 C57.895,40.816 56.467,40.522 55.585,39.892 C54.955,39.43 54.703,38.716 54.703,37.33 C54.703,35.608 55.081,34.516 55.921,34.054 C56.677,33.634 57.643,33.55 60.457,33.55 L66.841,33.55 L66.841,36.154 Z M93.637,43 L93.637,31.786 C93.637,29.518 93.553,28.636 93.385,27.628 C93.091,26.158 92.377,24.982 91.075,24.31 C89.689,23.596 87.883,23.176 85.531,23.176 C83.473,23.176 81.919,23.386 80.701,23.806 C79.861,24.1 79.273,24.436 78.391,25.024 L78.139,23.47 L75.157,23.47 L75.157,43 L78.475,43 L78.475,26.746 C79.567,26.41 80.113,26.284 80.869,26.158 C82.087,25.948 83.431,25.822 84.691,25.822 C86.959,25.822 88.513,26.158 89.311,26.872 C90.193,27.628 90.319,28.594 90.319,32.332 L90.319,43 L93.637,43 Z M116.779,37.288 C116.779,34.432 116.065,33.088 114.259,32.374 C113.209,31.954 111.991,31.786 110.143,31.744 C109.765,31.744 108.883,31.744 107.455,31.702 C104.137,31.618 102.793,31.492 102.205,31.072 C101.701,30.736 101.407,29.896 101.407,28.888 C101.407,27.418 101.827,26.578 102.919,26.158 C104.011,25.696 105.313,25.57 107.581,25.57 C109.807,25.57 111.445,25.822 112.075,26.284 C112.369,26.536 112.537,26.956 112.705,28.006 L112.831,28.72 L116.065,28.72 C116.107,28.048 116.107,27.796 116.107,27.376 C116.107,25.822 115.813,25.024 115.057,24.52 C114.301,24.058 113.251,23.722 111.823,23.512 C110.605,23.344 108.547,23.218 106.867,23.218 C100.315,23.218 98.047,24.772 98.047,29.098 C98.047,31.702 99.139,33.256 101.533,33.844 C102.499,34.096 103.423,34.18 105.523,34.306 C106.363,34.348 107.077,34.39 107.707,34.39 C109.009,34.432 109.849,34.432 110.101,34.474 C110.563,34.516 110.983,34.516 111.445,34.6 C112.999,34.894 113.335,35.65 113.335,37.288 C113.335,38.716 112.957,39.514 112.075,39.976 C110.899,40.564 109.219,40.858 106.825,40.858 C104.641,40.858 102.499,40.69 101.743,39.934 C101.365,39.556 101.323,38.968 101.113,37.036 L97.921,37.036 C97.837,37.918 97.837,38.716 97.837,39.598 C97.837,41.11 98.719,42.076 100.399,42.538 C101.995,43 104.095,43.21 106.615,43.21 C110.269,43.21 112.999,42.79 114.679,41.824 C116.107,40.984 116.779,39.598 116.779,37.288 L116.779,37.288 Z M139.249,43 L128.665,32.122 L137.233,23.47 L133.453,23.47 L125.935,31.24 L124.297,31.24 L124.297,15.07 L120.979,15.07 L120.979,43 L124.297,43 L124.297,33.634 L125.935,33.634 L134.881,43 L139.249,43 Z M159.955,39.472 C159.997,38.8 159.913,37.96 159.871,37.204 L156.511,37.204 C156.301,38.548 156.343,39.346 155.797,39.892 C155.293,40.396 153.613,40.816 150.421,40.816 C147.817,40.816 146.137,40.312 145.297,39.346 C144.583,38.548 144.247,36.994 144.247,34.642 L144.247,33.886 L159.871,33.886 C159.913,33.088 159.913,32.836 159.913,32.08 C159.913,28.804 159.493,26.998 158.317,25.654 C156.973,24.058 154.327,23.26 150.631,23.26 C145.885,23.26 143.029,24.478 141.853,27.124 C141.139,28.678 140.761,30.862 140.761,33.634 C140.761,37.96 141.769,40.606 143.869,41.908 C145.255,42.79 147.355,43.252 150.505,43.252 C152.689,43.252 155.041,43.168 157.435,42.328 C159.115,41.74 159.913,40.732 159.955,39.472 L159.955,39.472 Z M156.721,31.492 L144.331,31.492 C144.457,28.846 144.877,27.586 145.843,26.788 C146.767,26.032 148.447,25.654 150.799,25.654 C154.075,25.654 155.755,26.494 156.343,28.342 C156.595,29.14 156.721,29.854 156.721,31.492 L156.721,31.492 Z M196.117,35.23 C196.117,31.786 194.395,29.266 190.195,28.594 L190.195,28.174 C193.471,27.208 195.193,25.36 195.193,22.42 C195.193,17.548 193.135,15.07 187.213,15.07 L171.925,15.07 L171.925,43 L187.843,43 C193.177,43 196.117,40.27 196.117,35.23 L196.117,35.23 Z M191.623,22.042 C191.623,26.41 189.397,27.25 185.113,27.25 L175.495,27.25 L175.495,17.842 L185.575,17.842 C189.313,17.842 191.623,18.262 191.623,22.042 L191.623,22.042 Z M192.547,35.524 C192.547,39.808 189.817,40.186 185.953,40.186 L175.495,40.186 L175.495,30.022 L186.457,30.022 C191.161,30.022 192.547,31.828 192.547,35.524 L192.547,35.524 Z M218.419,43 L218.419,31.996 C218.419,27.796 218.503,26.242 217.033,24.94 C215.311,23.386 210.985,23.302 208.759,23.302 C207.079,23.302 202.543,23.638 201.115,25.066 C200.611,25.57 200.443,26.158 200.485,26.914 C200.485,26.914 200.527,28.09 200.569,28.804 L203.803,28.804 C204.055,27.376 204.055,27.082 204.433,26.704 C205.777,25.36 212.875,25.57 214.261,26.494 C215.143,27.04 215.101,28.132 215.101,29.056 L215.101,31.24 L206.449,31.24 C204.139,31.24 201.661,31.324 200.275,33.466 C199.687,34.39 199.393,35.608 199.393,37.204 C199.393,41.74 201.745,43.294 208.213,43.294 C211.825,43.294 214.009,42.622 215.269,41.152 L215.647,43 L218.419,43 Z M215.101,36.154 C215.101,37.834 214.975,39.472 213.211,40.228 C212.203,40.648 210.775,40.816 208.465,40.816 C206.155,40.816 204.727,40.522 203.845,39.892 C203.215,39.43 202.963,38.716 202.963,37.33 C202.963,35.608 203.341,34.516 204.181,34.054 C204.937,33.634 205.903,33.55 208.717,33.55 L215.101,33.55 L215.101,36.154 Z M241.897,43 L241.897,31.786 C241.897,29.518 241.813,28.636 241.645,27.628 C241.351,26.158 240.637,24.982 239.335,24.31 C237.949,23.596 236.143,23.176 233.791,23.176 C231.733,23.176 230.179,23.386 228.961,23.806 C228.121,24.1 227.533,24.436 226.651,25.024 L226.399,23.47 L223.417,23.47 L223.417,43 L226.735,43 L226.735,26.746 C227.827,26.41 228.373,26.284 229.129,26.158 C230.347,25.948 231.691,25.822 232.951,25.822 C235.219,25.822 236.773,26.158 237.571,26.872 C238.453,27.628 238.579,28.594 238.579,32.332 L238.579,43 L241.897,43 Z M265.165,43 L254.581,32.122 L263.149,23.47 L259.369,23.47 L251.851,31.24 L250.213,31.24 L250.213,15.07 L246.895,15.07 L246.895,43 L250.213,43 L250.213,33.634 L251.851,33.634 L260.797,43 L265.165,43 Z" id="Danske-Bank-2" filter="url(#filter-2)"></path>
                </g>
            </g>
        </g>
    </g>
</svg>