<?xml version="1.0" encoding="UTF-8" standalone="no"?>
<svg width="305px" height="45px" viewBox="0 0 305 45" version="1.1" xmlns="http://www.w3.org/2000/svg" xmlns:xlink="http://www.w3.org/1999/xlink" xmlns:sketch="http://www.bohemiancoding.com/sketch/ns">
    <!-- Generator: Sketch 3.2.2 (9983) - http://www.bohemiancoding.com/sketch -->
    <title>gotland-heading-large</title>
    <desc>Created with Sketch.</desc>
    <defs></defs>
    <g id="Page-2" stroke="none" stroke-width="1" fill="none" fill-rule="evenodd" sketch:type="MSPage">
        <g id="Large" sketch:type="MSArtboardGroup" transform="translate(-86.000000, -73.000000)" fill="#FFFFFF" opacity="0.9">
            <g id="GOTLAND" sketch:type="MSLayerGroup">
                <g id="HEADING" transform="translate(56.000000, 47.000000)" sketch:type="MSShapeGroup">
                    <path d="M30.38,50.08 C30.38,62.56 36.98,70.72 47.06,70.72 C52.22,70.72 56.18,68.92 58.58,66.28 L58.58,50.92 L46.82,50.92 L46.82,52.6 L56.66,52.6 L56.66,65.68 C54.62,67.72 51.02,68.92 47.18,68.92 C37.94,68.92 32.42,61.48 32.42,50.08 C32.42,38.68 38.18,31.48 47.66,31.48 C52.1,31.48 54.98,33.4 57.02,35.68 L58.22,34.36 C56.18,32.2 52.94,29.68 47.66,29.68 C37.22,29.68 30.38,37.6 30.38,50.08 L30.38,50.08 Z M66.26,55.72 C66.26,65.2 72.14,70.72 78.98,70.72 C85.82,70.72 91.7,65.2 91.7,55.72 C91.7,46.12 85.82,40.6 78.98,40.6 C72.14,40.6 66.26,46.12 66.26,55.72 L66.26,55.72 Z M68.18,55.72 C68.18,47.8 72.86,42.28 78.98,42.28 C85.1,42.28 89.78,47.8 89.78,55.72 C89.78,63.64 85.1,69.04 78.98,69.04 C72.86,69.04 68.18,63.64 68.18,55.72 L68.18,55.72 Z M101.3,62.44 C101.3,67.36 102.74,70.72 108.02,70.72 C108.98,70.72 110.78,70.24 112.46,69.64 L111.86,68.08 C110.78,68.56 109.22,69.04 108.14,69.04 C103.94,69.04 103.1,66.4 103.1,62.68 L103.1,43 L111.62,43 L111.62,41.32 L103.1,41.32 L103.1,32.92 L101.54,32.92 L101.3,41.32 L96.74,41.56 L96.74,43 L101.3,43 L101.3,62.44 Z M118.82,66.88 C118.82,69.64 119.9,70.72 121.7,70.72 C122.42,70.72 122.78,70.6 123.26,70.48 L122.9,68.92 C122.3,69.04 122.06,69.04 121.82,69.04 C121.1,69.04 120.62,68.44 120.62,67.24 L120.62,26.68 L118.82,26.68 L118.82,66.88 Z M130.94,62.98 C130.94,68.44 134.78,70.72 139.22,70.72 C143.06,70.72 146.66,68.56 149.66,66.16 L149.78,66.16 L150.02,70 L151.58,70 L151.58,51.4 C151.58,45.64 149.54,40.6 142.82,40.6 C138.14,40.6 134.18,43 132.38,44.32 L133.34,45.76 C135.14,44.32 138.62,42.28 142.7,42.28 C148.7,42.28 149.9,47.44 149.78,52.12 C136.82,53.56 130.94,56.56 130.94,62.98 L130.94,62.98 Z M132.86,62.92 C132.86,58 137.18,55.12 149.78,53.68 L149.78,64.12 C145.94,67.36 142.82,69.04 139.34,69.04 C135.86,69.04 132.86,67.36 132.86,62.92 L132.86,62.92 Z M162.26,70 L164.06,70 L164.06,48.04 C167.78,44.2 170.42,42.28 174.02,42.28 C178.94,42.28 180.98,45.4 180.98,51.76 L180.98,70 L182.78,70 L182.78,51.52 C182.78,44.08 180.02,40.6 174.14,40.6 C170.18,40.6 167.18,42.88 164.18,45.88 L164.06,45.88 L163.82,41.32 L162.26,41.32 L162.26,70 Z M191.3,55.72 C191.3,65.44 195.98,70.72 203.18,70.72 C207.14,70.72 210.38,68.56 212.78,66.16 L212.9,66.16 L213.14,70 L214.7,70 L214.7,26.68 L212.9,26.68 L212.9,38.8 L213.02,44.2 C210.02,41.92 207.62,40.6 204.14,40.6 C197.18,40.6 191.3,46.48 191.3,55.72 L191.3,55.72 Z M193.22,55.72 C193.22,48.28 197.9,42.28 204.02,42.28 C207.02,42.28 209.66,43.36 212.9,46.24 L212.9,64 C209.66,67.24 206.66,69.04 203.3,69.04 C196.82,69.04 193.22,63.64 193.22,55.72 L193.22,55.72 Z M224.54,68.44 C224.54,69.88 225.62,70.72 226.7,70.72 C227.78,70.72 228.86,69.88 228.86,68.44 C228.86,66.88 227.78,66.04 226.7,66.04 C225.62,66.04 224.54,66.88 224.54,68.44 L224.54,68.44 Z M236.18,55.72 C236.18,65.2 241.7,70.72 249.02,70.72 C252.74,70.72 255.74,69.04 258.14,66.88 L257.06,65.56 C255.02,67.48 252.26,69.04 249.02,69.04 C242.42,69.04 238.1,63.64 238.1,55.72 C238.1,47.8 242.9,42.28 249.02,42.28 C252.02,42.28 254.3,43.72 256.22,45.52 L257.42,44.2 C255.5,42.4 252.98,40.6 249.02,40.6 C242.18,40.6 236.18,46.12 236.18,55.72 L236.18,55.72 Z M262.94,55.72 C262.94,65.2 268.82,70.72 275.66,70.72 C282.5,70.72 288.38,65.2 288.38,55.72 C288.38,46.12 282.5,40.6 275.66,40.6 C268.82,40.6 262.94,46.12 262.94,55.72 L262.94,55.72 Z M264.86,55.72 C264.86,47.8 269.54,42.28 275.66,42.28 C281.78,42.28 286.46,47.8 286.46,55.72 C286.46,63.64 281.78,69.04 275.66,69.04 C269.54,69.04 264.86,63.64 264.86,55.72 L264.86,55.72 Z M297.38,70 L299.18,70 L299.18,48.04 C302.54,44.2 305.54,42.28 308.3,42.28 C312.98,42.28 315.14,45.4 315.14,51.76 L315.14,70 L316.94,70 L316.94,48.04 C320.3,44.2 323.18,42.28 326.06,42.28 C330.74,42.28 332.9,45.4 332.9,51.76 L332.9,70 L334.7,70 L334.7,51.52 C334.7,44.08 331.82,40.6 326.18,40.6 C322.94,40.6 319.7,42.88 316.34,46.6 C315.38,43 313.1,40.6 308.42,40.6 C305.3,40.6 301.94,42.88 299.3,45.88 L299.18,45.88 L298.94,41.32 L297.38,41.32 L297.38,70 Z" id="Gotland.com"></path>
                </g>
            </g>
        </g>
    </g>
</svg>