<?xml version="1.0" encoding="UTF-8" standalone="no"?>
<svg width="133px" height="15px" viewBox="0 0 133 15" version="1.1" xmlns="http://www.w3.org/2000/svg" xmlns:xlink="http://www.w3.org/1999/xlink" xmlns:sketch="http://www.bohemiancoding.com/sketch/ns">
    <!-- Generator: Sketch 3.2.2 (9983) - http://www.bohemiancoding.com/sketch -->
    <title>gotland-heading-small</title>
    <desc>Created with Sketch.</desc>
    <defs></defs>
    <g id="Page-2" stroke="none" stroke-width="1" fill="none" fill-rule="evenodd" sketch:type="MSPage">
        <g id="Large" sketch:type="MSArtboardGroup" transform="translate(-172.000000, -130.000000)" fill="#FFFFFF" opacity="0.9">
            <g id="GOTLAND" sketch:type="MSLayerGroup">
                <g id="HEADING" transform="translate(56.000000, 47.000000)" sketch:type="MSShapeGroup">
                    <path d="M119.5725,94 L120.8325,94 L120.8325,85.21 L123.8025,85.21 L123.8025,84.16 L116.6025,84.16 L116.6025,85.21 L119.5725,85.21 L119.5725,94 Z M125.4525,94 L126.6825,94 L126.6825,88.72 C127.4175,87.985 127.9275,87.595 128.6775,87.595 C129.6375,87.595 130.0575,88.18 130.0575,89.545 L130.0575,94 L131.2875,94 L131.2875,89.38 C131.2875,87.52 130.5975,86.53 129.0675,86.53 C128.0625,86.53 127.3275,87.07 126.6375,87.73 L126.6825,86.23 L126.6825,83.32 L125.4525,83.32 L125.4525,94 Z M133.0725,90.37 C133.0725,92.755 134.6175,94.18 136.5675,94.18 C137.5575,94.18 138.3375,93.835 138.9675,93.43 L138.5325,92.62 C137.9925,92.965 137.4075,93.19 136.7175,93.19 C135.3225,93.19 134.3775,92.2 134.2875,90.625 L139.2075,90.625 C139.2375,90.445 139.2525,90.205 139.2525,89.95 C139.2525,87.865 138.2025,86.53 136.3425,86.53 C134.6775,86.53 133.0725,87.985 133.0725,90.37 L133.0725,90.37 Z M134.2725,89.815 C134.4225,88.345 135.3525,87.505 136.3725,87.505 C137.5125,87.505 138.1725,88.33 138.1725,89.815 L134.2725,89.815 Z M144.0825,94 L145.3125,94 L145.3125,88.72 C145.9875,87.97 146.6025,87.595 147.1425,87.595 C148.0725,87.595 148.5075,88.18 148.5075,89.545 L148.5075,94 L149.7375,94 L149.7375,88.72 C150.4125,87.97 150.9975,87.595 151.5675,87.595 C152.4825,87.595 152.9175,88.18 152.9175,89.545 L152.9175,94 L154.1475,94 L154.1475,89.38 C154.1475,87.52 153.4275,86.53 151.9275,86.53 C151.0425,86.53 150.2925,87.1 149.5275,87.925 C149.2275,87.055 148.6275,86.53 147.5175,86.53 C146.6475,86.53 145.8825,87.07 145.2525,87.76 L145.2075,87.76 L145.1025,86.71 L144.0825,86.71 L144.0825,94 Z M156.1575,92.11 C156.1575,93.415 157.0725,94.18 158.3025,94.18 C159.2025,94.18 160.0125,93.7 160.7175,93.13 L160.7475,93.13 L160.8525,94 L161.8725,94 L161.8725,89.53 C161.8725,87.715 161.1225,86.53 159.3375,86.53 C158.1675,86.53 157.1475,87.04 156.4725,87.475 L156.9675,88.33 C157.5375,87.94 158.2875,87.55 159.1425,87.55 C160.3275,87.55 160.6425,88.45 160.6425,89.38 C157.5375,89.725 156.1575,90.52 156.1575,92.11 L156.1575,92.11 Z M157.3725,92.02 C157.3725,91.09 158.1975,90.49 160.6425,90.19 L160.6425,92.215 C159.9375,92.845 159.3525,93.19 158.6475,93.19 C157.9275,93.19 157.3725,92.845 157.3725,92.02 L157.3725,92.02 Z M164.7225,95.23 C164.7225,94.81 164.9475,94.375 165.4725,94 C165.7875,94.09 166.1325,94.12 166.4175,94.12 L167.6775,94.12 C168.6225,94.12 169.1475,94.345 169.1475,95.02 C169.1475,95.785 168.2325,96.505 166.8375,96.505 C165.5175,96.505 164.7225,96.01 164.7225,95.23 L164.7225,95.23 Z M163.6425,95.395 C163.6425,96.655 164.8725,97.36 166.6575,97.36 C168.9225,97.36 170.3475,96.19 170.3475,94.84 C170.3475,93.625 169.4925,93.1 167.7975,93.1 L166.3875,93.1 C165.3975,93.1 165.0975,92.77 165.0975,92.305 C165.0975,91.9 165.3075,91.66 165.5625,91.435 C165.8925,91.6 166.2975,91.69 166.6575,91.69 C168.1425,91.69 169.3275,90.715 169.3275,89.155 C169.3275,88.54 169.0725,87.985 168.7275,87.655 L170.2275,87.655 L170.2275,86.71 L167.6925,86.71 C167.4225,86.605 167.0625,86.53 166.6575,86.53 C165.1725,86.53 163.9125,87.535 163.9125,89.125 C163.9125,89.995 164.3775,90.7 164.8575,91.09 L164.8575,91.15 C164.4825,91.405 164.0625,91.885 164.0625,92.5 C164.0625,93.07 164.3475,93.46 164.7075,93.685 L164.7075,93.745 C164.0475,94.195 163.6425,94.78 163.6425,95.395 L163.6425,95.395 Z M166.6575,90.865 C165.8175,90.865 165.1125,90.19 165.1125,89.125 C165.1125,88.06 165.8025,87.43 166.6575,87.43 C167.5125,87.43 168.2025,88.06 168.2025,89.125 C168.2025,90.19 167.4975,90.865 166.6575,90.865 L166.6575,90.865 Z M172.3875,85.21 C172.8675,85.21 173.2425,84.88 173.2425,84.415 C173.2425,83.935 172.8675,83.62 172.3875,83.62 C171.9075,83.62 171.5325,83.935 171.5325,84.415 C171.5325,84.88 171.9075,85.21 172.3875,85.21 L172.3875,85.21 Z M171.7575,94 L172.9875,94 L172.9875,86.71 L171.7575,86.71 L171.7575,94 Z M174.9075,90.37 C174.9075,92.785 176.3925,94.18 178.3275,94.18 C179.1975,94.18 180.0375,93.82 180.6975,93.235 L180.1425,92.425 C179.7075,92.815 179.1225,93.16 178.4325,93.16 C177.0975,93.16 176.1825,92.035 176.1825,90.37 C176.1825,88.69 177.1425,87.55 178.4625,87.55 C179.0475,87.55 179.4975,87.82 179.9325,88.195 L180.5475,87.4 C180.0525,86.935 179.3775,86.53 178.4175,86.53 C176.5425,86.53 174.9075,87.925 174.9075,90.37 L174.9075,90.37 Z M184.7775,90.37 C184.7775,92.785 186.3675,94.18 188.1525,94.18 C189.9375,94.18 191.5275,92.785 191.5275,90.37 C191.5275,87.925 189.9375,86.53 188.1525,86.53 C186.3675,86.53 184.7775,87.925 184.7775,90.37 L184.7775,90.37 Z M186.0525,90.37 C186.0525,88.69 186.9075,87.55 188.1525,87.55 C189.4125,87.55 190.2525,88.69 190.2525,90.37 C190.2525,92.035 189.4125,93.16 188.1525,93.16 C186.9075,93.16 186.0525,92.035 186.0525,90.37 L186.0525,90.37 Z M197.0025,83.38 C196.6725,83.245 196.2375,83.14 195.7875,83.14 C194.3325,83.14 193.6575,84.07 193.6575,85.555 L193.6575,86.71 L192.6675,86.785 L192.6675,87.715 L193.6575,87.715 L193.6575,94 L194.8875,94 L194.8875,87.715 L196.4325,87.715 L196.4325,86.71 L194.8875,86.71 L194.8875,85.555 C194.8875,84.625 195.2175,84.145 195.9075,84.145 C196.1775,84.145 196.4625,84.205 196.7325,84.325 L197.0025,83.38 Z M200.2575,92.725 C201.1125,93.61 202.3275,94.18 203.7075,94.18 C205.7775,94.18 207.0525,92.935 207.0525,91.375 C207.0525,89.92 206.1675,89.245 205.0275,88.75 L203.6325,88.15 C202.8525,87.82 201.9975,87.46 201.9975,86.515 C201.9975,85.63 202.7325,85.075 203.8275,85.075 C204.7425,85.075 205.4625,85.435 206.0625,86.005 L206.7375,85.195 C206.0325,84.475 204.9975,83.98 203.8275,83.98 C202.0425,83.98 200.7375,85.09 200.7375,86.59 C200.7375,88.03 201.8025,88.735 202.7325,89.125 L204.1425,89.74 C205.0725,90.16 205.7775,90.475 205.7775,91.48 C205.7775,92.44 205.0125,93.085 203.7225,93.085 C202.7025,93.085 201.7125,92.59 201.0075,91.855 L200.2575,92.725 Z M210.0225,94 L211.4625,94 L212.4825,90.1 C212.6775,89.41 212.8275,88.72 212.9925,87.985 L213.0525,87.985 C213.2325,88.72 213.3675,89.395 213.5475,90.085 L214.5975,94 L216.0975,94 L218.0475,86.71 L216.8775,86.71 L215.8125,90.925 C215.6625,91.615 215.5275,92.275 215.3625,92.95 L215.3025,92.95 C215.1375,92.275 214.9725,91.615 214.7925,90.925 L213.6525,86.71 L212.4525,86.71 L211.3275,90.925 C211.1475,91.6 210.9975,92.275 210.8325,92.95 L210.7725,92.95 C210.6375,92.275 210.5025,91.615 210.3375,90.925 L209.2575,86.71 L207.9975,86.71 L210.0225,94 Z M219.0975,90.37 C219.0975,92.755 220.6425,94.18 222.5925,94.18 C223.5825,94.18 224.3625,93.835 224.9925,93.43 L224.5575,92.62 C224.0175,92.965 223.4325,93.19 222.7425,93.19 C221.3475,93.19 220.4025,92.2 220.3125,90.625 L225.2325,90.625 C225.2625,90.445 225.2775,90.205 225.2775,89.95 C225.2775,87.865 224.2275,86.53 222.3675,86.53 C220.7025,86.53 219.0975,87.985 219.0975,90.37 L219.0975,90.37 Z M220.2975,89.815 C220.4475,88.345 221.3775,87.505 222.3975,87.505 C223.5375,87.505 224.1975,88.33 224.1975,89.815 L220.2975,89.815 Z M226.5525,90.37 C226.5525,92.8 227.7375,94.18 229.5675,94.18 C230.4225,94.18 231.2025,93.7 231.7725,93.145 L231.8175,93.145 L231.9225,94 L232.9425,94 L232.9425,83.32 L231.6975,83.32 L231.6975,86.125 L231.7575,87.37 C231.1125,86.845 230.5575,86.53 229.7175,86.53 C228.0525,86.53 226.5525,88 226.5525,90.37 L226.5525,90.37 Z M227.8275,90.355 C227.8275,88.69 228.7575,87.565 229.9275,87.565 C230.5275,87.565 231.0825,87.775 231.6975,88.33 L231.6975,92.14 C231.0975,92.815 230.5125,93.145 229.8375,93.145 C228.5625,93.145 227.8275,92.095 227.8275,90.355 L227.8275,90.355 Z M234.8625,90.37 C234.8625,92.755 236.4075,94.18 238.3575,94.18 C239.3475,94.18 240.1275,93.835 240.7575,93.43 L240.3225,92.62 C239.7825,92.965 239.1975,93.19 238.5075,93.19 C237.1125,93.19 236.1675,92.2 236.0775,90.625 L240.9975,90.625 C241.0275,90.445 241.0425,90.205 241.0425,89.95 C241.0425,87.865 239.9925,86.53 238.1325,86.53 C236.4675,86.53 234.8625,87.985 234.8625,90.37 L234.8625,90.37 Z M236.0625,89.815 C236.2125,88.345 237.1425,87.505 238.1625,87.505 C239.3025,87.505 239.9625,88.33 239.9625,89.815 L236.0625,89.815 Z M242.8425,94 L244.0725,94 L244.0725,88.72 C244.8075,87.985 245.3175,87.595 246.0675,87.595 C247.0275,87.595 247.4475,88.18 247.4475,89.545 L247.4475,94 L248.6775,94 L248.6775,89.38 C248.6775,87.52 247.9875,86.53 246.4575,86.53 C245.4525,86.53 244.7025,87.07 244.0125,87.76 L243.9675,87.76 L243.8625,86.71 L242.8425,86.71 L242.8425,94 Z" id="The-magic-of-Sweden"></path>
                </g>
            </g>
        </g>
    </g>
</svg>