<?xml version="1.0" encoding="UTF-8" standalone="no"?>
<svg width="167px" height="29px" viewBox="0 0 167 29" version="1.1" xmlns="http://www.w3.org/2000/svg" xmlns:xlink="http://www.w3.org/1999/xlink" xmlns:sketch="http://www.bohemiancoding.com/sketch/ns">
    <!-- Generator: Sketch 3.2.2 (9983) - http://www.bohemiancoding.com/sketch -->
    <title>mammamu-heading-small</title>
    <desc>Created with Sketch.</desc>
    <defs></defs>
    <g id="Page-2" stroke="none" stroke-width="1" fill="none" fill-rule="evenodd" sketch:type="MSPage">
        <g id="Large" sketch:type="MSArtboardGroup" transform="translate(-1178.000000, -466.000000)" fill="#5AA200" opacity="0.7">
            <g id="MAMMA-MU" sketch:type="MSLayerGroup" transform="translate(1082.000000, 204.000000)">
                <g id="HEADING" transform="translate(37.000000, 166.000000)" sketch:type="MSShapeGroup">
                    <path d="M59.578,103.262 C59.578,105.796 61.748,107.42 65.332,107.154 C65.332,107.154 65.612,105.824 65.64,104.9 C64.744,104.9 63.358,104.886 63.162,104.648 L65.864,103.164 L66.242,101.736 C66.2,101.134 64.856,99.692 63.162,99.692 C61.286,99.692 59.578,100.714 59.578,103.262 L59.578,103.262 Z M62.084,103.01 C61.832,102.422 62.21,101.596 63.19,101.596 C63.47,101.596 63.736,101.82 63.792,101.96 L62.084,103.01 Z M66.97,102.1 C66.97,105.488 69.35,107.182 71.534,107.182 C74.194,107.182 75.076,105.11 75.076,105.11 C75.076,105.11 73.872,104.032 73.242,103.374 C73.102,103.57 72.43,104.326 71.534,104.326 C70.834,104.326 69.84,103.752 69.84,102.1 C69.84,100.546 70.456,99.776 71.184,99.776 C72.444,99.776 72.724,101.218 72.724,101.218 L74.978,100.938 C74.978,100.938 75.146,97.522 75.048,97.452 C74.446,97.074 72.85,97.046 72.85,97.018 L72.696,97.844 C72.696,97.844 72.108,97.256 71.044,97.256 C69.084,97.256 66.97,98.558 66.97,102.1 L66.97,102.1 Z M75.552,103.472 C75.552,106.174 77.064,107.28 79.192,107.28 C81.572,107.28 82.608,105.432 82.608,103.5 C82.608,101.148 81.166,99.818 79.178,99.818 C77.19,99.818 75.552,100.784 75.552,103.472 L75.552,103.472 Z M78.1,103.57 C78.1,102.828 78.38,102.128 79.234,102.128 C79.92,102.128 80.2,102.856 80.2,103.57 C80.2,104.466 79.78,104.886 79.234,104.886 C78.716,104.886 78.1,104.41 78.1,103.57 L78.1,103.57 Z M83.546,106.986 C83.532,106.986 87.396,107 87.452,106.93 L87.424,105.264 L86.836,105.082 L86.822,103.43 C86.822,102.604 87.186,102.03 87.69,102.03 C88.32,102.03 88.586,102.506 88.586,103.43 L88.6,105.04 L87.942,105.166 C87.914,105.404 87.998,106.93 87.998,106.93 L91.61,107.028 C91.694,106.58 91.61,105.124 91.61,105.124 L91.008,105.04 C91.008,105.04 91.008,103.556 91.022,103.192 C91.05,102.492 91.498,102.142 91.904,102.142 C92.534,102.142 92.772,102.506 92.772,103.43 L92.786,105.04 L92.212,105.222 C92.184,105.46 92.268,106.986 92.268,106.986 L96.16,106.972 C96.258,106.524 96.16,105.166 96.16,105.166 L95.418,105.04 C95.418,105.04 95.516,103.976 95.516,103.22 C95.516,100.322 93.92,99.65 92.59,99.65 C91.484,99.65 90.644,99.958 90.238,100.56 C89.72,99.692 88.712,99.58 87.9,99.58 C86.794,99.58 86.192,100.35 86.192,100.35 L85.828,99.426 C85.828,99.426 83.056,99.958 83.056,100.028 C83.056,100.098 83.322,102.114 83.336,102.114 C83.364,102.114 84.288,102.156 84.316,102.184 L84.302,105.04 L83.448,105.18 C83.434,106.062 83.546,106.986 83.546,106.986 L83.546,106.986 Z M97.28,106.986 C97.266,106.986 101.13,107 101.186,106.93 L101.158,105.264 L100.57,105.082 L100.556,103.43 C100.556,102.604 100.92,102.03 101.424,102.03 C102.054,102.03 102.32,102.506 102.32,103.43 L102.334,105.04 L101.676,105.166 C101.648,105.404 101.732,106.93 101.732,106.93 L105.344,107.028 C105.428,106.58 105.344,105.124 105.344,105.124 L104.742,105.04 C104.742,105.04 104.742,103.556 104.756,103.192 C104.784,102.492 105.232,102.142 105.638,102.142 C106.268,102.142 106.506,102.506 106.506,103.43 L106.52,105.04 L105.946,105.222 C105.918,105.46 106.002,106.986 106.002,106.986 L109.894,106.972 C109.992,106.524 109.894,105.166 109.894,105.166 L109.152,105.04 C109.152,105.04 109.25,103.976 109.25,103.22 C109.25,100.322 107.654,99.65 106.324,99.65 C105.218,99.65 104.378,99.958 103.972,100.56 C103.454,99.692 102.446,99.58 101.634,99.58 C100.528,99.58 99.926,100.35 99.926,100.35 L99.562,99.426 C99.562,99.426 96.79,99.958 96.79,100.028 C96.79,100.098 97.056,102.114 97.07,102.114 C97.098,102.114 98.022,102.156 98.05,102.184 L98.036,105.04 L97.182,105.18 C97.168,106.062 97.28,106.986 97.28,106.986 L97.28,106.986 Z M110.244,103.262 C110.244,105.796 112.414,107.42 115.998,107.154 C115.998,107.154 116.278,105.824 116.306,104.9 C115.41,104.9 114.024,104.886 113.828,104.648 L116.53,103.164 L116.908,101.736 C116.866,101.134 115.522,99.692 113.828,99.692 C111.952,99.692 110.244,100.714 110.244,103.262 L110.244,103.262 Z M112.75,103.01 C112.498,102.422 112.876,101.596 113.856,101.596 C114.136,101.596 114.402,101.82 114.458,101.96 L112.75,103.01 Z M117.874,107 C117.86,107 122.522,107.042 122.592,106.972 L122.564,105.152 L121.136,104.97 C121.136,104.97 121.024,104.536 121.024,103.626 C121.024,102.786 121.514,102.212 122.242,102.212 C122.732,102.212 123.124,102.59 123.306,102.772 C123.348,102.814 124.762,101.078 124.79,100.826 C124.804,100.728 123.852,99.734 122.592,99.734 C121.402,99.734 120.926,100.406 120.926,100.406 L120.478,99.454 C120.478,99.454 117.65,99.874 117.65,99.944 C117.65,100.014 117.86,101.764 117.874,101.764 C117.902,101.764 118.686,101.694 118.714,101.722 L118.7,105.012 L117.776,105.068 C117.762,105.964 117.874,107 117.874,107 L117.874,107 Z M124.944,103.374 C124.944,105.838 126.652,107.182 128.85,107.182 C131.034,107.182 131.818,105.628 131.818,105.628 C131.818,105.628 130.376,104.2 129.816,104.088 C129.718,104.2 129.41,104.648 128.752,104.648 C128.29,104.648 127.618,104.284 127.618,103.374 C127.618,102.436 128.136,102.044 128.612,102.03 C129.41,102.002 129.522,103.024 129.522,103.024 L131.776,102.716 C131.776,102.716 131.916,99.944 131.832,99.888 C131.23,99.496 129.928,99.482 129.928,99.468 L129.802,100.182 C129.802,100.182 129.326,99.748 128.262,99.748 C126.764,99.748 124.944,100.77 124.944,103.374 L124.944,103.374 Z M132.588,103.262 C132.588,105.796 134.758,107.42 138.342,107.154 C138.342,107.154 138.622,105.824 138.65,104.9 C137.754,104.9 136.368,104.886 136.172,104.648 L138.874,103.164 L139.252,101.736 C139.21,101.134 137.866,99.692 136.172,99.692 C134.296,99.692 132.588,100.714 132.588,103.262 L132.588,103.262 Z M135.094,103.01 C134.842,102.422 135.22,101.596 136.2,101.596 C136.48,101.596 136.746,101.82 136.802,101.96 L135.094,103.01 Z M145.188,107 C145.286,107.056 149.794,107 149.794,107 L149.724,104.788 L148.506,104.704 L148.464,102.282 L150.186,102.31 C150.186,102.31 150.284,100.924 150.102,100.252 L148.436,100.154 C148.436,100.154 148.394,99.104 148.828,99.104 C149.36,99.104 149.906,99.426 149.906,99.426 L151.054,97.578 C151.054,97.578 149.752,96.668 148.212,96.668 C145.888,96.668 145.93,99.622 145.93,100.154 C145.93,100.182 144.838,100.168 144.81,100.196 C144.782,100.224 144.838,102.254 144.838,102.254 L145.902,102.24 C145.902,102.24 146.07,104.676 146.07,104.704 C146.07,104.732 145.02,104.886 144.936,104.928 C144.852,104.97 145.048,106.916 145.188,107 L145.188,107 Z M150.802,103.472 C150.802,106.174 152.314,107.28 154.442,107.28 C156.822,107.28 157.858,105.432 157.858,103.5 C157.858,101.148 156.416,99.818 154.428,99.818 C152.44,99.818 150.802,100.784 150.802,103.472 L150.802,103.472 Z M153.35,103.57 C153.35,102.828 153.63,102.128 154.484,102.128 C155.17,102.128 155.45,102.856 155.45,103.57 C155.45,104.466 155.03,104.886 154.484,104.886 C153.966,104.886 153.35,104.41 153.35,103.57 L153.35,103.57 Z M158.81,107 C158.796,107 163.458,107.042 163.528,106.972 L163.5,105.152 L162.072,104.97 C162.072,104.97 161.96,104.536 161.96,103.626 C161.96,102.786 162.45,102.212 163.178,102.212 C163.668,102.212 164.06,102.59 164.242,102.772 C164.284,102.814 165.698,101.078 165.726,100.826 C165.74,100.728 164.788,99.734 163.528,99.734 C162.338,99.734 161.862,100.406 161.862,100.406 L161.414,99.454 C161.414,99.454 158.586,99.874 158.586,99.944 C158.586,100.014 158.796,101.764 158.81,101.764 C158.838,101.764 159.622,101.694 159.65,101.722 L159.636,105.012 L158.712,105.068 C158.698,105.964 158.81,107 158.81,107 L158.81,107 Z M172.53,106.902 C172.516,106.902 174.658,107.042 174.728,106.972 L174.868,106.552 C174.896,106.608 175.204,107.196 176.562,107.196 C177.85,107.196 179.894,106.314 179.894,103.43 C179.894,100.518 178.256,99.846 176.828,99.846 C175.638,99.846 175.162,100.364 175.162,100.364 L175.162,96.864 C175.162,96.864 171.494,97.046 171.494,97.116 C171.494,97.186 171.396,98.978 171.41,98.978 C171.438,98.978 172.53,99.118 172.558,99.146 C172.6,99.174 172.53,106.902 172.53,106.902 L172.53,106.902 Z M175.344,103.5 C175.344,102.66 175.722,101.96 176.268,101.96 C176.94,101.96 177.248,102.548 177.248,103.486 C177.248,104.41 176.898,104.9 176.352,104.9 C175.75,104.9 175.344,104.382 175.344,103.5 L175.344,103.5 Z M180.384,103.262 C180.384,105.796 182.554,107.42 186.138,107.154 C186.138,107.154 186.418,105.824 186.446,104.9 C185.55,104.9 184.164,104.886 183.968,104.648 L186.67,103.164 L187.048,101.736 C187.006,101.134 185.662,99.692 183.968,99.692 C182.092,99.692 180.384,100.714 180.384,103.262 L180.384,103.262 Z M182.89,103.01 C182.638,102.422 183.016,101.596 183.996,101.596 C184.276,101.596 184.542,101.82 184.598,101.96 L182.89,103.01 Z M187.79,107 C187.776,107 192.438,107.042 192.508,106.972 L192.48,105.068 L191.332,104.97 L191.332,96.822 C190.38,96.598 187.566,96.878 187.566,96.948 C187.566,97.018 187.776,98.852 187.79,98.852 C187.818,98.852 188.686,98.978 188.714,99.006 L188.756,104.872 L187.552,105.068 C187.538,105.964 187.79,107 187.79,107 L187.79,107 Z M193.096,103.472 C193.096,106.174 194.608,107.28 196.736,107.28 C199.116,107.28 200.152,105.432 200.152,103.5 C200.152,101.148 198.71,99.818 196.722,99.818 C194.734,99.818 193.096,100.784 193.096,103.472 L193.096,103.472 Z M195.644,103.57 C195.644,102.828 195.924,102.128 196.778,102.128 C197.464,102.128 197.744,102.856 197.744,103.57 C197.744,104.466 197.324,104.886 196.778,104.886 C196.26,104.886 195.644,104.41 195.644,103.57 L195.644,103.57 Z M203.61,107.042 C204.198,107.182 205.892,107.084 205.892,107.084 C206.746,105.81 208.482,101.778 208.482,101.778 L209.322,101.722 C209.336,100.826 209.224,99.93 209.224,99.93 C209.238,99.93 205.276,99.888 205.206,99.958 L205.234,101.778 L205.934,101.82 L204.926,104.158 L203.862,101.778 L204.646,101.75 C204.674,101.512 204.576,99.958 204.576,99.958 L200.39,99.916 C200.292,100.364 200.53,101.736 200.53,101.736 L201.412,101.778 C201.622,102.926 203.61,107.042 203.61,107.042 L203.61,107.042 Z M209.742,103.262 C209.742,105.796 211.912,107.42 215.496,107.154 C215.496,107.154 215.776,105.824 215.804,104.9 C214.908,104.9 213.522,104.886 213.326,104.648 L216.028,103.164 L216.406,101.736 C216.364,101.134 215.02,99.692 213.326,99.692 C211.45,99.692 209.742,100.714 209.742,103.262 L209.742,103.262 Z M212.248,103.01 C211.996,102.422 212.374,101.596 213.354,101.596 C213.634,101.596 213.9,101.82 213.956,101.96 L212.248,103.01 Z M220.186,107.154 C221.614,107.154 221.95,106.538 221.95,106.538 L222.118,107.042 C222.188,107.112 225.422,107 225.408,107 C225.408,107 225.408,105.824 225.394,104.928 L224.274,104.858 L224.26,96.962 C224.176,96.92 220.606,96.962 220.634,96.962 C220.648,96.962 220.494,98.642 220.578,98.712 C220.634,98.754 221.656,98.908 221.656,98.908 L221.656,100.364 C221.656,100.364 221.18,99.846 219.99,99.846 C218.562,99.846 216.924,100.518 216.924,103.43 C216.924,106.314 218.898,107.154 220.186,107.154 L220.186,107.154 Z M220.424,104.914 C219.878,104.914 219.5,104.424 219.5,103.5 C219.5,102.562 219.808,101.974 220.48,101.974 C221.026,101.974 221.404,102.674 221.404,103.514 C221.404,104.396 221.026,104.914 220.424,104.914 L220.424,104.914 Z M89.195,120.374 C89.195,122.838 90.903,124.182 93.101,124.182 C95.285,124.182 96.069,122.628 96.069,122.628 C96.069,122.628 94.627,121.2 94.067,121.088 C93.969,121.2 93.661,121.648 93.003,121.648 C92.541,121.648 91.869,121.284 91.869,120.374 C91.869,119.436 92.387,119.044 92.863,119.03 C93.661,119.002 93.773,120.024 93.773,120.024 L96.027,119.716 C96.027,119.716 96.167,116.944 96.083,116.888 C95.481,116.496 94.179,116.482 94.179,116.468 L94.053,117.182 C94.053,117.182 93.577,116.748 92.513,116.748 C91.015,116.748 89.195,117.77 89.195,120.374 L89.195,120.374 Z M97.063,124 C97.049,124 100.871,124.042 100.941,123.972 L100.913,122.292 L100.073,122.11 L100.059,120.57 C100.059,119.73 100.563,119.156 101.109,119.156 C101.781,119.156 102.173,119.632 102.173,120.57 L102.187,122.068 L101.501,122.194 C101.473,122.432 101.571,123.972 101.571,123.972 L105.197,124.014 C105.295,123.566 105.197,122.194 105.197,122.194 L104.609,122.068 L104.623,120.234 C104.623,117.322 103.181,116.65 101.753,116.65 C100.563,116.65 100.087,117.168 100.087,117.168 L100.087,113.92 C100.087,113.92 96.699,113.99 96.699,114.06 C96.699,114.13 96.601,115.964 96.615,115.964 C96.643,115.964 97.735,116.09 97.763,116.118 L97.749,122.152 L96.965,122.208 C96.951,123.104 97.063,124 97.063,124 L97.063,124 Z M108.319,116.132 C109.271,116.132 109.621,115.39 109.621,114.634 C109.621,113.892 108.921,113.248 108.165,113.248 C107.423,113.248 106.779,113.808 106.793,114.704 C106.821,115.586 107.353,116.132 108.319,116.132 L108.319,116.132 Z M105.995,124 C105.981,124 110.783,124.042 110.853,123.972 L110.825,122.292 L109.677,122.11 L109.677,117.462 C108.725,117.238 105.771,117.378 105.771,117.448 C105.771,117.518 105.981,119.352 105.995,119.352 C106.023,119.352 107.087,119.282 107.115,119.31 L107.101,122.152 L105.897,122.208 C105.883,123.104 105.995,124 105.995,124 L105.995,124 Z M112.113,124 C112.099,124 116.761,124.042 116.831,123.972 L116.803,122.068 L115.655,121.97 L115.655,113.822 C114.703,113.598 111.889,113.878 111.889,113.948 C111.889,114.018 112.099,115.852 112.113,115.852 C112.141,115.852 113.009,115.978 113.037,116.006 L113.079,121.872 L111.875,122.068 C111.861,122.964 112.113,124 112.113,124 L112.113,124 Z M120.835,124.154 C122.263,124.154 122.599,123.538 122.599,123.538 L122.767,124.042 C122.837,124.112 126.071,124 126.057,124 C126.057,124 126.057,122.824 126.043,121.928 L124.923,121.858 L124.909,113.962 C124.825,113.92 121.255,113.962 121.283,113.962 C121.297,113.962 121.143,115.642 121.227,115.712 C121.283,115.754 122.305,115.908 122.305,115.908 L122.305,117.364 C122.305,117.364 121.829,116.846 120.639,116.846 C119.211,116.846 117.573,117.518 117.573,120.43 C117.573,123.314 119.547,124.154 120.835,124.154 L120.835,124.154 Z M121.073,121.914 C120.527,121.914 120.149,121.424 120.149,120.5 C120.149,119.562 120.457,118.974 121.129,118.974 C121.675,118.974 122.053,119.674 122.053,120.514 C122.053,121.396 121.675,121.914 121.073,121.914 L121.073,121.914 Z M126.911,124 C126.897,124 131.559,124.042 131.629,123.972 L131.601,122.152 L130.173,121.97 C130.173,121.97 130.061,121.536 130.061,120.626 C130.061,119.786 130.551,119.212 131.279,119.212 C131.769,119.212 132.161,119.59 132.343,119.772 C132.385,119.814 133.799,118.078 133.827,117.826 C133.841,117.728 132.889,116.734 131.629,116.734 C130.439,116.734 129.963,117.406 129.963,117.406 L129.515,116.454 C129.515,116.454 126.687,116.874 126.687,116.944 C126.687,117.014 126.897,118.764 126.911,118.764 C126.939,118.764 127.723,118.694 127.751,118.722 L127.737,122.012 L126.813,122.068 C126.799,122.964 126.911,124 126.911,124 L126.911,124 Z M133.995,120.262 C133.995,122.796 136.165,124.42 139.749,124.154 C139.749,124.154 140.029,122.824 140.057,121.9 C139.161,121.9 137.775,121.886 137.579,121.648 L140.281,120.164 L140.659,118.736 C140.617,118.134 139.273,116.692 137.579,116.692 C135.703,116.692 133.995,117.714 133.995,120.262 L133.995,120.262 Z M136.501,120.01 C136.249,119.422 136.627,118.596 137.607,118.596 C137.887,118.596 138.153,118.82 138.209,118.96 L136.501,120.01 Z M141.485,124 C141.471,124 145.433,124.042 145.503,123.972 L145.475,122.292 L144.635,122.11 L144.621,120.57 C144.621,119.73 145.125,119.156 145.671,119.156 C146.343,119.156 146.735,119.632 146.735,120.57 L146.749,122.068 L146.063,122.194 C146.035,122.432 146.133,123.972 146.133,123.972 L149.759,124.014 C149.857,123.566 149.759,122.194 149.759,122.194 L149.171,122.068 L149.185,120.234 C149.185,117.322 147.743,116.65 146.315,116.65 C145.125,116.65 144.481,117.532 144.481,117.532 L144.033,116.524 C144.033,116.524 141.261,116.818 141.261,116.888 C141.261,116.958 141.471,118.848 141.485,118.848 C141.513,118.848 142.297,118.778 142.325,118.806 L142.311,122.152 L141.387,122.208 C141.373,123.104 141.485,124 141.485,124 L141.485,124 Z M156.227,123.902 C156.213,123.902 158.355,124.042 158.425,123.972 L158.565,123.552 C158.593,123.608 158.901,124.196 160.259,124.196 C161.547,124.196 163.591,123.314 163.591,120.43 C163.591,117.518 161.953,116.846 160.525,116.846 C159.335,116.846 158.859,117.364 158.859,117.364 L158.859,113.864 C158.859,113.864 155.191,114.046 155.191,114.116 C155.191,114.186 155.093,115.978 155.107,115.978 C155.135,115.978 156.227,116.118 156.255,116.146 C156.297,116.174 156.227,123.902 156.227,123.902 L156.227,123.902 Z M159.041,120.5 C159.041,119.66 159.419,118.96 159.965,118.96 C160.637,118.96 160.945,119.548 160.945,120.486 C160.945,121.41 160.595,121.9 160.049,121.9 C159.447,121.9 159.041,121.382 159.041,120.5 L159.041,120.5 Z M164.403,120.472 C164.403,123.174 165.915,124.28 168.043,124.28 C170.423,124.28 171.459,122.432 171.459,120.5 C171.459,118.148 170.017,116.818 168.029,116.818 C166.041,116.818 164.403,117.784 164.403,120.472 L164.403,120.472 Z M166.951,120.57 C166.951,119.828 167.231,119.128 168.085,119.128 C168.771,119.128 169.051,119.856 169.051,120.57 C169.051,121.466 168.631,121.886 168.085,121.886 C167.567,121.886 166.951,121.41 166.951,120.57 L166.951,120.57 Z M172.089,120.472 C172.089,123.174 173.601,124.28 175.729,124.28 C178.109,124.28 179.145,122.432 179.145,120.5 C179.145,118.148 177.703,116.818 175.715,116.818 C173.727,116.818 172.089,117.784 172.089,120.472 L172.089,120.472 Z M174.637,120.57 C174.637,119.828 174.917,119.128 175.771,119.128 C176.457,119.128 176.737,119.856 176.737,120.57 C176.737,121.466 176.317,121.886 175.771,121.886 C175.253,121.886 174.637,121.41 174.637,120.57 L174.637,120.57 Z M179.789,124.028 C179.789,124.028 183.639,124.028 183.639,123.958 C183.639,123.888 183.695,122.264 183.695,122.236 C183.695,122.208 183.107,122.124 183.107,122.054 C183.107,121.97 183.093,121.074 183.149,121.004 C183.303,120.822 184.633,122.054 184.717,122.152 C184.717,122.194 184.227,122.278 184.185,122.278 C184.157,122.278 184.283,123.832 184.353,124.028 C184.423,124.21 188.777,124.014 188.819,123.986 C188.861,123.958 188.749,122.306 188.735,122.292 C188.721,122.278 187.881,122.208 187.811,122.18 C187.741,122.152 185.697,120.262 185.753,120.15 C185.809,120.052 187.167,118.96 187.209,118.932 C187.251,118.904 188.119,119.03 188.161,118.96 C188.203,118.89 188.161,117.182 188.161,117.098 C188.161,117.014 183.765,116.888 183.765,116.958 C183.765,117.028 183.863,118.456 183.891,118.526 C183.933,118.596 184.521,118.666 184.521,118.75 C184.521,118.834 183.065,119.618 183.065,119.618 C183.065,117.7 183.219,114.228 182.841,113.934 C182.771,113.878 179.649,114.312 179.635,114.354 C179.621,114.396 179.565,116.16 179.579,116.188 C179.593,116.216 180.685,116.23 180.685,116.23 L180.713,122.054 C180.713,122.054 179.775,122.124 179.705,122.124 C179.635,122.124 179.775,124 179.789,124.028 L179.789,124.028 Z M189.603,124.14 C189.603,124.14 191.451,124.28 191.507,124.294 C191.521,124.294 191.549,123.944 191.577,123.72 C191.759,123.888 192.137,124.182 193.397,124.182 C194.629,124.182 195.707,123.314 195.707,122.18 C195.707,120.934 194.797,120.136 193.957,119.744 C193.271,119.408 192.487,119.198 192.487,118.918 C192.487,118.61 192.753,118.568 192.921,118.568 C193.215,118.568 193.607,118.736 193.649,119.184 C193.649,119.226 195.567,119.366 195.567,119.254 C195.567,119.002 195.763,116.79 195.707,116.762 C195.105,116.552 193.705,116.594 193.705,116.594 L193.621,117.084 C193.411,116.902 192.977,116.678 192.263,116.678 C190.625,116.678 189.715,117.658 189.715,118.638 C189.715,120.094 190.681,120.626 191.521,120.99 C192.081,121.242 192.683,121.382 192.683,121.83 C192.683,122.068 192.445,122.194 192.165,122.194 C191.871,122.194 191.479,121.914 191.311,121.382 C191.129,121.354 190.205,121.34 189.575,121.452 C189.575,121.858 189.575,123.93 189.603,124.14 L189.603,124.14 Z" id="eCommerce-for-belove"></path>
                </g>
            </g>
        </g>
    </g>
</svg>