<?xml version="1.0" encoding="UTF-8" standalone="no"?>
<svg width="171px" height="35px" viewBox="0 0 171 35" version="1.1" xmlns="http://www.w3.org/2000/svg" xmlns:xlink="http://www.w3.org/1999/xlink" xmlns:sketch="http://www.bohemiancoding.com/sketch/ns">
    <!-- Generator: Sketch 3.2.2 (9983) - http://www.bohemiancoding.com/sketch -->
    <title>me-heading-large</title>
    <desc>Created with Sketch.</desc>
    <defs>
        <path d="M58.356,27.938 C58.356,30.934 60.19,33.258 62.696,34.238 C62.836,34.294 62.934,34.238 62.99,34.112 L63.242,33.482 C63.312,33.3 63.284,33.216 63.102,33.132 C61.03,32.264 59.56,30.416 59.56,27.938 C59.56,24.41 61.646,22.24 64.866,22.24 C68.072,22.24 69.696,24.354 69.696,27.07 C69.696,28.862 68.968,30.094 67.974,30.094 C67.428,30.094 67.036,29.814 67.036,28.498 L67.036,25.726 C67.036,25.586 66.91,25.46 66.77,25.46 L66.588,25.46 C66.126,25.46 66.154,25.684 66.014,26.104 C65.902,25.992 65.37,25.32 64.362,25.32 C62.892,25.32 61.828,26.482 61.828,28.246 C61.828,29.954 62.878,31.2 64.32,31.2 C65.188,31.2 65.818,30.696 66.112,30.108 L66.224,30.108 C66.42,30.696 66.896,31.2 67.862,31.2 C70.144,31.2 70.914,28.876 70.914,27.028 C70.914,23.654 68.73,21.12 64.908,21.12 C60.96,21.12 58.356,23.962 58.356,27.938 L58.356,27.938 Z M63.046,28.204 C63.074,27.112 63.634,26.468 64.432,26.468 C65.286,26.468 65.706,27.154 65.734,27.35 L65.734,28.638 C65.72,29.408 65.328,29.996 64.432,29.996 C63.662,29.996 63.018,29.31 63.046,28.204 L63.046,28.204 Z M73.374,29.534 C73.374,30.528 73.696,31.2 74.802,31.2 C75.474,31.2 76.3,30.864 76.44,30.78 C76.58,30.71 76.636,30.598 76.566,30.444 L76.314,29.828 C76.258,29.702 76.174,29.618 75.992,29.702 C75.824,29.786 75.432,29.954 75.138,29.954 C74.872,29.954 74.69,29.87 74.69,29.394 L74.69,26.622 L76.118,26.622 C76.272,26.622 76.384,26.496 76.384,26.356 L76.384,25.726 C76.384,25.572 76.272,25.46 76.118,25.46 L74.69,25.46 L74.69,23.892 C74.69,23.752 74.578,23.626 74.438,23.626 L73.64,23.64 C73.5,23.64 73.374,23.766 73.374,23.906 L73.374,25.46 L72.786,25.46 C72.632,25.46 72.52,25.572 72.52,25.726 L72.52,26.356 C72.52,26.496 72.632,26.622 72.786,26.622 L73.374,26.622 L73.374,29.534 Z M78.354,30.794 C78.354,30.934 78.48,31.06 78.62,31.06 L79.292,31.06 C79.516,31.06 79.67,31.032 79.67,30.794 L79.67,27.238 C79.726,27.14 80.118,26.552 80.93,26.552 C81.112,26.552 81.322,26.608 81.406,26.65 C81.532,26.706 81.672,26.678 81.742,26.524 L82.078,25.838 C82.232,25.46 81.588,25.32 81.056,25.32 C80.034,25.32 79.516,25.992 79.418,26.132 L79.264,25.656 C79.236,25.544 79.124,25.46 79.026,25.46 L78.62,25.46 C78.48,25.46 78.354,25.586 78.354,25.726 L78.354,30.794 Z M83.11,28.26 C83.11,29.87 84.23,31.2 85.924,31.2 C86.862,31.2 87.59,30.85 87.996,30.5 C88.164,30.36 88.122,30.248 88.024,30.136 L87.632,29.604 C87.52,29.464 87.422,29.52 87.254,29.618 C86.974,29.8 86.512,30.024 86.008,30.024 C85.098,30.024 84.44,29.282 84.398,28.526 L88.206,28.526 C88.332,28.526 88.444,28.428 88.458,28.288 C88.472,28.19 88.486,28.008 88.486,27.91 C88.486,26.412 87.366,25.32 85.91,25.32 C84.23,25.32 83.11,26.678 83.11,28.26 L83.11,28.26 Z M84.468,27.644 C84.552,26.944 85.14,26.398 85.896,26.398 C86.582,26.398 87.142,26.972 87.184,27.644 L84.468,27.644 Z M92.052,31.06 C92.08,31.13 92.164,31.2 92.29,31.2 L92.36,31.2 C92.486,31.2 92.57,31.13 92.598,31.06 L95.076,25.782 C95.16,25.6 95.076,25.46 94.866,25.46 L94.222,25.46 C94.068,25.46 93.914,25.46 93.844,25.614 L92.332,28.918 L92.318,28.918 L90.862,25.614 C90.82,25.53 90.75,25.46 90.61,25.46 L89.784,25.46 C89.574,25.46 89.49,25.6 89.574,25.782 L92.052,31.06 Z M96.234,29.324 C96.234,30.486 96.99,31.2 98.04,31.2 C98.908,31.2 99.454,30.78 99.762,30.486 L99.902,30.864 C99.958,31.004 100.014,31.06 100.14,31.06 L100.532,31.06 C100.672,31.06 100.798,30.934 100.798,30.794 L100.798,27.812 C100.798,26.412 100.63,25.32 98.838,25.32 C97.802,25.32 97.004,25.6 96.906,25.642 C96.78,25.684 96.682,25.782 96.724,25.964 L96.836,26.482 C96.878,26.636 96.976,26.748 97.144,26.706 C97.438,26.622 98.068,26.454 98.712,26.454 C99.426,26.454 99.594,26.804 99.58,27.686 C99.58,27.686 99.062,27.518 98.474,27.518 C97.046,27.518 96.234,28.302 96.234,29.324 L96.234,29.324 Z M97.452,29.31 C97.452,28.736 97.914,28.386 98.586,28.386 C99.09,28.386 99.482,28.554 99.566,28.61 L99.566,29.506 C99.398,29.786 98.866,30.206 98.306,30.206 C97.788,30.206 97.452,29.814 97.452,29.31 L97.452,29.31 Z M103.062,30.794 C103.062,30.934 103.188,31.06 103.328,31.06 L104.126,31.06 C104.266,31.06 104.392,30.934 104.392,30.794 L104.392,21.526 C104.392,21.386 104.266,21.26 104.126,21.26 L103.328,21.26 C103.188,21.26 103.062,21.386 103.062,21.526 L103.062,30.794 Z M106.306,28.26 C106.306,29.87 107.44,31.2 108.924,31.2 C110.03,31.2 110.702,30.416 110.702,30.416 L110.814,30.822 C110.856,30.962 110.94,31.06 111.066,31.06 L111.486,31.06 C111.626,31.06 111.752,30.934 111.752,30.794 L111.752,21.526 C111.752,21.386 111.626,21.26 111.486,21.26 L110.674,21.26 C110.534,21.26 110.408,21.386 110.408,21.526 L110.408,25.628 C110.282,25.586 109.778,25.32 109.064,25.32 C107.51,25.32 106.306,26.622 106.306,28.26 L106.306,28.26 Z M107.608,28.26 C107.608,27.308 108.266,26.538 109.204,26.538 C109.932,26.538 110.422,26.874 110.422,26.874 L110.422,29.156 C110.352,29.31 109.946,29.996 109.092,29.996 C108.196,29.996 107.608,29.198 107.608,28.26 L107.608,28.26 Z" id="path-1"></path>
        <path d="M0.290571492,12.718 C0.290571492,12.898 0.434571492,13.06 0.632571492,13.06 L4.86257149,13.06 C7.13057149,13.06 8.78657149,11.602 8.78657149,9.586 C8.78657149,7.93 7.49057149,7.048 6.53657149,6.652 C7.38257149,6.166 8.40857149,5.176 8.40857149,3.79 C8.40857149,1.9 6.84257149,0.46 4.66457149,0.46 L0.632571492,0.46 C0.434571492,0.46 0.290571492,0.622 0.290571492,0.802 L0.290571492,12.718 Z M2.12657149,5.932 L2.12657149,2.152 L4.55657149,2.152 C5.70857149,2.152 6.41057149,2.908 6.41057149,4.006 C6.41057149,5.086 5.70857149,5.932 4.55657149,5.932 L2.12657149,5.932 Z M2.10857149,11.404 L2.10857149,7.552 L4.57457149,7.552 C5.74457149,7.552 6.78857149,8.344 6.78857149,9.442 C6.78857149,10.558 5.94257149,11.404 4.84457149,11.404 L2.10857149,11.404 Z M12.1294286,12.718 C12.1294286,12.898 12.2734286,13.06 12.4714286,13.06 L19.6714286,13.06 C19.8694286,13.06 20.0134286,12.898 20.0134286,12.718 L20.0134286,11.728 C20.0134286,11.548 19.8694286,11.386 19.6714286,11.386 L13.9834286,11.386 L13.9834286,7.516 L18.7894286,7.516 C18.9694286,7.516 19.1314286,7.372 19.1314286,7.174 L19.1314286,6.166 C19.1314286,5.986 18.9694286,5.824 18.7894286,5.824 L13.9834286,5.824 L13.9834286,2.152 L19.6714286,2.152 C19.8694286,2.152 20.0134286,1.99 20.0134286,1.81 L20.0134286,0.802 C20.0134286,0.622 19.8694286,0.46 19.6714286,0.46 L12.4714286,0.46 C12.2734286,0.46 12.1294286,0.622 12.1294286,0.802 L12.1294286,12.718 Z M23.3742858,12.718 C23.3742858,12.898 23.5362858,13.06 23.7162858,13.06 L24.8502858,13.06 C25.0482858,13.06 25.1922858,12.898 25.1922858,12.718 L25.1922858,3.952 L25.2102858,3.952 L33.0222858,13.24 L33.4902858,13.24 C33.6702858,13.24 33.8322858,13.096 33.8322858,12.916 L33.8322858,0.802 C33.8322858,0.622 33.6702858,0.46 33.4902858,0.46 L32.3382858,0.46 C32.1402858,0.46 31.9962858,0.622 31.9962858,0.802 L31.9962858,9.316 L31.9782858,9.316 L24.1662858,0.28 L23.7162858,0.28 C23.5362858,0.28 23.3742858,0.424 23.3742858,0.604 L23.3742858,12.718 Z M35.9151429,11.926 C36.2211429,12.304 37.0851429,13.24 38.6511429,13.24 C40.7571429,13.24 42.3411429,11.8 42.3411429,9.298 L42.3411429,0.802 C42.3411429,0.622 42.1971429,0.46 41.9991429,0.46 L40.8111429,0.46 C40.6131429,0.46 40.4691429,0.622 40.4691429,0.802 L40.4691429,9.316 C40.4691429,10.9 39.5331429,11.584 38.6511429,11.584 C37.9491429,11.584 37.4451429,11.116 37.1751429,10.81 C37.0131429,10.63 36.8511429,10.558 36.5991429,10.774 L35.9511429,11.476 C35.8431429,11.602 35.8251429,11.782 35.9151429,11.926 L35.9151429,11.926 Z M44.64,13.06 L45.774,13.06 C45.99,13.06 46.134,12.916 46.188,12.79 C46.548,11.962 46.926,11.152 47.286,10.324 L53.172,10.324 L54.288,12.79 C54.36,12.952 54.486,13.06 54.702,13.06 L55.836,13.06 C56.106,13.06 56.25,12.826 56.142,12.592 L50.652,0.478 C50.598,0.37 50.436,0.28 50.346,0.28 L50.166,0.28 C50.076,0.28 49.914,0.37 49.86,0.478 L44.334,12.592 C44.226,12.826 44.37,13.06 44.64,13.06 L44.64,13.06 Z M47.988,8.776 L50.184,3.844 L50.274,3.844 L52.488,8.776 L47.988,8.776 Z M57.7208572,12.646 C57.6848572,12.898 57.8108572,13.06 58.0628572,13.06 L59.2328572,13.06 C59.3768572,13.06 59.5388572,12.934 59.5568572,12.808 L60.8528572,4.762 L60.9248572,4.762 L64.1828572,13.042 C64.2188572,13.15 64.3448572,13.24 64.4888572,13.24 L64.8128572,13.24 C64.9748572,13.24 65.0828572,13.15 65.1188572,13.042 L68.3588572,4.762 L68.4128572,4.762 L69.7448572,12.808 C69.7808572,12.934 69.9248572,13.06 70.0868572,13.06 L71.2568572,13.06 C71.5088572,13.06 71.6348572,12.898 71.5808572,12.646 L69.3668572,0.55 C69.3308572,0.406 69.1868572,0.28 69.0428572,0.28 L68.7548572,0.28 C68.6288572,0.28 68.4848572,0.37 68.4488572,0.478 L64.7048572,9.676 L64.6328572,9.676 L60.8708572,0.478 C60.8348572,0.37 60.6728572,0.28 60.5648572,0.28 L60.2768572,0.28 C60.1328572,0.28 59.9888572,0.406 59.9528572,0.55 L57.7208572,12.646 Z M74.8697143,12.718 C74.8697143,12.898 75.0317143,13.06 75.2117143,13.06 L76.3997143,13.06 C76.5797143,13.06 76.7417143,12.898 76.7417143,12.718 L76.7417143,0.802 C76.7417143,0.622 76.5797143,0.46 76.3997143,0.46 L75.2117143,0.46 C75.0317143,0.46 74.8697143,0.622 74.8697143,0.802 L74.8697143,12.718 Z M80.8765714,12.718 C80.8765714,12.898 81.0385714,13.06 81.2185714,13.06 L82.3525714,13.06 C82.5505714,13.06 82.6945714,12.898 82.6945714,12.718 L82.6945714,3.952 L82.7125714,3.952 L90.5245714,13.24 L90.9925714,13.24 C91.1725714,13.24 91.3345714,13.096 91.3345714,12.916 L91.3345714,0.802 C91.3345714,0.622 91.1725714,0.46 90.9925714,0.46 L89.8405714,0.46 C89.6425714,0.46 89.4985714,0.622 89.4985714,0.802 L89.4985714,9.316 L89.4805714,9.316 L81.6685714,0.28 L81.2185714,0.28 C81.0385714,0.28 80.8765714,0.424 80.8765714,0.604 L80.8765714,12.718 Z M100.072286,12.718 C100.072286,12.898 100.234286,13.06 100.414286,13.06 L101.602286,13.06 C101.800286,13.06 101.944286,12.898 101.944286,12.718 L101.944286,7.516 L108.532286,7.516 L108.532286,12.718 C108.532286,12.898 108.676286,13.06 108.874286,13.06 L110.062286,13.06 C110.242286,13.06 110.404286,12.898 110.404286,12.718 L110.404286,0.802 C110.404286,0.622 110.242286,0.46 110.062286,0.46 L108.874286,0.46 C108.676286,0.46 108.532286,0.622 108.532286,0.802 L108.532286,5.824 L101.944286,5.824 L101.944286,0.802 C101.944286,0.622 101.800286,0.46 101.602286,0.46 L100.414286,0.46 C100.234286,0.46 100.072286,0.622 100.072286,0.802 L100.072286,12.718 Z M113.621143,6.778 C113.621143,10.378 116.483143,13.24 120.083143,13.24 C123.683143,13.24 126.563143,10.378 126.563143,6.778 C126.563143,3.178 123.683143,0.28 120.083143,0.28 C116.483143,0.28 113.621143,3.178 113.621143,6.778 L113.621143,6.778 Z M115.421143,6.778 C115.421143,4.222 117.527143,2.08 120.083143,2.08 C122.657143,2.08 124.763143,4.222 124.763143,6.778 C124.763143,9.352 122.657143,11.44 120.083143,11.44 C117.527143,11.44 115.421143,9.352 115.421143,6.778 L115.421143,6.778 Z M129.78,12.718 C129.78,12.898 129.924,13.06 130.122,13.06 L136.53,13.06 C136.728,13.06 136.872,12.898 136.872,12.718 L136.872,11.728 C136.872,11.548 136.728,11.386 136.53,11.386 L131.652,11.386 L131.652,0.802 C131.652,0.622 131.49,0.46 131.31,0.46 L130.122,0.46 C129.924,0.46 129.78,0.622 129.78,0.802 L129.78,12.718 Z M139.404857,12.718 C139.404857,12.898 139.548857,13.06 139.746857,13.06 L140.916857,13.06 C141.096857,13.06 141.258857,12.898 141.258857,12.718 L141.258857,7.984 L146.064857,7.984 C146.244857,7.984 146.406857,7.822 146.406857,7.642 L146.406857,6.652 C146.406857,6.472 146.244857,6.31 146.064857,6.31 L141.258857,6.31 L141.258857,2.152 L146.946857,2.152 C147.144857,2.152 147.288857,1.99 147.288857,1.81 L147.288857,0.802 C147.288857,0.622 147.144857,0.46 146.946857,0.46 L139.746857,0.46 C139.548857,0.46 139.404857,0.622 139.404857,0.802 L139.404857,12.718 Z M154.177714,13.042 C154.231714,13.15 154.357714,13.24 154.483714,13.24 L154.663714,13.24 C154.807714,13.24 154.915714,13.15 154.969714,13.042 L160.495714,0.928 C160.603714,0.694 160.459714,0.46 160.189714,0.46 L158.911714,0.46 C158.749714,0.46 158.641714,0.568 158.605714,0.658 L154.645714,9.568 L154.537714,9.568 L150.577714,0.658 C150.541714,0.568 150.415714,0.46 150.271714,0.46 L148.993714,0.46 C148.723714,0.46 148.579714,0.694 148.687714,0.928 L154.177714,13.042 Z M162.956571,12.718 C162.956571,12.898 163.100571,13.06 163.298571,13.06 L170.498571,13.06 C170.696571,13.06 170.840571,12.898 170.840571,12.718 L170.840571,11.728 C170.840571,11.548 170.696571,11.386 170.498571,11.386 L164.810571,11.386 L164.810571,7.516 L169.616571,7.516 C169.796571,7.516 169.958571,7.372 169.958571,7.174 L169.958571,6.166 C169.958571,5.986 169.796571,5.824 169.616571,5.824 L164.810571,5.824 L164.810571,2.152 L170.498571,2.152 C170.696571,2.152 170.840571,1.99 170.840571,1.81 L170.840571,0.802 C170.840571,0.622 170.696571,0.46 170.498571,0.46 L163.298571,0.46 C163.100571,0.46 162.956571,0.622 162.956571,0.802 L162.956571,12.718 Z" id="path-2"></path>
    </defs>
    <g id="Page-2" stroke="none" stroke-width="1" fill="none" fill-rule="evenodd" sketch:type="MSPage">
        <g id="Portrait" sketch:type="MSArtboardGroup" transform="translate(-96.000000, -468.000000)">
            <g id="INTRO" sketch:type="MSLayerGroup" transform="translate(0.000000, 426.000000)">
                <g id="OUTLINES" transform="translate(96.000000, 42.000000)">
                    <g id="@trevald-2">
                        <use fill="none" sketch:type="MSShapeGroup" xlink:href="#path-1"></use>
                        <use fill-opacity="0.6" fill="#FFFFFF" fill-rule="evenodd" xlink:href="#path-1"></use>
                    </g>
                    <g id="BENJAMIN-HOLFVE-2">
                        <use fill="none" sketch:type="MSShapeGroup" xlink:href="#path-2"></use>
                        <use fill-opacity="0.8" fill="#FFFFFF" fill-rule="evenodd" xlink:href="#path-2"></use>
                    </g>
                </g>
            </g>
        </g>
    </g>
</svg>