<?xml version="1.0" encoding="UTF-8" standalone="no"?>
<svg width="89px" height="24px" viewBox="0 0 89 24" version="1.1" xmlns="http://www.w3.org/2000/svg" xmlns:xlink="http://www.w3.org/1999/xlink" xmlns:sketch="http://www.bohemiancoding.com/sketch/ns">
    <!-- Generator: Sketch 3.2.2 (9983) - http://www.bohemiancoding.com/sketch -->
    <title>me-more-mini</title>
    <desc>Created with Sketch.</desc>
    <defs></defs>
    <g id="Page-2" stroke="none" stroke-width="1" fill="none" fill-rule="evenodd" sketch:type="MSPage">
        <g id="Mini" sketch:type="MSArtboardGroup" transform="translate(-118.000000, -447.000000)" fill="#FFFFFF">
            <g id="MORE" sketch:type="MSLayerGroup" transform="translate(112.000000, 437.000000)">
                <path d="M43.43,27.2 C43.22,26.99 42.89,26.99 42.68,27.2 C42.47,27.38 42.47,27.71 42.68,27.92 L48.62,33.8 C48.83,33.98 49.16,33.98 49.34,33.8 L55.28,27.92 C55.49,27.71 55.49,27.38 55.28,27.2 C55.07,26.99 54.74,26.99 54.56,27.2 L48.98,32.54 L43.43,27.2 Z" id="î¤" sketch:type="MSShapeGroup"></path>
                <path d="M6.82,14.812 C6.82,17.212 8.752,19.12 11.152,19.12 C12.22,19.12 13.252,18.748 14.068,17.956 C14.152,17.872 14.176,17.716 14.08,17.632 L13.528,17.092 C13.456,17.032 13.348,17.02 13.24,17.104 C12.664,17.548 12.052,17.896 11.176,17.896 C9.46,17.896 8.152,16.468 8.152,14.788 C8.152,13.108 9.448,11.668 11.164,11.668 C11.908,11.668 12.676,11.98 13.24,12.472 C13.348,12.58 13.456,12.58 13.54,12.472 L14.068,11.932 C14.164,11.836 14.164,11.692 14.056,11.596 C13.24,10.888 12.364,10.48 11.152,10.48 C8.752,10.48 6.82,12.412 6.82,14.812 L6.82,14.812 Z M14.86,19 L15.616,19 C15.76,19 15.856,18.904 15.892,18.82 C16.132,18.268 16.384,17.728 16.624,17.176 L20.548,17.176 L21.292,18.82 C21.34,18.928 21.424,19 21.568,19 L22.324,19 C22.504,19 22.6,18.844 22.528,18.688 L18.868,10.612 C18.832,10.54 18.724,10.48 18.664,10.48 L18.544,10.48 C18.484,10.48 18.376,10.54 18.34,10.612 L14.656,18.688 C14.584,18.844 14.68,19 14.86,19 L14.86,19 Z M17.092,16.144 L18.556,12.856 L18.616,12.856 L20.092,16.144 L17.092,16.144 Z M23.26,18.172 C23.452,18.352 24.376,19.12 25.84,19.12 C27.4,19.12 28.516,18.1 28.516,16.852 C28.516,15.388 27.328,14.728 25.936,14.164 C24.94,13.756 24.412,13.336 24.412,12.652 C24.412,12.208 24.76,11.572 25.768,11.572 C26.464,11.572 27.304,12.124 27.388,12.172 C27.556,12.28 27.712,12.208 27.808,12.052 C27.904,11.908 28.012,11.74 28.108,11.596 C28.228,11.416 28.132,11.248 28.036,11.188 C27.916,11.104 27.016,10.48 25.816,10.48 C23.908,10.48 23.188,11.764 23.188,12.7 C23.188,14.092 24.148,14.728 25.372,15.244 C26.56,15.736 27.184,16.192 27.184,16.912 C27.184,17.524 26.656,18.028 25.828,18.028 C24.904,18.028 23.98,17.26 23.908,17.2 C23.776,17.092 23.608,17.14 23.5,17.296 C23.392,17.452 23.296,17.632 23.188,17.788 C23.068,17.992 23.152,18.076 23.26,18.172 L23.26,18.172 Z M30.172,18.772 C30.172,18.892 30.268,19 30.4,19 L35.2,19 C35.332,19 35.428,18.892 35.428,18.772 L35.428,18.112 C35.428,17.992 35.332,17.884 35.2,17.884 L31.408,17.884 L31.408,15.304 L34.612,15.304 C34.732,15.304 34.84,15.208 34.84,15.076 L34.84,14.404 C34.84,14.284 34.732,14.176 34.612,14.176 L31.408,14.176 L31.408,11.728 L35.2,11.728 C35.332,11.728 35.428,11.62 35.428,11.5 L35.428,10.828 C35.428,10.708 35.332,10.6 35.2,10.6 L30.4,10.6 C30.268,10.6 30.172,10.708 30.172,10.828 L30.172,18.772 Z M36.772,18.172 C36.964,18.352 37.888,19.12 39.352,19.12 C40.912,19.12 42.028,18.1 42.028,16.852 C42.028,15.388 40.84,14.728 39.448,14.164 C38.452,13.756 37.924,13.336 37.924,12.652 C37.924,12.208 38.272,11.572 39.28,11.572 C39.976,11.572 40.816,12.124 40.9,12.172 C41.068,12.28 41.224,12.208 41.32,12.052 C41.416,11.908 41.524,11.74 41.62,11.596 C41.74,11.416 41.644,11.248 41.548,11.188 C41.428,11.104 40.528,10.48 39.328,10.48 C37.42,10.48 36.7,11.764 36.7,12.7 C36.7,14.092 37.66,14.728 38.884,15.244 C40.072,15.736 40.696,16.192 40.696,16.912 C40.696,17.524 40.168,18.028 39.34,18.028 C38.416,18.028 37.492,17.26 37.42,17.2 C37.288,17.092 37.12,17.14 37.012,17.296 C36.904,17.452 36.808,17.632 36.7,17.788 C36.58,17.992 36.664,18.076 36.772,18.172 L36.772,18.172 Z M45.4,19 L46.156,19 C46.3,19 46.396,18.904 46.432,18.82 C46.672,18.268 46.924,17.728 47.164,17.176 L51.088,17.176 L51.832,18.82 C51.88,18.928 51.964,19 52.108,19 L52.864,19 C53.044,19 53.14,18.844 53.068,18.688 L49.408,10.612 C49.372,10.54 49.264,10.48 49.204,10.48 L49.084,10.48 C49.024,10.48 48.916,10.54 48.88,10.612 L45.196,18.688 C45.124,18.844 45.22,19 45.4,19 L45.4,19 Z M47.632,16.144 L49.096,12.856 L49.156,12.856 L50.632,16.144 L47.632,16.144 Z M54.268,18.772 C54.268,18.892 54.376,19 54.496,19 L55.252,19 C55.384,19 55.48,18.892 55.48,18.772 L55.48,12.928 L55.492,12.928 L60.7,19.12 L61.012,19.12 C61.132,19.12 61.24,19.024 61.24,18.904 L61.24,10.828 C61.24,10.708 61.132,10.6 61.012,10.6 L60.244,10.6 C60.112,10.6 60.016,10.708 60.016,10.828 L60.016,16.504 L60.004,16.504 L54.796,10.48 L54.496,10.48 C54.376,10.48 54.268,10.576 54.268,10.696 L54.268,18.772 Z M63.568,18.772 C63.568,18.892 63.664,19 63.784,19 L66.544,19 C68.86,19 70.756,17.116 70.756,14.788 C70.756,12.484 68.86,10.6 66.544,10.6 L63.784,10.6 C63.664,10.6 63.568,10.708 63.568,10.828 L63.568,18.772 Z M64.792,17.86 L64.792,11.74 L66.376,11.74 C68.14,11.74 69.424,13.024 69.424,14.788 C69.424,16.564 68.14,17.86 66.376,17.86 L64.792,17.86 Z M75.124,18.772 C75.124,18.892 75.22,19 75.352,19 L78.172,19 C79.684,19 80.788,18.028 80.788,16.684 C80.788,15.58 79.924,14.992 79.288,14.728 C79.852,14.404 80.536,13.744 80.536,12.82 C80.536,11.56 79.492,10.6 78.04,10.6 L75.352,10.6 C75.22,10.6 75.124,10.708 75.124,10.828 L75.124,18.772 Z M76.348,14.248 L76.348,11.728 L77.968,11.728 C78.736,11.728 79.204,12.232 79.204,12.964 C79.204,13.684 78.736,14.248 77.968,14.248 L76.348,14.248 Z M76.336,17.896 L76.336,15.328 L77.98,15.328 C78.76,15.328 79.456,15.856 79.456,16.588 C79.456,17.332 78.892,17.896 78.16,17.896 L76.336,17.896 Z M82.588,18.772 C82.588,18.892 82.696,19 82.816,19 L83.608,19 C83.728,19 83.836,18.892 83.836,18.772 L83.836,10.828 C83.836,10.708 83.728,10.6 83.608,10.6 L82.816,10.6 C82.696,10.6 82.588,10.708 82.588,10.828 L82.588,18.772 Z M85.552,14.812 C85.552,17.212 87.46,19.12 89.86,19.12 C92.26,19.12 94.18,17.212 94.18,14.812 C94.18,12.412 92.26,10.48 89.86,10.48 C87.46,10.48 85.552,12.412 85.552,14.812 L85.552,14.812 Z M86.752,14.812 C86.752,13.108 88.156,11.68 89.86,11.68 C91.576,11.68 92.98,13.108 92.98,14.812 C92.98,16.528 91.576,17.92 89.86,17.92 C88.156,17.92 86.752,16.528 86.752,14.812 L86.752,14.812 Z" id="CASES-AND-BIO" sketch:type="MSShapeGroup"></path>
            </g>
        </g>
    </g>
</svg>