<?xml version="1.0" encoding="UTF-8" standalone="no"?>
<svg width="209px" height="25px" viewBox="0 0 209 25" version="1.1" xmlns="http://www.w3.org/2000/svg" xmlns:xlink="http://www.w3.org/1999/xlink" xmlns:sketch="http://www.bohemiancoding.com/sketch/ns">
    <!-- Generator: Sketch 3.2.2 (9983) - http://www.bohemiancoding.com/sketch -->
    <title>seniorval-heading-small</title>
    <desc>Created with Sketch.</desc>
    <defs></defs>
    <g id="Page-2" stroke="none" stroke-width="1" fill="none" fill-rule="evenodd" sketch:type="MSPage">
        <g id="Large" sketch:type="MSArtboardGroup" transform="translate(-158.000000, -613.000000)" fill="#FFFFFF">
            <g id="SV" sketch:type="MSLayerGroup" transform="translate(0.000000, 514.000000)">
                <g id="HEADING" transform="translate(105.000000, 24.000000)" sketch:type="MSShapeGroup">
                    <path d="M53.028,83.34 C53.028,83.712 53.316,84 53.688,84 C54.048,84 54.36,83.712 54.36,83.34 L54.36,76.26 C54.36,75.888 54.048,75.6 53.688,75.6 C53.316,75.6 53.028,75.888 53.028,76.26 L53.028,83.34 Z M58.968,78 C58.5,78 58.056,78.144 57.696,78.372 C57.588,78.144 57.36,78 57.108,78 C56.748,78 56.472,78.288 56.472,78.636 L56.472,80.496 L56.472,83.364 C56.472,83.712 56.748,84 57.108,84 C57.42,84 57.684,83.772 57.744,83.484 C57.768,83.436 57.768,83.4 57.768,83.364 L57.768,80.496 C57.768,79.824 58.296,79.284 58.968,79.284 C59.652,79.284 60.216,79.824 60.216,80.496 L60.216,83.364 C60.216,83.712 60.516,84 60.852,84 C61.2,84 61.476,83.712 61.476,83.364 L61.476,80.496 C61.476,79.14 60.36,78 58.968,78 L58.968,78 Z M63.624,83.172 C64.104,83.556 64.824,83.988 65.76,84 C66.348,84 66.888,83.82 67.32,83.52 C67.752,83.208 68.076,82.716 68.076,82.128 C68.076,81.852 67.992,81.576 67.848,81.336 C67.644,81 67.32,80.772 66.996,80.628 C66.648,80.46 66.276,80.352 65.88,80.28 L65.868,80.28 L65.856,80.268 C65.448,80.196 65.136,80.088 64.98,79.98 C64.896,79.932 64.86,79.884 64.848,79.86 C64.824,79.824 64.824,79.812 64.824,79.764 C64.824,79.704 64.86,79.596 65.016,79.488 C65.172,79.368 65.436,79.272 65.736,79.272 C66.12,79.272 66.456,79.464 66.84,79.716 C67.14,79.92 67.536,79.836 67.728,79.548 C67.908,79.248 67.824,78.852 67.536,78.66 L67.536,78.66 C67.152,78.396 66.564,78 65.736,78 C65.184,78 64.68,78.156 64.26,78.444 C63.864,78.744 63.552,79.212 63.552,79.764 C63.552,80.04 63.624,80.304 63.756,80.52 C63.972,80.844 64.26,81.06 64.584,81.216 C64.896,81.36 65.256,81.456 65.628,81.528 L65.64,81.528 C66.072,81.612 66.432,81.744 66.6,81.864 C66.696,81.924 66.744,81.972 66.756,82.008 C66.78,82.044 66.792,82.068 66.792,82.128 C66.792,82.224 66.744,82.344 66.576,82.488 C66.384,82.608 66.084,82.716 65.76,82.716 C65.292,82.728 64.752,82.452 64.44,82.188 C64.176,81.96 63.756,81.996 63.54,82.284 C63.324,82.548 63.36,82.956 63.624,83.172 L63.624,83.172 Z M70.368,86.256 C70.752,86.256 71.052,85.944 71.052,85.608 L71.052,83.496 C71.484,83.808 72.06,83.988 72.66,83.988 C74.256,83.988 75.564,82.656 75.564,81.012 C75.564,79.368 74.256,78 72.66,78 C72.048,78 71.472,78.204 71.028,78.492 C70.98,78.228 70.704,78 70.368,78 C70.02,78 69.732,78.288 69.732,78.636 L69.732,81.012 L69.732,81.024 L69.732,85.608 C69.732,85.944 70.02,86.256 70.368,86.256 L70.368,86.256 Z M71.52,79.8 C71.82,79.476 72.216,79.308 72.66,79.308 C73.068,79.308 73.476,79.476 73.788,79.8 C74.064,80.112 74.256,80.544 74.256,81.012 C74.256,81.48 74.064,81.936 73.788,82.212 C73.476,82.548 73.068,82.716 72.66,82.716 C72.216,82.716 71.82,82.548 71.52,82.212 C71.208,81.936 71.052,81.48 71.052,81.012 C71.052,80.544 71.208,80.112 71.52,79.8 L71.52,79.8 Z M77.94,78.012 C77.58,78.012 77.292,78.288 77.292,78.672 L77.292,83.352 C77.292,83.712 77.58,84 77.94,84 C78.312,84 78.588,83.712 78.588,83.352 L78.588,78.672 C78.588,78.288 78.312,78.012 77.94,78.012 L77.94,78.012 Z M78.588,76.248 C78.588,75.888 78.312,75.6 77.94,75.6 C77.58,75.6 77.292,75.888 77.292,76.248 L77.292,76.5 C77.292,76.86 77.58,77.16 77.94,77.16 C78.312,77.16 78.588,76.86 78.588,76.5 L78.588,76.248 Z M83.712,78.012 C83.112,78 82.596,78.216 82.2,78.48 C82.116,78.54 82.02,78.636 81.948,78.72 L81.948,78.636 C81.948,78.288 81.648,78.012 81.288,78.012 C80.94,78.012 80.652,78.288 80.652,78.636 L80.652,83.364 C80.652,83.712 80.94,84 81.288,84 C81.648,84 81.948,83.712 81.948,83.364 L81.948,81.084 C82.008,80.916 82.152,80.46 82.44,80.076 C82.584,79.848 82.764,79.644 82.992,79.5 C83.196,79.344 83.436,79.272 83.712,79.272 C84.072,79.272 84.348,78.972 84.348,78.636 C84.348,78.288 84.072,78.012 83.712,78.012 L83.712,78.012 Z M90.696,78.648 C90.696,78.288 90.408,78 90.06,78 C89.748,78 89.508,78.228 89.436,78.528 C88.98,78.204 88.44,78 87.84,78 C87.024,78 86.316,78.348 85.8,78.9 C85.284,79.44 84.984,80.184 84.984,81.012 C84.984,81.828 85.284,82.572 85.8,83.124 C86.316,83.664 87.024,84 87.84,84 C88.44,84 88.98,83.808 89.436,83.484 C89.508,83.772 89.748,84 90.06,84 C90.408,84 90.696,83.712 90.696,83.364 L90.696,81.012 L90.696,81.012 L90.696,78.648 Z M88.956,82.248 C88.668,82.548 88.26,82.716 87.84,82.716 C87.408,82.716 87,82.548 86.724,82.248 C86.436,81.936 86.268,81.504 86.268,81.012 C86.268,80.508 86.436,80.076 86.724,79.776 C87,79.452 87.408,79.284 87.84,79.284 C88.26,79.284 88.668,79.452 88.956,79.776 C89.244,80.076 89.424,80.508 89.424,81.012 C89.424,81.504 89.244,81.936 88.956,82.248 L88.956,82.248 Z M95.076,78 L94.776,78 L94.776,76.26 C94.776,75.888 94.488,75.6 94.116,75.6 C93.744,75.6 93.444,75.888 93.444,76.26 L93.444,78 L93.096,78 C92.724,78 92.436,78.288 92.436,78.66 C92.436,79.02 92.724,79.32 93.096,79.32 L93.444,79.32 L93.444,82.668 C93.444,83.4 94.044,84 94.776,84 C95.148,84 95.436,83.712 95.436,83.34 C95.436,82.968 95.148,82.668 94.776,82.668 L94.776,79.32 L95.076,79.32 C95.436,79.32 95.748,79.02 95.748,78.66 C95.748,78.288 95.436,78 95.076,78 L95.076,78 Z M98.508,78.012 C98.148,78.012 97.86,78.288 97.86,78.672 L97.86,83.352 C97.86,83.712 98.148,84 98.508,84 C98.88,84 99.156,83.712 99.156,83.352 L99.156,78.672 C99.156,78.288 98.88,78.012 98.508,78.012 L98.508,78.012 Z M99.156,76.248 C99.156,75.888 98.88,75.6 98.508,75.6 C98.148,75.6 97.86,75.888 97.86,76.248 L97.86,76.5 C97.86,76.86 98.148,77.16 98.508,77.16 C98.88,77.16 99.156,76.86 99.156,76.5 L99.156,76.248 Z M103.836,84.036 C104.628,84.036 105.348,83.688 105.84,83.124 C106.38,82.596 106.68,81.852 106.68,81.012 C106.68,80.196 106.38,79.488 105.84,78.912 C105.348,78.348 104.628,78 103.836,78 C103.008,78 102.312,78.348 101.772,78.912 C101.256,79.488 100.944,80.196 100.944,81.012 C100.944,81.852 101.256,82.596 101.772,83.124 C102.312,83.688 103.008,84.036 103.836,84.036 L103.836,84.036 Z M102.684,79.764 C102.984,79.5 103.38,79.308 103.836,79.308 C104.256,79.308 104.64,79.5 104.94,79.764 C105.24,80.088 105.408,80.52 105.408,81.012 C105.408,81.528 105.24,81.948 104.94,82.284 C104.64,82.572 104.256,82.728 103.836,82.728 C103.38,82.728 102.984,82.572 102.684,82.284 C102.408,81.948 102.252,81.528 102.252,81.012 C102.252,80.52 102.408,80.088 102.684,79.764 L102.684,79.764 Z M111.216,78 C110.748,78 110.304,78.144 109.944,78.372 C109.836,78.144 109.608,78 109.356,78 C108.996,78 108.72,78.288 108.72,78.636 L108.72,80.496 L108.72,83.364 C108.72,83.712 108.996,84 109.356,84 C109.668,84 109.932,83.772 109.992,83.484 C110.016,83.436 110.016,83.4 110.016,83.364 L110.016,80.496 C110.016,79.824 110.544,79.284 111.216,79.284 C111.9,79.284 112.464,79.824 112.464,80.496 L112.464,83.364 C112.464,83.712 112.764,84 113.1,84 C113.448,84 113.724,83.712 113.724,83.364 L113.724,80.496 C113.724,79.14 112.608,78 111.216,78 L111.216,78 Z M121.152,78.648 C121.152,78.288 120.864,78 120.516,78 C120.204,78 119.964,78.228 119.892,78.528 C119.436,78.204 118.896,78 118.296,78 C117.48,78 116.772,78.348 116.256,78.9 C115.74,79.44 115.44,80.184 115.44,81.012 C115.44,81.828 115.74,82.572 116.256,83.124 C116.772,83.664 117.48,84 118.296,84 C118.896,84 119.436,83.808 119.892,83.484 C119.964,83.772 120.204,84 120.516,84 C120.864,84 121.152,83.712 121.152,83.364 L121.152,81.012 L121.152,81.012 L121.152,78.648 Z M119.412,82.248 C119.124,82.548 118.716,82.716 118.296,82.716 C117.864,82.716 117.456,82.548 117.18,82.248 C116.892,81.936 116.724,81.504 116.724,81.012 C116.724,80.508 116.892,80.076 117.18,79.776 C117.456,79.452 117.864,79.284 118.296,79.284 C118.716,79.284 119.124,79.452 119.412,79.776 C119.7,80.076 119.88,80.508 119.88,81.012 C119.88,81.504 119.7,81.936 119.412,82.248 L119.412,82.248 Z M123.756,76.26 L123.756,83.34 C123.756,83.7 124.056,84 124.416,84 C124.788,84 125.088,83.7 125.088,83.34 L125.088,76.26 C125.088,75.9 124.788,75.6 124.416,75.6 C124.056,75.6 123.756,75.9 123.756,76.26 L123.756,76.26 Z M130.056,83.172 C130.536,83.556 131.256,83.988 132.192,84 C132.78,84 133.32,83.82 133.752,83.52 C134.184,83.208 134.508,82.716 134.508,82.128 C134.508,81.852 134.424,81.576 134.28,81.336 C134.076,81 133.752,80.772 133.428,80.628 C133.08,80.46 132.708,80.352 132.312,80.28 L132.3,80.28 L132.288,80.268 C131.88,80.196 131.568,80.088 131.412,79.98 C131.328,79.932 131.292,79.884 131.28,79.86 C131.256,79.824 131.256,79.812 131.256,79.764 C131.256,79.704 131.292,79.596 131.448,79.488 C131.604,79.368 131.868,79.272 132.168,79.272 C132.552,79.272 132.888,79.464 133.272,79.716 C133.572,79.92 133.968,79.836 134.16,79.548 C134.34,79.248 134.256,78.852 133.968,78.66 L133.968,78.66 C133.584,78.396 132.996,78 132.168,78 C131.616,78 131.112,78.156 130.692,78.444 C130.296,78.744 129.984,79.212 129.984,79.764 C129.984,80.04 130.056,80.304 130.188,80.52 C130.404,80.844 130.692,81.06 131.016,81.216 C131.328,81.36 131.688,81.456 132.06,81.528 L132.072,81.528 C132.504,81.612 132.864,81.744 133.032,81.864 C133.128,81.924 133.176,81.972 133.188,82.008 C133.212,82.044 133.224,82.068 133.224,82.128 C133.224,82.224 133.176,82.344 133.008,82.488 C132.816,82.608 132.516,82.716 132.192,82.716 C131.724,82.728 131.184,82.452 130.872,82.188 C130.608,81.96 130.188,81.996 129.972,82.284 C129.756,82.548 129.792,82.956 130.056,83.172 L130.056,83.172 Z M136.824,78.012 C136.464,78.012 136.176,78.288 136.176,78.672 L136.176,83.352 C136.176,83.712 136.464,84 136.824,84 C137.196,84 137.472,83.712 137.472,83.352 L137.472,78.672 C137.472,78.288 137.196,78.012 136.824,78.012 L136.824,78.012 Z M137.472,76.248 C137.472,75.888 137.196,75.6 136.824,75.6 C136.464,75.6 136.176,75.888 136.176,76.248 L136.176,76.5 C136.176,76.86 136.464,77.16 136.824,77.16 C137.196,77.16 137.472,76.86 137.472,76.5 L137.472,76.248 Z M141.564,78 L141.264,78 L141.264,76.26 C141.264,75.888 140.976,75.6 140.604,75.6 C140.232,75.6 139.932,75.888 139.932,76.26 L139.932,78 L139.584,78 C139.212,78 138.924,78.288 138.924,78.66 C138.924,79.02 139.212,79.32 139.584,79.32 L139.932,79.32 L139.932,82.668 C139.932,83.4 140.532,84 141.264,84 C141.636,84 141.924,83.712 141.924,83.34 C141.924,82.968 141.636,82.668 141.264,82.668 L141.264,79.32 L141.564,79.32 C141.924,79.32 142.236,79.02 142.236,78.66 C142.236,78.288 141.924,78 141.564,78 L141.564,78 Z M146.364,84 C147.216,84 147.924,83.748 148.512,83.208 C148.788,82.956 148.668,82.596 148.512,82.428 C148.356,82.236 147.864,82.2 147.612,82.464 C147.312,82.692 146.796,82.8 146.364,82.764 C145.944,82.728 145.464,82.512 145.212,82.224 C144.996,82.02 144.864,81.708 144.804,81.432 L148.62,81.432 C148.956,81.432 149.208,81.24 149.244,80.952 C149.256,80.928 149.256,80.868 149.256,80.844 L149.256,80.844 L149.256,80.784 C149.16,79.164 147.924,78 146.364,78 C144.72,78 143.448,79.368 143.436,81 C143.448,82.632 144.72,83.988 146.364,84 L146.364,84 Z M146.364,79.14 C147.408,79.224 148.02,79.932 148.14,80.412 L144.744,80.412 C144.84,79.92 145.344,79.188 146.364,79.14 L146.364,79.14 Z M156.84,76.992 C156.852,76.98 156.864,76.968 156.912,76.956 C156.96,76.932 157.068,76.92 157.224,76.92 C157.584,76.92 157.884,76.62 157.884,76.248 C157.884,75.888 157.584,75.588 157.224,75.588 C156.972,75.588 156.744,75.612 156.504,75.684 C156.144,75.792 155.808,76.068 155.64,76.428 C155.46,76.776 155.412,77.16 155.412,77.604 L155.412,77.772 L155.1,77.772 C154.728,77.772 154.428,78.06 154.428,78.432 C154.428,78.792 154.728,79.092 155.1,79.092 L155.412,79.092 L155.412,83.328 C155.412,83.688 155.7,83.988 156.072,83.988 C156.444,83.988 156.732,83.688 156.732,83.328 L156.732,79.092 L157.092,79.092 C157.452,79.092 157.752,78.792 157.752,78.432 C157.752,78.06 157.452,77.772 157.092,77.772 L156.732,77.772 L156.732,77.604 C156.732,77.16 156.828,76.992 156.84,76.992 L156.84,76.992 Z M161.58,84.036 C162.372,84.036 163.092,83.688 163.584,83.124 C164.124,82.596 164.424,81.852 164.424,81.012 C164.424,80.196 164.124,79.488 163.584,78.912 C163.092,78.348 162.372,78 161.58,78 C160.752,78 160.056,78.348 159.516,78.912 C159,79.488 158.688,80.196 158.688,81.012 C158.688,81.852 159,82.596 159.516,83.124 C160.056,83.688 160.752,84.036 161.58,84.036 L161.58,84.036 Z M160.428,79.764 C160.728,79.5 161.124,79.308 161.58,79.308 C162,79.308 162.384,79.5 162.684,79.764 C162.984,80.088 163.152,80.52 163.152,81.012 C163.152,81.528 162.984,81.948 162.684,82.284 C162.384,82.572 162,82.728 161.58,82.728 C161.124,82.728 160.728,82.572 160.428,82.284 C160.152,81.948 159.996,81.528 159.996,81.012 C159.996,80.52 160.152,80.088 160.428,79.764 L160.428,79.764 Z M169.284,78.012 C168.684,78 168.168,78.216 167.772,78.48 C167.688,78.54 167.592,78.636 167.52,78.72 L167.52,78.636 C167.52,78.288 167.22,78.012 166.86,78.012 C166.512,78.012 166.224,78.288 166.224,78.636 L166.224,83.364 C166.224,83.712 166.512,84 166.86,84 C167.22,84 167.52,83.712 167.52,83.364 L167.52,81.084 C167.58,80.916 167.724,80.46 168.012,80.076 C168.156,79.848 168.336,79.644 168.564,79.5 C168.768,79.344 169.008,79.272 169.284,79.272 C169.644,79.272 169.92,78.972 169.92,78.636 C169.92,78.288 169.644,78.012 169.284,78.012 L169.284,78.012 Z M174.888,83.172 C175.368,83.556 176.088,83.988 177.024,84 C177.612,84 178.152,83.82 178.584,83.52 C179.016,83.208 179.34,82.716 179.34,82.128 C179.34,81.852 179.256,81.576 179.112,81.336 C178.908,81 178.584,80.772 178.26,80.628 C177.912,80.46 177.54,80.352 177.144,80.28 L177.132,80.28 L177.12,80.268 C176.712,80.196 176.4,80.088 176.244,79.98 C176.16,79.932 176.124,79.884 176.112,79.86 C176.088,79.824 176.088,79.812 176.088,79.764 C176.088,79.704 176.124,79.596 176.28,79.488 C176.436,79.368 176.7,79.272 177,79.272 C177.384,79.272 177.72,79.464 178.104,79.716 C178.404,79.92 178.8,79.836 178.992,79.548 C179.172,79.248 179.088,78.852 178.8,78.66 L178.8,78.66 C178.416,78.396 177.828,78 177,78 C176.448,78 175.944,78.156 175.524,78.444 C175.128,78.744 174.816,79.212 174.816,79.764 C174.816,80.04 174.888,80.304 175.02,80.52 C175.236,80.844 175.524,81.06 175.848,81.216 C176.16,81.36 176.52,81.456 176.892,81.528 L176.904,81.528 C177.336,81.612 177.696,81.744 177.864,81.864 C177.96,81.924 178.008,81.972 178.02,82.008 C178.044,82.044 178.056,82.068 178.056,82.128 C178.056,82.224 178.008,82.344 177.84,82.488 C177.648,82.608 177.348,82.716 177.024,82.716 C176.556,82.728 176.016,82.452 175.704,82.188 C175.44,81.96 175.02,81.996 174.804,82.284 C174.588,82.548 174.624,82.956 174.888,83.172 L174.888,83.172 Z M183.504,84 C184.356,84 185.064,83.748 185.652,83.208 C185.928,82.956 185.808,82.596 185.652,82.428 C185.496,82.236 185.004,82.2 184.752,82.464 C184.452,82.692 183.936,82.8 183.504,82.764 C183.084,82.728 182.604,82.512 182.352,82.224 C182.136,82.02 182.004,81.708 181.944,81.432 L185.76,81.432 C186.096,81.432 186.348,81.24 186.384,80.952 C186.396,80.928 186.396,80.868 186.396,80.844 L186.396,80.844 L186.396,80.784 C186.3,79.164 185.064,78 183.504,78 C181.86,78 180.588,79.368 180.576,81 C180.588,82.632 181.86,83.988 183.504,84 L183.504,84 Z M183.504,79.14 C184.548,79.224 185.16,79.932 185.28,80.412 L181.884,80.412 C181.98,79.92 182.484,79.188 183.504,79.14 L183.504,79.14 Z M190.8,78 C190.332,78 189.888,78.144 189.528,78.372 C189.42,78.144 189.192,78 188.94,78 C188.58,78 188.304,78.288 188.304,78.636 L188.304,80.496 L188.304,83.364 C188.304,83.712 188.58,84 188.94,84 C189.252,84 189.516,83.772 189.576,83.484 C189.6,83.436 189.6,83.4 189.6,83.364 L189.6,80.496 C189.6,79.824 190.128,79.284 190.8,79.284 C191.484,79.284 192.048,79.824 192.048,80.496 L192.048,83.364 C192.048,83.712 192.348,84 192.684,84 C193.032,84 193.308,83.712 193.308,83.364 L193.308,80.496 C193.308,79.14 192.192,78 190.8,78 L190.8,78 Z M196.32,78.012 C195.96,78.012 195.672,78.288 195.672,78.672 L195.672,83.352 C195.672,83.712 195.96,84 196.32,84 C196.692,84 196.968,83.712 196.968,83.352 L196.968,78.672 C196.968,78.288 196.692,78.012 196.32,78.012 L196.32,78.012 Z M196.968,76.248 C196.968,75.888 196.692,75.6 196.32,75.6 C195.96,75.6 195.672,75.888 195.672,76.248 L195.672,76.5 C195.672,76.86 195.96,77.16 196.32,77.16 C196.692,77.16 196.968,76.86 196.968,76.5 L196.968,76.248 Z M201.648,84.036 C202.44,84.036 203.16,83.688 203.652,83.124 C204.192,82.596 204.492,81.852 204.492,81.012 C204.492,80.196 204.192,79.488 203.652,78.912 C203.16,78.348 202.44,78 201.648,78 C200.82,78 200.124,78.348 199.584,78.912 C199.068,79.488 198.756,80.196 198.756,81.012 C198.756,81.852 199.068,82.596 199.584,83.124 C200.124,83.688 200.82,84.036 201.648,84.036 L201.648,84.036 Z M200.496,79.764 C200.796,79.5 201.192,79.308 201.648,79.308 C202.068,79.308 202.452,79.5 202.752,79.764 C203.052,80.088 203.22,80.52 203.22,81.012 C203.22,81.528 203.052,81.948 202.752,82.284 C202.452,82.572 202.068,82.728 201.648,82.728 C201.192,82.728 200.796,82.572 200.496,82.284 C200.22,81.948 200.064,81.528 200.064,81.012 C200.064,80.52 200.22,80.088 200.496,79.764 L200.496,79.764 Z M209.352,78.012 C208.752,78 208.236,78.216 207.84,78.48 C207.756,78.54 207.66,78.636 207.588,78.72 L207.588,78.636 C207.588,78.288 207.288,78.012 206.928,78.012 C206.58,78.012 206.292,78.288 206.292,78.636 L206.292,83.364 C206.292,83.712 206.58,84 206.928,84 C207.288,84 207.588,83.712 207.588,83.364 L207.588,81.084 C207.648,80.916 207.792,80.46 208.08,80.076 C208.224,79.848 208.404,79.644 208.632,79.5 C208.836,79.344 209.076,79.272 209.352,79.272 C209.712,79.272 209.988,78.972 209.988,78.636 C209.988,78.288 209.712,78.012 209.352,78.012 L209.352,78.012 Z M211.356,83.172 C211.836,83.556 212.556,83.988 213.492,84 C214.08,84 214.62,83.82 215.052,83.52 C215.484,83.208 215.808,82.716 215.808,82.128 C215.808,81.852 215.724,81.576 215.58,81.336 C215.376,81 215.052,80.772 214.728,80.628 C214.38,80.46 214.008,80.352 213.612,80.28 L213.6,80.28 L213.588,80.268 C213.18,80.196 212.868,80.088 212.712,79.98 C212.628,79.932 212.592,79.884 212.58,79.86 C212.556,79.824 212.556,79.812 212.556,79.764 C212.556,79.704 212.592,79.596 212.748,79.488 C212.904,79.368 213.168,79.272 213.468,79.272 C213.852,79.272 214.188,79.464 214.572,79.716 C214.872,79.92 215.268,79.836 215.46,79.548 C215.64,79.248 215.556,78.852 215.268,78.66 L215.268,78.66 C214.884,78.396 214.296,78 213.468,78 C212.916,78 212.412,78.156 211.992,78.444 C211.596,78.744 211.284,79.212 211.284,79.764 C211.284,80.04 211.356,80.304 211.488,80.52 C211.704,80.844 211.992,81.06 212.316,81.216 C212.628,81.36 212.988,81.456 213.36,81.528 L213.372,81.528 C213.804,81.612 214.164,81.744 214.332,81.864 C214.428,81.924 214.476,81.972 214.488,82.008 C214.512,82.044 214.524,82.068 214.524,82.128 C214.524,82.224 214.476,82.344 214.308,82.488 C214.116,82.608 213.816,82.716 213.492,82.716 C213.024,82.728 212.484,82.452 212.172,82.188 C211.908,81.96 211.488,81.996 211.272,82.284 C211.056,82.548 211.092,82.956 211.356,83.172 L211.356,83.172 Z M221.148,76.26 L221.148,83.34 C221.148,83.7 221.448,84 221.808,84 C222.18,84 222.48,83.7 222.48,83.34 L222.48,76.26 C222.48,75.9 222.18,75.6 221.808,75.6 C221.448,75.6 221.148,75.9 221.148,76.26 L221.148,76.26 Z M226.668,84.036 C227.46,84.036 228.18,83.688 228.672,83.124 C229.212,82.596 229.512,81.852 229.512,81.012 C229.512,80.196 229.212,79.488 228.672,78.912 C228.18,78.348 227.46,78 226.668,78 C225.84,78 225.144,78.348 224.604,78.912 C224.088,79.488 223.776,80.196 223.776,81.012 C223.776,81.852 224.088,82.596 224.604,83.124 C225.144,83.688 225.84,84.036 226.668,84.036 L226.668,84.036 Z M225.516,79.764 C225.816,79.5 226.212,79.308 226.668,79.308 C227.088,79.308 227.472,79.5 227.772,79.764 C228.072,80.088 228.24,80.52 228.24,81.012 C228.24,81.528 228.072,81.948 227.772,82.284 C227.472,82.572 227.088,82.728 226.668,82.728 C226.212,82.728 225.816,82.572 225.516,82.284 C225.24,81.948 225.084,81.528 225.084,81.012 C225.084,80.52 225.24,80.088 225.516,79.764 L225.516,79.764 Z M234.168,84.036 C234.96,84.036 235.68,83.688 236.172,83.124 C236.712,82.596 237.012,81.852 237.012,81.012 C237.012,80.196 236.712,79.488 236.172,78.912 C235.68,78.348 234.96,78 234.168,78 C233.34,78 232.644,78.348 232.104,78.912 C231.588,79.488 231.276,80.196 231.276,81.012 C231.276,81.852 231.588,82.596 232.104,83.124 C232.644,83.688 233.34,84.036 234.168,84.036 L234.168,84.036 Z M233.016,79.764 C233.316,79.5 233.712,79.308 234.168,79.308 C234.588,79.308 234.972,79.5 235.272,79.764 C235.572,80.088 235.74,80.52 235.74,81.012 C235.74,81.528 235.572,81.948 235.272,82.284 C234.972,82.572 234.588,82.728 234.168,82.728 C233.712,82.728 233.316,82.572 233.016,82.284 C232.74,81.948 232.584,81.528 232.584,81.012 C232.584,80.52 232.74,80.088 233.016,79.764 L233.016,79.764 Z M239.712,84 C240.084,84 240.384,83.7 240.384,83.34 L240.384,82.284 L241.044,81.624 L242.808,83.76 C242.928,83.916 243.12,84 243.312,84 C243.456,84 243.612,83.952 243.732,83.844 C244.02,83.616 244.056,83.196 243.828,82.908 L241.98,80.688 L243.78,78.888 C244.044,78.636 244.044,78.216 243.78,77.952 C243.528,77.7 243.096,77.7 242.844,77.952 L240.384,80.412 L240.384,76.26 C240.384,75.9 240.084,75.6 239.712,75.6 C239.34,75.6 239.052,75.9 239.052,76.26 L239.052,83.34 C239.052,83.7 239.34,84 239.712,84 L239.712,84 Z M246.432,78.012 C246.072,78.012 245.784,78.288 245.784,78.672 L245.784,83.352 C245.784,83.712 246.072,84 246.432,84 C246.804,84 247.08,83.712 247.08,83.352 L247.08,78.672 C247.08,78.288 246.804,78.012 246.432,78.012 L246.432,78.012 Z M247.08,76.248 C247.08,75.888 246.804,75.6 246.432,75.6 C246.072,75.6 245.784,75.888 245.784,76.248 L245.784,76.5 C245.784,76.86 246.072,77.16 246.432,77.16 C246.804,77.16 247.08,76.86 247.08,76.5 L247.08,76.248 Z M251.64,78 C251.172,78 250.728,78.144 250.368,78.372 C250.26,78.144 250.032,78 249.78,78 C249.42,78 249.144,78.288 249.144,78.636 L249.144,80.496 L249.144,83.364 C249.144,83.712 249.42,84 249.78,84 C250.092,84 250.356,83.772 250.416,83.484 C250.44,83.436 250.44,83.4 250.44,83.364 L250.44,80.496 C250.44,79.824 250.968,79.284 251.64,79.284 C252.324,79.284 252.888,79.824 252.888,80.496 L252.888,83.364 C252.888,83.712 253.188,84 253.524,84 C253.872,84 254.148,83.712 254.148,83.364 L254.148,80.496 C254.148,79.14 253.032,78 251.64,78 L251.64,78 Z M261.864,81.024 L261.864,78.636 C261.864,78.288 261.588,78 261.228,78 C260.916,78 260.652,78.216 260.592,78.504 C260.16,78.192 259.608,78 258.984,78 C258.192,78 257.46,78.348 256.944,78.888 C256.428,79.452 256.104,80.196 256.104,81.024 C256.104,81.864 256.428,82.608 256.944,83.136 C257.46,83.7 258.192,84.048 258.984,84.048 C259.572,84.048 260.124,83.868 260.556,83.568 C260.4,84.3 259.764,84.852 258.984,84.852 C258.732,84.852 258.504,84.792 258.3,84.684 C257.964,84.54 257.592,84.66 257.436,84.984 C257.268,85.308 257.412,85.704 257.724,85.848 C258.096,86.04 258.54,86.148 258.984,86.148 C260.58,86.148 261.864,84.84 261.864,83.268 L261.864,81.036 L261.864,81.024 L261.864,81.024 Z M260.124,82.26 C259.812,82.584 259.44,82.752 258.984,82.752 C258.564,82.752 258.168,82.584 257.88,82.26 C257.592,81.984 257.4,81.528 257.4,81.024 C257.4,80.544 257.592,80.088 257.88,79.8 C258.168,79.464 258.564,79.284 258.984,79.284 C259.44,79.284 259.812,79.464 260.124,79.8 C260.388,80.088 260.58,80.544 260.58,81.024 C260.58,81.528 260.388,81.984 260.124,82.26 L260.124,82.26 Z M99.342,89.992 C99.354,89.98 99.366,89.968 99.414,89.956 C99.462,89.932 99.57,89.92 99.726,89.92 C100.086,89.92 100.386,89.62 100.386,89.248 C100.386,88.888 100.086,88.588 99.726,88.588 C99.474,88.588 99.246,88.612 99.006,88.684 C98.646,88.792 98.31,89.068 98.142,89.428 C97.962,89.776 97.914,90.16 97.914,90.604 L97.914,90.772 L97.602,90.772 C97.23,90.772 96.93,91.06 96.93,91.432 C96.93,91.792 97.23,92.092 97.602,92.092 L97.914,92.092 L97.914,96.328 C97.914,96.688 98.202,96.988 98.574,96.988 C98.946,96.988 99.234,96.688 99.234,96.328 L99.234,92.092 L99.594,92.092 C99.954,92.092 100.254,91.792 100.254,91.432 C100.254,91.06 99.954,90.772 99.594,90.772 L99.234,90.772 L99.234,90.604 C99.234,90.16 99.33,89.992 99.342,89.992 L99.342,89.992 Z M104.082,97.036 C104.874,97.036 105.594,96.688 106.086,96.124 C106.626,95.596 106.926,94.852 106.926,94.012 C106.926,93.196 106.626,92.488 106.086,91.912 C105.594,91.348 104.874,91 104.082,91 C103.254,91 102.558,91.348 102.018,91.912 C101.502,92.488 101.19,93.196 101.19,94.012 C101.19,94.852 101.502,95.596 102.018,96.124 C102.558,96.688 103.254,97.036 104.082,97.036 L104.082,97.036 Z M102.93,92.764 C103.23,92.5 103.626,92.308 104.082,92.308 C104.502,92.308 104.886,92.5 105.186,92.764 C105.486,93.088 105.654,93.52 105.654,94.012 C105.654,94.528 105.486,94.948 105.186,95.284 C104.886,95.572 104.502,95.728 104.082,95.728 C103.626,95.728 103.23,95.572 102.93,95.284 C102.654,94.948 102.498,94.528 102.498,94.012 C102.498,93.52 102.654,93.088 102.93,92.764 L102.93,92.764 Z M111.786,91.012 C111.186,91 110.67,91.216 110.274,91.48 C110.19,91.54 110.094,91.636 110.022,91.72 L110.022,91.636 C110.022,91.288 109.722,91.012 109.362,91.012 C109.014,91.012 108.726,91.288 108.726,91.636 L108.726,96.364 C108.726,96.712 109.014,97 109.362,97 C109.722,97 110.022,96.712 110.022,96.364 L110.022,94.084 C110.082,93.916 110.226,93.46 110.514,93.076 C110.658,92.848 110.838,92.644 111.066,92.5 C111.27,92.344 111.51,92.272 111.786,92.272 C112.146,92.272 112.422,91.972 112.422,91.636 C112.422,91.288 112.146,91.012 111.786,91.012 L111.786,91.012 Z M120.222,97 C120.942,97 121.614,96.736 122.13,96.364 C122.406,96.124 122.454,95.74 122.262,95.476 C122.022,95.188 121.626,95.14 121.362,95.344 C121.05,95.572 120.654,95.728 120.222,95.728 C119.25,95.728 118.446,94.936 118.446,94.012 C118.446,93.088 119.25,92.284 120.222,92.284 C120.666,92.284 121.05,92.44 121.362,92.668 C121.638,92.884 122.022,92.836 122.262,92.548 C122.454,92.284 122.406,91.876 122.13,91.66 C121.614,91.264 120.942,91 120.222,91 C118.566,91.012 117.174,92.344 117.174,94.012 C117.174,95.656 118.566,97 120.222,97 L120.222,97 Z M129.522,91.648 C129.522,91.288 129.234,91 128.886,91 C128.574,91 128.334,91.228 128.262,91.528 C127.806,91.204 127.266,91 126.666,91 C125.85,91 125.142,91.348 124.626,91.9 C124.11,92.44 123.81,93.184 123.81,94.012 C123.81,94.828 124.11,95.572 124.626,96.124 C125.142,96.664 125.85,97 126.666,97 C127.266,97 127.806,96.808 128.262,96.484 C128.334,96.772 128.574,97 128.886,97 C129.234,97 129.522,96.712 129.522,96.364 L129.522,94.012 L129.522,94.012 L129.522,91.648 Z M127.782,95.248 C127.494,95.548 127.086,95.716 126.666,95.716 C126.234,95.716 125.826,95.548 125.55,95.248 C125.262,94.936 125.094,94.504 125.094,94.012 C125.094,93.508 125.262,93.076 125.55,92.776 C125.826,92.452 126.234,92.284 126.666,92.284 C127.086,92.284 127.494,92.452 127.782,92.776 C128.07,93.076 128.25,93.508 128.25,94.012 C128.25,94.504 128.07,94.936 127.782,95.248 L127.782,95.248 Z M134.934,91.012 C134.334,91 133.818,91.216 133.422,91.48 C133.338,91.54 133.242,91.636 133.17,91.72 L133.17,91.636 C133.17,91.288 132.87,91.012 132.51,91.012 C132.162,91.012 131.874,91.288 131.874,91.636 L131.874,96.364 C131.874,96.712 132.162,97 132.51,97 C132.87,97 133.17,96.712 133.17,96.364 L133.17,94.084 C133.23,93.916 133.374,93.46 133.662,93.076 C133.806,92.848 133.986,92.644 134.214,92.5 C134.418,92.344 134.658,92.272 134.934,92.272 C135.294,92.272 135.57,91.972 135.57,91.636 C135.57,91.288 135.294,91.012 134.934,91.012 L134.934,91.012 Z M139.05,97 C139.902,97 140.61,96.748 141.198,96.208 C141.474,95.956 141.354,95.596 141.198,95.428 C141.042,95.236 140.55,95.2 140.298,95.464 C139.998,95.692 139.482,95.8 139.05,95.764 C138.63,95.728 138.15,95.512 137.898,95.224 C137.682,95.02 137.55,94.708 137.49,94.432 L141.306,94.432 C141.642,94.432 141.894,94.24 141.93,93.952 C141.942,93.928 141.942,93.868 141.942,93.844 L141.942,93.844 L141.942,93.784 C141.846,92.164 140.61,91 139.05,91 C137.406,91 136.134,92.368 136.122,94 C136.134,95.632 137.406,96.988 139.05,97 L139.05,97 Z M139.05,92.14 C140.094,92.224 140.706,92.932 140.826,93.412 L137.43,93.412 C137.526,92.92 138.03,92.188 139.05,92.14 L139.05,92.14 Z M152.526,91.648 C152.526,91.288 152.238,91 151.89,91 C151.578,91 151.338,91.228 151.266,91.528 C150.81,91.204 150.27,91 149.67,91 C148.854,91 148.146,91.348 147.63,91.9 C147.114,92.44 146.814,93.184 146.814,94.012 C146.814,94.828 147.114,95.572 147.63,96.124 C148.146,96.664 148.854,97 149.67,97 C150.27,97 150.81,96.808 151.266,96.484 C151.338,96.772 151.578,97 151.89,97 C152.238,97 152.526,96.712 152.526,96.364 L152.526,94.012 L152.526,94.012 L152.526,91.648 Z M150.786,95.248 C150.498,95.548 150.09,95.716 149.67,95.716 C149.238,95.716 148.83,95.548 148.554,95.248 C148.266,94.936 148.098,94.504 148.098,94.012 C148.098,93.508 148.266,93.076 148.554,92.776 C148.83,92.452 149.238,92.284 149.67,92.284 C150.09,92.284 150.498,92.452 150.786,92.776 C151.074,93.076 151.254,93.508 151.254,94.012 C151.254,94.504 151.074,94.936 150.786,95.248 L150.786,95.248 Z M157.254,91 C156.786,91 156.342,91.144 155.982,91.372 C155.874,91.144 155.646,91 155.394,91 C155.034,91 154.758,91.288 154.758,91.636 L154.758,93.496 L154.758,96.364 C154.758,96.712 155.034,97 155.394,97 C155.706,97 155.97,96.772 156.03,96.484 C156.054,96.436 156.054,96.4 156.054,96.364 L156.054,93.496 C156.054,92.824 156.582,92.284 157.254,92.284 C157.938,92.284 158.502,92.824 158.502,93.496 L158.502,96.364 C158.502,96.712 158.802,97 159.138,97 C159.486,97 159.762,96.712 159.762,96.364 L159.762,93.496 C159.762,92.14 158.646,91 157.254,91 L157.254,91 Z M167.31,94.012 L167.31,94 L167.31,89.248 C167.31,88.9 167.022,88.6 166.662,88.6 C166.29,88.6 166.002,88.9 166.002,89.248 L166.002,91.504 C165.558,91.192 164.982,91 164.394,91 C162.774,91 161.478,92.368 161.478,94.012 C161.478,95.632 162.774,97 164.394,97 C164.994,97 165.57,96.796 166.026,96.484 C166.086,96.772 166.338,97 166.662,97 C167.022,97 167.31,96.7 167.31,96.352 L167.31,94.012 Z M165.522,92.8 C165.822,93.1 166.002,93.532 166.002,94.012 C166.002,94.468 165.822,94.9 165.522,95.2 C165.222,95.512 164.838,95.692 164.394,95.692 C163.962,95.692 163.566,95.512 163.266,95.2 C162.966,94.9 162.786,94.468 162.786,94.012 C162.786,93.532 162.966,93.1 163.266,92.8 C163.566,92.488 163.962,92.308 164.394,92.308 C164.838,92.308 165.222,92.488 165.522,92.8 L165.522,92.8 Z M174.726,93.628 C174.738,92.92 175.302,92.344 176.01,92.332 C176.73,92.344 177.306,92.92 177.306,93.628 L177.306,96.34 C177.306,96.712 177.594,97 177.966,97 C178.338,97 178.626,96.712 178.626,96.34 L178.626,93.628 C178.626,92.188 177.462,91 176.01,91 C175.542,91 175.11,91.144 174.726,91.348 L174.726,89.26 C174.726,88.888 174.426,88.6 174.054,88.6 C173.694,88.6 173.394,88.888 173.394,89.26 L173.394,96.34 C173.394,96.4 173.406,96.46 173.418,96.508 C173.502,96.784 173.754,97 174.054,97 C174.426,97 174.726,96.712 174.726,96.34 L174.726,93.628 Z M183.366,97.036 C184.158,97.036 184.878,96.688 185.37,96.124 C185.91,95.596 186.21,94.852 186.21,94.012 C186.21,93.196 185.91,92.488 185.37,91.912 C184.878,91.348 184.158,91 183.366,91 C182.538,91 181.842,91.348 181.302,91.912 C180.786,92.488 180.474,93.196 180.474,94.012 C180.474,94.852 180.786,95.596 181.302,96.124 C181.842,96.688 182.538,97.036 183.366,97.036 L183.366,97.036 Z M182.214,92.764 C182.514,92.5 182.91,92.308 183.366,92.308 C183.786,92.308 184.17,92.5 184.47,92.764 C184.77,93.088 184.938,93.52 184.938,94.012 C184.938,94.528 184.77,94.948 184.47,95.284 C184.17,95.572 183.786,95.728 183.366,95.728 C182.91,95.728 182.514,95.572 182.214,95.284 C181.938,94.948 181.782,94.528 181.782,94.012 C181.782,93.52 181.938,93.088 182.214,92.764 L182.214,92.764 Z M192.966,94.504 L192.966,91.636 C192.966,91.3 192.654,91 192.318,91 C191.958,91 191.694,91.3 191.694,91.636 L191.694,94.504 C191.682,95.188 191.13,95.728 190.434,95.728 C189.75,95.728 189.21,95.188 189.21,94.504 L189.21,91.636 C189.21,91.3 188.934,91 188.574,91 C188.226,91 187.938,91.3 187.938,91.636 L187.938,94.504 C187.938,95.872 189.066,97 190.434,97 C191.814,97 192.966,95.872 192.966,94.504 L192.966,94.504 Z M195.21,96.172 C195.69,96.556 196.41,96.988 197.346,97 C197.934,97 198.474,96.82 198.906,96.52 C199.338,96.208 199.662,95.716 199.662,95.128 C199.662,94.852 199.578,94.576 199.434,94.336 C199.23,94 198.906,93.772 198.582,93.628 C198.234,93.46 197.862,93.352 197.466,93.28 L197.454,93.28 L197.442,93.268 C197.034,93.196 196.722,93.088 196.566,92.98 C196.482,92.932 196.446,92.884 196.434,92.86 C196.41,92.824 196.41,92.812 196.41,92.764 C196.41,92.704 196.446,92.596 196.602,92.488 C196.758,92.368 197.022,92.272 197.322,92.272 C197.706,92.272 198.042,92.464 198.426,92.716 C198.726,92.92 199.122,92.836 199.314,92.548 C199.494,92.248 199.41,91.852 199.122,91.66 L199.122,91.66 C198.738,91.396 198.15,91 197.322,91 C196.77,91 196.266,91.156 195.846,91.444 C195.45,91.744 195.138,92.212 195.138,92.764 C195.138,93.04 195.21,93.304 195.342,93.52 C195.558,93.844 195.846,94.06 196.17,94.216 C196.482,94.36 196.842,94.456 197.214,94.528 L197.226,94.528 C197.658,94.612 198.018,94.744 198.186,94.864 C198.282,94.924 198.33,94.972 198.342,95.008 C198.366,95.044 198.378,95.068 198.378,95.128 C198.378,95.224 198.33,95.344 198.162,95.488 C197.97,95.608 197.67,95.716 197.346,95.716 C196.878,95.728 196.338,95.452 196.026,95.188 C195.762,94.96 195.342,94.996 195.126,95.284 C194.91,95.548 194.946,95.956 195.21,96.172 L195.21,96.172 Z M201.978,91.012 C201.618,91.012 201.33,91.288 201.33,91.672 L201.33,96.352 C201.33,96.712 201.618,97 201.978,97 C202.35,97 202.626,96.712 202.626,96.352 L202.626,91.672 C202.626,91.288 202.35,91.012 201.978,91.012 L201.978,91.012 Z M202.626,89.248 C202.626,88.888 202.35,88.6 201.978,88.6 C201.618,88.6 201.33,88.888 201.33,89.248 L201.33,89.5 C201.33,89.86 201.618,90.16 201.978,90.16 C202.35,90.16 202.626,89.86 202.626,89.5 L202.626,89.248 Z M207.186,91 C206.718,91 206.274,91.144 205.914,91.372 C205.806,91.144 205.578,91 205.326,91 C204.966,91 204.69,91.288 204.69,91.636 L204.69,93.496 L204.69,96.364 C204.69,96.712 204.966,97 205.326,97 C205.638,97 205.902,96.772 205.962,96.484 C205.986,96.436 205.986,96.4 205.986,96.364 L205.986,93.496 C205.986,92.824 206.514,92.284 207.186,92.284 C207.87,92.284 208.434,92.824 208.434,93.496 L208.434,96.364 C208.434,96.712 208.734,97 209.07,97 C209.418,97 209.694,96.712 209.694,96.364 L209.694,93.496 C209.694,92.14 208.578,91 207.186,91 L207.186,91 Z M217.41,94.024 L217.41,91.636 C217.41,91.288 217.134,91 216.774,91 C216.462,91 216.198,91.216 216.138,91.504 C215.706,91.192 215.154,91 214.53,91 C213.738,91 213.006,91.348 212.49,91.888 C211.974,92.452 211.65,93.196 211.65,94.024 C211.65,94.864 211.974,95.608 212.49,96.136 C213.006,96.7 213.738,97.048 214.53,97.048 C215.118,97.048 215.67,96.868 216.102,96.568 C215.946,97.3 215.31,97.852 214.53,97.852 C214.278,97.852 214.05,97.792 213.846,97.684 C213.51,97.54 213.138,97.66 212.982,97.984 C212.814,98.308 212.958,98.704 213.27,98.848 C213.642,99.04 214.086,99.148 214.53,99.148 C216.126,99.148 217.41,97.84 217.41,96.268 L217.41,94.036 L217.41,94.024 L217.41,94.024 Z M215.67,95.26 C215.358,95.584 214.986,95.752 214.53,95.752 C214.11,95.752 213.714,95.584 213.426,95.26 C213.138,94.984 212.946,94.528 212.946,94.024 C212.946,93.544 213.138,93.088 213.426,92.8 C213.714,92.464 214.11,92.284 214.53,92.284 C214.986,92.284 215.358,92.464 215.67,92.8 C215.934,93.088 216.126,93.544 216.126,94.024 C216.126,94.528 215.934,94.984 215.67,95.26 L215.67,95.26 Z" id="Inspirational-site-f"></path>
                </g>
            </g>
        </g>
    </g>
</svg>