<?xml version="1.0" encoding="UTF-8" standalone="no"?>
<svg width="262px" height="54px" viewBox="0 0 262 54" version="1.1" xmlns="http://www.w3.org/2000/svg" xmlns:xlink="http://www.w3.org/1999/xlink" xmlns:sketch="http://www.bohemiancoding.com/sketch/ns">
    <!-- Generator: Sketch 3.2.2 (9983) - http://www.bohemiancoding.com/sketch -->
    <title>seniorval-heading-large</title>
    <desc>Created with Sketch.</desc>
    <defs></defs>
    <g id="Page-2" stroke="none" stroke-width="1" fill="none" fill-rule="evenodd" sketch:type="MSPage">
        <g id="Large" sketch:type="MSArtboardGroup" transform="translate(-128.000000, -549.000000)">
            <g id="SV" sketch:type="MSLayerGroup" transform="translate(0.000000, 514.000000)">
                <g id="HEADING" transform="translate(105.000000, 24.000000)" sketch:type="MSShapeGroup">
                    <g id="Logga-inv" transform="translate(23.000000, 11.000000)">
                        <path d="M235.052656,18.849 C234.741978,18.849 234.428437,18.7555625 234.157847,18.5629375 L213.19212,3.781125 L192.227825,18.5629375 C191.523432,19.0603125 190.54988,18.8906875 190.054514,18.182 C189.559148,17.47475 189.729519,16.4986875 190.435344,16.0013125 L212.29588,0.587 C212.832765,0.2075 213.551475,0.2075 214.088361,0.587 L235.948896,16.0013125 C236.65329,16.4986875 236.823661,17.47475 236.328295,18.182 C236.024776,18.616125 235.543727,18.849 235.052656,18.849" id="Fill-1" fill="#E0C653"></path>
                        <path d="M205.349301,0.587 L198.994011,0.587 C198.703377,0.587 198.468579,0.82275 198.468579,1.1145625 L198.468579,7.94125 L205.874732,2.7188125 L205.874732,1.1145625 C205.874732,0.82275 205.639934,0.587 205.349301,0.587" id="Fill-3" fill="#E0C653"></path>
                        <path d="M26.1169617,33.037125 C23.6701967,31.3825625 20.3715738,30.1836875 16.0378361,29.3758125 L15.8202186,29.35425 C12.4414208,28.69875 9.91448087,27.8060625 8.30955191,26.700625 C6.74184699,25.6225 6.08469945,24.576 6.04318033,23.1255625 C6.04318033,21.6046875 6.91937705,20.114 8.48994536,18.941 C10.2996066,17.6429375 12.8508852,16.896875 15.4852022,16.896875 C19.3765464,16.896875 22.4546885,18.9194375 25.1376831,20.68325 C25.5399891,20.965 26.0153115,21.1159375 26.5092459,21.1159375 C27.3439235,21.1159375 28.122765,20.6789375 28.5236393,20.0033125 C29.2538033,18.85475 28.9688962,17.4014375 27.8306995,16.6021875 C24.8799781,14.663 20.8397377,12.0065 15.4852022,12.0065 C11.7814098,12.0065 8.28091803,13.0745625 5.62798907,15.0123125 C2.75457923,17.109625 1.17255738,19.9918125 1.17255738,23.1255625 C1.17255738,26.188875 2.75457923,28.9115 5.60937705,30.777375 C7.87145355,32.30975 10.9395738,33.4180625 14.9898361,34.169875 L15.2045902,34.19 C18.7437377,34.8785625 21.5684699,35.87475 23.3652459,37.062125 C25.1419781,38.281125 25.900776,39.528875 25.900776,41.2323125 C25.900776,42.94725 24.9358142,44.588875 23.1691038,45.8625 C21.2363169,47.291375 18.4745792,48.11075 15.579694,48.11075 L15.4451148,48.1121875 C10.0519235,48.1121875 5.29010929,44.5903125 4.00444809,43.548125 C3.56634973,43.1585625 3.00512568,42.9429375 2.41956284,42.9429375 C1.68510383,42.9429375 0.993595628,43.2793125 0.51684153,43.87875 C-0.279180328,44.908 -0.140306011,46.3958125 0.834677596,47.2640625 L0.889081967,47.3100625 C3.55060109,49.4289375 8.99962842,52.9939375 15.5825574,53.05575 L15.5940109,53.05575 C19.4753333,53.05575 23.1848525,51.9129375 26.0425137,49.83575 C29.082,47.6291875 30.8243716,44.494 30.8243716,41.2323125 C30.8243716,37.9835625 29.1034754,34.9935625 26.1169617,33.037125" id="Fill-4" fill="#FFFFFF"></path>
                        <path d="M56.5877049,35.1545625 L39.7925027,35.1545625 C41.0982077,31.490375 44.399694,29.0394375 48.2581093,29.0394375 C52.0463716,29.0394375 55.3507213,31.5378125 56.5877049,35.1545625 L56.5877049,35.1545625 Z M48.2581093,23.9334375 C40.4840109,23.9334375 34.1587869,30.4769375 34.1587869,38.5211875 C34.1587869,46.5065 40.4840109,53.001125 48.2581093,53.001125 C53.0328087,53.001125 57.4223825,50.5329375 60.0252022,46.36275 C60.7152787,45.1739375 60.3888525,43.709125 59.249224,42.875375 L59.1575956,42.8135625 C58.7724699,42.5806875 58.322918,42.4585 57.8619126,42.4585 C56.9642404,42.4585 56.1596284,42.9199375 55.7186667,43.6775 C54.163847,46.279375 51.3061858,47.895125 48.2581093,47.895125 C43.8656721,47.895125 40.1862186,44.6104375 39.3930601,40.207375 L59.703071,40.207375 C61.1304699,40.207375 62.2457596,39.135 62.2457596,37.763625 L62.2443279,37.447375 C61.6444481,29.7438125 55.6299016,23.9334375 48.2581093,23.9334375 L48.2581093,23.9334375 Z" id="Fill-6" fill="#FFFFFF"></path>
                        <path d="M96.2957377,23.9334375 C94.8683388,23.9334375 93.7516175,25.0546875 93.7516175,26.4864375 L93.7516175,50.448125 C93.7516175,51.856875 94.8926776,53.001125 96.2957377,53.001125 C97.7274317,53.001125 98.8913989,51.856875 98.8913989,50.448125 L98.8913989,26.4864375 C98.8913989,25.0546875 97.7503388,23.9334375 96.2957377,23.9334375" id="Fill-7" fill="#FFFFFF"></path>
                        <path d="M116.320842,47.895125 C111.530393,47.895125 107.634754,43.6645625 107.634754,38.4665625 C107.634754,33.3289375 111.612,28.9848125 116.320842,28.9848125 C121.029683,28.9848125 125.006929,33.3289375 125.006929,38.4665625 C125.006929,43.6645625 121.11129,47.895125 116.320842,47.895125 L116.320842,47.895125 Z M116.320842,23.9334375 C108.725705,23.9334375 102.547945,30.4539375 102.547945,38.4665625 C102.547945,46.4820625 108.725705,53.001125 116.320842,53.001125 C123.91741,53.001125 130.095169,46.4820625 130.095169,38.4665625 C130.095169,30.4539375 123.91741,23.9334375 116.320842,23.9334375 L116.320842,23.9334375 Z" id="Fill-8" fill="#FFFFFF"></path>
                        <path d="M148.657082,23.9880625 C144.198787,23.9880625 141.010404,26.278 138.94447,28.54925 L138.94447,26.5410625 C138.94447,25.13375 137.827749,23.9880625 136.456186,23.9880625 C134.998721,23.9880625 133.857661,25.1093125 133.857661,26.5410625 L133.857661,50.448125 C133.857661,51.879875 134.998721,53.001125 136.456186,53.001125 C137.827749,53.001125 138.94447,51.856875 138.94447,50.448125 L138.94447,38.8719375 L138.981694,38.77275 C139.425519,37.5005625 140.404798,35.049625 141.976798,32.9436875 C143.99835,30.317375 146.121552,29.0955 148.657082,29.0955 C150.060142,29.0955 151.19977,27.9498125 151.19977,26.5410625 C151.19977,25.1093125 150.083049,23.9880625 148.657082,23.9880625" id="Fill-9" fill="#FFFFFF"></path>
                        <path d="M177.020372,24.3560625 C176.715421,24.2266875 176.390426,24.162 176.05541,24.162 C174.985934,24.162 174.046743,24.8045625 173.701705,25.7648125 L166.065049,43.921875 L158.428393,25.7648125 C157.975978,24.5026875 156.504197,23.7695625 155.073934,24.3704375 C153.844109,24.9310625 153.27,26.413125 153.792568,27.6766875 L163.719934,51.39975 C163.921803,51.914375 164.226754,52.2176875 164.430055,52.4189375 L164.581814,52.5684375 L164.759344,52.6575625 C164.822339,52.696375 164.928284,52.7553125 165.072885,52.8070625 C165.175967,52.86025 165.299093,52.903375 165.439399,52.9278125 C165.721443,53.001125 165.93906,53.001125 166.119454,53.001125 C166.680678,53.001125 167.456656,52.77975 167.982087,52.121375 C168.218317,51.805125 168.387257,51.471625 168.488907,51.132375 L178.338962,27.672375 C178.877279,26.372875 178.285989,24.883625 177.020372,24.3560625" id="Fill-10" fill="#FFFFFF"></path>
                        <path d="M192.723191,28.9848125 C197.513639,28.9848125 201.412142,33.238375 201.412142,38.4665625 C201.412142,43.6645625 197.513639,47.895125 192.723191,47.895125 C187.934175,47.895125 184.037104,43.6645625 184.037104,38.4665625 C184.037104,33.238375 187.934175,28.9848125 192.723191,28.9848125 L192.723191,28.9848125 Z M203.954831,23.9334375 C202.527432,23.9334375 201.412142,25.0546875 201.412142,26.4864375 L201.412142,27.1994375 C198.978262,25.1179375 195.90012,23.9334375 192.723191,23.9334375 C185.130918,23.9334375 178.950295,30.4539375 178.950295,38.4665625 C178.950295,46.4820625 185.130918,53.001125 192.723191,53.001125 C195.887235,53.001125 198.96824,51.8008125 201.412142,49.692 L201.412142,50.448125 C201.412142,51.856875 202.553202,53.001125 203.954831,53.001125 C205.357891,53.001125 206.497519,51.856875 206.497519,50.448125 L206.497519,26.4864375 C206.497519,25.0546875 205.380798,23.9334375 203.954831,23.9334375 L203.954831,23.9334375 Z" id="Fill-11" fill="#FFFFFF"></path>
                        <path d="M213.19212,12.549875 C211.790492,12.549875 210.649432,13.6955625 210.649432,15.1014375 L210.649432,50.448125 C210.649432,51.856875 211.790492,53.001125 213.19212,53.001125 C214.623814,53.001125 215.789213,51.856875 215.789213,50.448125 L215.789213,15.1014375 C215.789213,13.6955625 214.623814,12.549875 213.19212,12.549875" id="Fill-12" fill="#FFFFFF"></path>
                        <path d="M238.923956,43.1614375 L238.875279,43.1298125 C237.510874,42.3650625 236.059137,41.874875 234.439891,41.6319375 L234.313902,41.621875 C232.991016,41.412 231.928699,41.052625 231.234328,40.5854375 C230.690284,40.1484375 230.584339,39.873875 230.584339,39.52025 C230.584339,39.066 230.860656,38.5930625 231.368907,38.1848125 C232.004579,37.6673125 232.979563,37.3826875 234.112033,37.3826875 C235.496481,37.3826875 236.588863,38.11725 237.747104,38.8935 L237.871661,38.9783125 C238.136525,39.1465 238.44577,39.235625 238.760743,39.235625 C239.324831,39.235625 239.841672,38.953875 240.140896,38.482375 C240.614787,37.732 240.418645,36.728625 239.689913,36.1981875 L239.591126,36.130625 C238.220995,35.2638125 236.515847,34.1828125 234.112033,34.1828125 C232.298077,34.1828125 230.690284,34.6313125 229.437552,35.4995625 C228.051672,36.5316875 227.25565,37.9979375 227.25565,39.52025 C227.25565,41.058375 228.087464,42.46425 229.479071,43.29225 C230.602951,44.0843125 232.087617,44.450875 233.539355,44.7196875 L233.615235,44.7585 L233.734066,44.7771875 C235.669716,45.100625 236.584568,45.5591875 236.984011,45.8625 C237.747104,46.5050625 237.897432,46.88025 237.918907,47.3474375 C237.918907,47.8591875 237.578164,48.3824375 236.984011,48.7791875 L236.921016,48.8251875 C236.249552,49.378625 235.25023,49.694875 234.180754,49.694875 C232.680339,49.694875 231.081137,49.0781875 229.431825,47.8620625 C229.132601,47.622 228.763224,47.4911875 228.38812,47.4911875 C227.891322,47.4911875 227.430317,47.7154375 227.119639,48.1035625 C226.567005,48.7964375 226.650044,49.7365625 227.31435,50.3374375 L227.351574,50.3661875 C229.489093,52.0854375 231.784098,52.9709375 234.172164,53.001125 L234.180754,53.001125 C235.957486,53.001125 237.552393,52.4879375 238.93541,51.46875 C240.424372,50.336 241.211803,48.9114375 241.211803,47.3474375 C241.211803,45.692875 240.334175,44.088625 238.923956,43.1614375" id="Fill-13" fill="#FFFFFF"></path>
                        <path d="M257.749301,41.4479375 L246.877016,41.4479375 C247.721716,39.074625 249.859235,37.487625 252.357541,37.487625 C254.811464,37.487625 256.947552,39.103375 257.749301,41.4479375 L257.749301,41.4479375 Z M261.414437,43.1355625 L261.411574,42.9314375 C261.022153,37.94475 257.13224,34.1828125 252.357541,34.1828125 C247.325137,34.1828125 243.230492,38.419125 243.230492,43.6271875 C243.230492,48.7964375 247.325137,53.001125 252.357541,53.001125 C255.448568,53.001125 258.289049,51.402625 259.975585,48.703 C260.422273,47.9339375 260.211814,46.9851875 259.471628,46.4475625 L259.412929,46.4073125 C259.163814,46.2549375 258.871749,46.1744375 258.575388,46.1744375 C257.992689,46.1744375 257.472984,46.4734375 257.188077,46.9650625 C256.181596,48.648375 254.330415,49.694875 252.357541,49.694875 C249.512765,49.694875 247.131858,47.5688125 246.61788,44.7196875 L259.765126,44.7196875 C260.69,44.7196875 261.414437,44.0225 261.414437,43.1355625 L261.414437,43.1355625 Z" id="Fill-14" fill="#FFFFFF"></path>
                        <path d="M68.3061202,53.001125 C69.7091803,53.001125 70.8502404,51.856875 70.8502404,50.4466875 L70.8502404,36.015625 C70.8502404,32.1588125 73.9011803,29.1026875 77.7653224,29.05525 C81.6008306,29.10125 84.6059563,32.1588125 84.6059563,36.015625 L84.6059563,50.4466875 C84.6059563,51.879875 85.7212459,53.001125 87.1486448,53.001125 C88.574612,53.001125 89.692765,51.879875 89.692765,50.4466875 L89.692765,36.015625 C89.692765,29.3614375 84.3482514,23.946375 77.781071,23.946375 C71.1251257,23.946375 65.7075956,29.3614375 65.7075956,36.015625 L65.7075956,50.4466875 C65.7075956,51.879875 66.8486557,53.001125 68.3061202,53.001125" id="Fill-15" fill="#FFFFFF"></path>
                        <path d="M98.8913989,19.14225 C98.8913989,20.5668125 97.7417486,21.7225625 96.3215082,21.7225625 C94.9026995,21.7225625 93.7516175,20.5668125 93.7516175,19.14225 C93.7516175,17.71625 94.9026995,16.5619375 96.3215082,16.5619375 C97.7417486,16.5619375 98.8913989,17.71625 98.8913989,19.14225" id="Fill-33" fill="#FFFFFF"></path>
                        <path d="M223.94271,50.4208125 C223.94271,51.8468125 222.790197,53.001125 221.37282,53.001125 C219.952579,53.001125 218.801497,51.8468125 218.801497,50.4208125 C218.801497,48.9948125 219.952579,47.8419375 221.37282,47.8419375 C222.790197,47.8419375 223.94271,48.9948125 223.94271,50.4208125" id="Fill-34" fill="#FFFFFF"></path>
                    </g>
                </g>
            </g>
        </g>
    </g>
</svg>